  0
SECTION
  2
HEADER
  9
$ACADVER
  1
AC1027
  9
$ACADMAINTVER
 70
   125
  9
$DWGCODEPAGE
  3
ANSI_1252
  9
$LASTSAVEDBY
  1
yatishkale
  9
$REQUIREDVERSIONS
160
                 0
  9
$INSBASE
 10
0.0
 20
0.0
 30
0.0
  9
$EXTMIN
 10
0.0
 20
0.0
 30
0.0
  9
$EXTMAX
 10
420.0
 20
297.0
 30
0.0
  9
$LIMMIN
 10
0.0
 20
0.0
  9
$LIMMAX
 10
420.0
 20
297.0
  9
$ORTHOMODE
 70
     0
  9
$REGENMODE
 70
     1
  9
$FILLMODE
 70
     1
  9
$QTEXTMODE
 70
     0
  9
$MIRRTEXT
 70
     0
  9
$LTSCALE
 40
0.75
  9
$ATTMODE
 70
     1
  9
$TEXTSIZE
 40
3.5
  9
$TRACEWID
 40
1.0
  9
$TEXTSTYLE
  7
Standard
  9
$CLAYER
  8
0
  9
$CELTYPE
  6
ByLayer
  9
$CECOLOR
 62
   256
  9
$CELTSCALE
 40
1.0
  9
$DISPSILH
 70
     0
  9
$DIMSCALE
 40
1.0
  9
$DIMASZ
 40
3.5
  9
$DIMEXO
 40
2.1
  9
$DIMDLI
 40
10.5
  9
$DIMRND
 40
0.0
  9
$DIMDLE
 40
0.0
  9
$DIMEXE
 40
2.1
  9
$DIMTP
 40
0.1
  9
$DIMTM
 40
0.1
  9
$DIMTXT
 40
3.5
  9
$DIMCEN
 40
0.0
  9
$DIMTSZ
 40
0.0
  9
$DIMTOL
 70
     0
  9
$DIMLIM
 70
     0
  9
$DIMTIH
 70
     0
  9
$DIMTOH
 70
     0
  9
$DIMSE1
 70
     0
  9
$DIMSE2
 70
     0
  9
$DIMTAD
 70
     1
  9
$DIMZIN
 70
    12
  9
$DIMBLK
  1

  9
$DIMASO
 70
     1
  9
$DIMSHO
 70
     1
  9
$DIMPOST
  1
mm
  9
$DIMAPOST
  1

  9
$DIMALT
 70
     0
  9
$DIMALTD
 70
     2
  9
$DIMALTF
 40
0.03937
  9
$DIMLFAC
 40
1.0
  9
$DIMTOFL
 70
     1
  9
$DIMTVP
 40
0.0
  9
$DIMTIX
 70
     0
  9
$DIMSOXD
 70
     0
  9
$DIMSAH
 70
     0
  9
$DIMBLK1
  1

  9
$DIMBLK2
  1

  9
$DIMSTYLE
  2
Dim-ISO-25
  9
$DIMCLRD
 70
     0
  9
$DIMCLRE
 70
     0
  9
$DIMCLRT
 70
     0
  9
$DIMTFAC
 40
0.714286
  9
$DIMGAP
 40
1.4
  9
$DIMJUST
 70
     0
  9
$DIMSD1
 70
     0
  9
$DIMSD2
 70
     0
  9
$DIMTOLJ
 70
     0
  9
$DIMTZIN
 70
    12
  9
$DIMALTZ
 70
    12
  9
$DIMALTTZ
 70
    12
  9
$DIMUPT
 70
     0
  9
$DIMDEC
 70
     2
  9
$DIMTDEC
 70
     2
  9
$DIMALTU
 70
     2
  9
$DIMALTTD
 70
     4
  9
$DIMTXSTY
  7
Standard
  9
$DIMAUNIT
 70
     0
  9
$DIMADEC
 70
     2
  9
$DIMALTRND
 40
0.0
  9
$DIMAZIN
 70
     3
  9
$DIMDSEP
 70
    46
  9
$DIMATFIT
 70
     3
  9
$DIMFRAC
 70
     0
  9
$DIMLDRBLK
  1

  9
$DIMLUNIT
 70
     2
  9
$DIMLWD
 70
    -2
  9
$DIMLWE
 70
    -2
  9
$DIMTMOVE
 70
     0
  9
$DIMFXL
 40
1.0
  9
$DIMFXLON
 70
     0
  9
$DIMJOGANG
 40
0.785398
  9
$DIMTFILL
 70
     0
  9
$DIMTFILLCLR
 70
     0
  9
$DIMARCSYM
 70
     0
  9
$DIMLTYPE
  6

  9
$DIMLTEX1
  6

  9
$DIMLTEX2
  6

  9
$DIMTXTDIRECTION
 70
     0
  9
$LUNITS
 70
     2
  9
$LUPREC
 70
     4
  9
$SKETCHINC
 40
1.0
  9
$FILLETRAD
 40
0.0
  9
$AUNITS
 70
     0
  9
$AUPREC
 70
     0
  9
$MENU
  1
.
  9
$ELEVATION
 40
0.0
  9
$PELEVATION
 40
0.0
  9
$THICKNESS
 40
0.0
  9
$LIMCHECK
 70
     0
  9
$CHAMFERA
 40
0.0
  9
$CHAMFERB
 40
0.0
  9
$CHAMFERC
 40
0.0
  9
$CHAMFERD
 40
0.0
  9
$SKPOLY
 70
     0
  9
$TDCREATE
 40
2460253.652638889
  9
$TDUCREATE
 40
2460253.777638889
  9
$TDUPDATE
 40
2460253.652638889
  9
$TDUUPDATE
 40
2460253.777638889
  9
$TDINDWG
 40
0.0000115741
  9
$TDUSRTIMER
 40
0.0000115741
  9
$USRTIMER
 70
     1
  9
$ANGBASE
 50
0.0
  9
$ANGDIR
 70
     0
  9
$PDMODE
 70
     0
  9
$PDSIZE
 40
0.0
  9
$PLINEWID
 40
0.0
  9
$SPLFRAME
 70
     0
  9
$SPLINETYPE
 70
     6
  9
$SPLINESEGS
 70
     8
  9
$HANDSEED
  5
445
  9
$SURFTAB1
 70
     6
  9
$SURFTAB2
 70
     6
  9
$SURFTYPE
 70
     6
  9
$SURFU
 70
     6
  9
$SURFV
 70
     6
  9
$UCSBASE
  2

  9
$UCSNAME
  2

  9
$UCSORG
 10
0.0
 20
0.0
 30
0.0
  9
$UCSXDIR
 10
1.0
 20
0.0
 30
0.0
  9
$UCSYDIR
 10
0.0
 20
1.0
 30
0.0
  9
$UCSORTHOREF
  2

  9
$UCSORTHOVIEW
 70
     0
  9
$UCSORGTOP
 10
0.0
 20
0.0
 30
0.0
  9
$UCSORGBOTTOM
 10
0.0
 20
0.0
 30
0.0
  9
$UCSORGLEFT
 10
0.0
 20
0.0
 30
0.0
  9
$UCSORGRIGHT
 10
0.0
 20
0.0
 30
0.0
  9
$UCSORGFRONT
 10
0.0
 20
0.0
 30
0.0
  9
$UCSORGBACK
 10
0.0
 20
0.0
 30
0.0
  9
$PUCSBASE
  2

  9
$PUCSNAME
  2

  9
$PUCSORG
 10
0.0
 20
0.0
 30
0.0
  9
$PUCSXDIR
 10
1.0
 20
0.0
 30
0.0
  9
$PUCSYDIR
 10
0.0
 20
1.0
 30
0.0
  9
$PUCSORTHOREF
  2

  9
$PUCSORTHOVIEW
 70
     0
  9
$PUCSORGTOP
 10
0.0
 20
0.0
 30
0.0
  9
$PUCSORGBOTTOM
 10
0.0
 20
0.0
 30
0.0
  9
$PUCSORGLEFT
 10
0.0
 20
0.0
 30
0.0
  9
$PUCSORGRIGHT
 10
0.0
 20
0.0
 30
0.0
  9
$PUCSORGFRONT
 10
0.0
 20
0.0
 30
0.0
  9
$PUCSORGBACK
 10
0.0
 20
0.0
 30
0.0
  9
$USERI1
 70
     0
  9
$USERI2
 70
     0
  9
$USERI3
 70
     0
  9
$USERI4
 70
     0
  9
$USERI5
 70
     0
  9
$USERR1
 40
0.0
  9
$USERR2
 40
0.0
  9
$USERR3
 40
0.0
  9
$USERR4
 40
0.0
  9
$USERR5
 40
0.0
  9
$WORLDVIEW
 70
     1
  9
$SHADEDGE
 70
     3
  9
$SHADEDIF
 70
    70
  9
$TILEMODE
 70
     1
  9
$MAXACTVP
 70
    64
  9
$PINSBASE
 10
0.0
 20
0.0
 30
0.0
  9
$PLIMCHECK
 70
     0
  9
$PEXTMIN
 10
1.000000E+20
 20
1.000000E+20
 30
1.000000E+20
  9
$PEXTMAX
 10
-1.000000E+20
 20
-1.000000E+20
 30
-1.000000E+20
  9
$PLIMMIN
 10
0.0
 20
0.0
  9
$PLIMMAX
 10
12.0
 20
9.0
  9
$UNITMODE
 70
     0
  9
$VISRETAIN
 70
     1
  9
$PLINEGEN
 70
     0
  9
$PSLTSCALE
 70
     1
  9
$TREEDEPTH
 70
  3020
  9
$CMLSTYLE
  2
Standard
  9
$CMLJUST
 70
     0
  9
$CMLSCALE
 40
20.0
  9
$PROXYGRAPHICS
 70
     1
  9
$MEASUREMENT
 70
     1
  9
$CELWEIGHT
370
    -1
  9
$ENDCAPS
280
     0
  9
$JOINSTYLE
280
     0
  9
$LWDISPLAY
290
     0
  9
$INSUNITS
 70
     4
  9
$HYPERLINKBASE
  1

  9
$STYLESHEET
  1

  9
$XEDIT
290
     1
  9
$CEPSNTYPE
380
     0
  9
$PSTYLEMODE
290
     1
  9
$FINGERPRINTGUID
  2
{636EC291-F615-AF44-8578-8C1EECD5630E}
  9
$VERSIONGUID
  2
{F176FA35-F290-5344-9B07-85DB831FAA26}
  9
$EXTNAMES
290
     1
  9
$PSVPSCALE
 40
0.0
  9
$OLESTARTUP
290
     0
  9
$SORTENTS
280
   127
  9
$INDEXCTL
280
     0
  9
$HIDETEXT
280
     1
  9
$XCLIPFRAME
280
     0
  9
$HALOGAP
280
     0
  9
$OBSCOLOR
 70
   257
  9
$OBSLTYPE
280
     0
  9
$INTERSECTIONDISPLAY
280
     0
  9
$INTERSECTIONCOLOR
 70
   257
  9
$DIMASSOC
280
     2
  9
$PROJECTNAME
  1

  9
$CAMERADISPLAY
290
     0
  9
$LENSLENGTH
 40
50.0
  9
$CAMERAHEIGHT
 40
0.0
  9
$STEPSPERSEC
 40
2.0
  9
$STEPSIZE
 40
6.0
  9
$3DDWFPREC
 40
2.0
  9
$PSOLWIDTH
 40
5.0
  9
$PSOLHEIGHT
 40
80.0
  9
$LOFTANG1
 40
1.570796
  9
$LOFTANG2
 40
1.570796
  9
$LOFTMAG1
 40
0.0
  9
$LOFTMAG2
 40
0.0
  9
$LOFTPARAM
 70
     7
  9
$LOFTNORMALS
280
     1
  9
$LATITUDE
 40
37.795
  9
$LONGITUDE
 40
-122.394
  9
$NORTHDIRECTION
 40
0.0
  9
$TIMEZONE
 70
 -8000
  9
$LIGHTGLYPHDISPLAY
280
     1
  9
$TILEMODELIGHTSYNCH
280
     1
  9
$CMATERIAL
347
11
  9
$SOLIDHIST
280
     0
  9
$SHOWHIST
280
     1
  9
$DWFFRAME
280
     2
  9
$DGNFRAME
280
     0
  9
$REALWORLDSCALE
290
     1
  9
$INTERFERECOLOR
 62
     1
  9
$INTERFEREOBJVS
345
33
  9
$INTERFEREVPVS
346
30
  9
$CSHADOW
280
     0
  9
$SHADOWPLANELOCATION
 40
0.0
  0
ENDSEC
  0
SECTION
  2
CLASSES
  0
CLASS
  1
ACDBDICTIONARYWDFLT
  2
AcDbDictionaryWithDefault
  3
ObjectDBX Classes
 90
        0
 91
        1
280
     0
281
     0
  0
CLASS
  1
MATERIAL
  2
AcDbMaterial
  3
ObjectDBX Classes
 90
     1153
 91
        3
280
     0
281
     0
  0
CLASS
  1
VISUALSTYLE
  2
AcDbVisualStyle
  3
ObjectDBX Classes
 90
     4095
 91
       24
280
     0
281
     0
  0
CLASS
  1
SCALE
  2
AcDbScale
  3
ObjectDBX Classes
 90
     1153
 91
       17
280
     0
281
     0
  0
CLASS
  1
TABLESTYLE
  2
AcDbTableStyle
  3
ObjectDBX Classes
 90
     4095
 91
        1
280
     0
281
     0
  0
CLASS
  1
MLEADERSTYLE
  2
AcDbMLeaderStyle
  3
ACDB_MLEADERSTYLE_CLASS
 90
     4095
 91
        1
280
     0
281
     0
  0
CLASS
  1
ACDBSECTIONVIEWSTYLE
  2
AcDbSectionViewStyle
  3
ObjectDBX Classes
 90
     1025
 91
        1
280
     0
281
     0
  0
CLASS
  1
ACDBDETAILVIEWSTYLE
  2
AcDbDetailViewStyle
  3
ObjectDBX Classes
 90
     1025
 91
        1
280
     0
281
     0
  0
CLASS
  1
ACMESCOPE
  2
AcMeScope
  3
AcMeServices
 90
     1024
 91
        1
280
     0
281
     0
  0
CLASS
  1
ACMECOMMANDHISTORY
  2
AcMeCommandHistory
  3
AcMeServices
 90
     1024
 91
        1
280
     0
281
     0
  0
CLASS
  1
ACIMSYSVARMAN
  2
AcImSysVarManager
  3
AcMeServices
 90
     1024
 91
        1
280
     0
281
     0
  0
CLASS
  1
ACIMINTSYSVAR
  2
AcImIntSysVar
  3
AcMeServices
 90
     1024
 91
        1
280
     0
281
     0
  0
CLASS
  1
ACMESTATEMGR
  2
AcMeStateMgr
  3
AcMeServices
 90
     1024
 91
        1
280
     0
281
     0
  0
CLASS
  1
ACGREFMASTER
  2
AcGrefMaster
  3
AcAttribServices
 90
     1024
 91
        1
280
     0
281
     0
  0
CLASS
  1
SORTENTSTABLE
  2
AcDbSortentsTable
  3
ObjectDBX Classes
 90
        0
 91
        3
280
     0
281
     0
  0
CLASS
  1
DICTIONARYVAR
  2
AcDbDictionaryVar
  3
ObjectDBX Classes
 90
        0
 91
        6
280
     0
281
     0
  0
CLASS
  1
CELLSTYLEMAP
  2
AcDbCellStyleMap
  3
ObjectDBX Classes
 90
     1152
 91
        1
280
     0
281
     0
  0
ENDSEC
  0
SECTION
  2
TABLES
  0
TABLE
  2
VPORT
  5
8
330
0
100
AcDbSymbolTable
 70
     1
1001
ACAD
1000
DbSaveVer
1071
      298
  0
VPORT
  5
57
330
8
100
AcDbSymbolTableRecord
100
AcDbViewportTableRecord
  2
*Active
 70
     0
 10
0.0
 20
0.0
 11
1.0
 21
1.0
 12
210.0
 22
148.5
 13
0.0
 23
0.0
 14
0.5
 24
0.5
 15
0.0
 25
0.0
 16
0.0
 26
0.0
 36
1.0
 17
0.0
 27
0.0
 37
0.0
 40
297.0
 41
1.805226
 42
50.0
 43
0.0
 44
0.0
 50
0.0
 51
0.0
 71
     0
 72
 20000
 73
     1
 74
     0
 75
     0
 76
     0
 77
     0
 78
     0
281
     0
 65
     1
110
0.0
120
0.0
130
0.0
111
1.0
121
0.0
131
0.0
112
0.0
122
1.0
132
0.0
 79
     0
146
0.0
348
2F
 60
     3
 61
     5
292
     1
282
     1
141
0.0
142
0.0
 63
   250
421
  3355443
  0
ENDTAB
  0
TABLE
  2
LTYPE
  5
5
330
0
100
AcDbSymbolTable
 70
    15
  0
LTYPE
  5
5B
330
5
100
AcDbSymbolTableRecord
100
AcDbLinetypeTableRecord
  2
ByBlock
 70
     0
  3

 72
    65
 73
     0
 40
0.0
  0
LTYPE
  5
5C
330
5
100
AcDbSymbolTableRecord
100
AcDbLinetypeTableRecord
  2
ByLayer
 70
     0
  3

 72
    65
 73
     0
 40
0.0
  0
LTYPE
  5
5D
330
5
100
AcDbSymbolTableRecord
100
AcDbLinetypeTableRecord
  2
Continuous
 70
     0
  3
Solid line
 72
    65
 73
     0
 40
0.0
  0
LTYPE
  5
81
330
5
100
AcDbSymbolTableRecord
100
AcDbLinetypeTableRecord
  2
HIDDEN
 70
     0
  3
Hidden __ __ __ __ __ __ __ __ __ __ __ __ __ _
 72
    65
 73
     2
 40
9.525
 49
6.35
 74
     0
 49
-3.175
 74
     0
  0
LTYPE
  5
82
330
5
100
AcDbSymbolTableRecord
100
AcDbLinetypeTableRecord
  2
PHANTOM2
 70
     0
  3
Phantom (.5x) ___ _ _ ___ _ _ ___ _ _ ___ _ _
 72
    65
 73
     6
 40
31.75
 49
15.875
 74
     0
 49
-3.175
 74
     0
 49
3.175
 74
     0
 49
-3.175
 74
     0
 49
3.175
 74
     0
 49
-3.175
 74
     0
  0
LTYPE
  5
83
330
5
100
AcDbSymbolTableRecord
100
AcDbLinetypeTableRecord
  2
CENTER
 70
     0
  3
Center ____ _ ____ _ ____ _ ____ _ ____ _ ____
 72
    65
 73
     4
 40
50.8
 49
31.75
 74
     0
 49
-6.35
 74
     0
 49
6.35
 74
     0
 49
-6.35
 74
     0
  0
LTYPE
  5
9B
330
5
100
AcDbSymbolTableRecord
100
AcDbLinetypeTableRecord
  2
HIDDEN2
 70
     0
  3
Hidden (.5x) _ _ _ _ _ _ _ _ _ _ _ _ _ _ _ _ _
 72
    65
 73
     2
 40
4.7625
 49
3.175
 74
     0
 49
-1.5875
 74
     0
  0
LTYPE
  5
9C
330
5
100
AcDbSymbolTableRecord
100
AcDbLinetypeTableRecord
  2
AM_ISO02W050
 70
     0
  3
__ __ __ __ __ __ __ __ __ __ __ __ __ __ __
 72
    65
 73
     2
 40
7.5
 49
6.0
 74
     0
 49
-1.5
 74
     0
  0
LTYPE
  5
9D
330
5
100
AcDbSymbolTableRecord
100
AcDbLinetypeTableRecord
  2
AM_ISO08W050
 70
     0
  3
____ . ____ . ____ . ____ . ____ . ____ . ____
 72
    65
 73
     4
 40
18.0
 49
12.0
 74
     0
 49
-1.5
 74
     0
 49
3.0
 74
     0
 49
-1.5
 74
     0
  0
LTYPE
  5
9E
330
5
100
AcDbSymbolTableRecord
100
AcDbLinetypeTableRecord
  2
AM_ISO09W050
 70
     0
  3
_____ . . _____ . . _____ . . ____ .. ____
 72
    65
 73
     6
 40
22.5
 49
12.0
 74
     0
 49
-1.5
 74
     0
 49
3.0
 74
     0
 49
-1.5
 74
     0
 49
3.0
 74
     0
 49
-1.5
 74
     0
  0
LTYPE
  5
9F
330
5
100
AcDbSymbolTableRecord
100
AcDbLinetypeTableRecord
  2
Amconstr
 70
     0
  3
_______________________
 72
    65
 73
     2
 40
9999.0
 49
9999.0
 74
     0
 49
0.0
 74
     0
  0
LTYPE
  5
A0
330
5
100
AcDbSymbolTableRecord
100
AcDbLinetypeTableRecord
  2
AM_ISO08W050x2
 70
     0
  3
__ . __ . __ . __ . __ . __
 72
    65
 73
     4
 40
9.0
 49
6.0
 74
     0
 49
-0.75
 74
     0
 49
1.5
 74
     0
 49
-0.75
 74
     0
  0
LTYPE
  5
A1
330
5
100
AcDbSymbolTableRecord
100
AcDbLinetypeTableRecord
  2
AM_ISO02W050x2
 70
     0
  3
 _ _ _ _ _ _ _ _ _ _ _ _
 72
    65
 73
     2
 40
3.75
 49
3.0
 74
     0
 49
-0.75
 74
     0
  0
LTYPE
  5
A2
330
5
100
AcDbSymbolTableRecord
100
AcDbLinetypeTableRecord
  2
Amzigzag
 70
     0
  3
/\/-/\/-/\/-/\/-/\/-/\/
 72
    65
 73
     2
 40
11.0001
 49
0.0001
 74
     4
 75
   136
340
98
 46
0.04
 50
0.0
 44
0.0
 45
0.0
 49
-11.0
 74
     0
  0
LTYPE
  5
A3
330
5
100
AcDbSymbolTableRecord
100
AcDbLinetypeTableRecord
  2
ACISOWELD
 70
     0
  3
_ _ _ _ _
 72
    65
 73
     2
 40
2.0
 49
2.0
 74
     0
 49
-1.0
 74
     0
  0
LTYPE
  5
A4
330
5
100
AcDbSymbolTableRecord
100
AcDbLinetypeTableRecord
  2
ACISOTGL
 70
     0
  3
_ _ _ _ _
 72
    65
 73
     2
 40
3.0
 49
2.0
 74
     0
 49
-1.0
 74
     0
  0
LTYPE
  5
A5
330
5
100
AcDbSymbolTableRecord
100
AcDbLinetypeTableRecord
  2
ACISOTGB
 70
     0
  3
__ . . __ . .
 72
    65
 73
     6
 40
9.0
 49
4.0
 74
     0
 49
-1.0
 74
     0
 49
1.0
 74
     0
 49
-1.0
 74
     0
 49
1.0
 74
     0
 49
-1.0
 74
     0
  0
ENDTAB
  0
TABLE
  2
LAYER
  5
2
330
0
100
AcDbSymbolTable
 70
    11
  0
LAYER
  5
54
330
2
100
AcDbSymbolTableRecord
100
AcDbLayerTableRecord
  2
0
 70
     0
 62
     7
  6
Continuous
370
    -3
390
F
347
21
348
0
1001
AcAecLayerStandard
1000

1000

  0
LAYER
  5
79
330
2
100
AcDbSymbolTableRecord
100
AcDbLayerTableRecord
  2
Defpoints
 70
     0
 62
     7
  6
Continuous
290
     0
370
    -3
390
F
347
21
348
0
1001
AcAecLayerStandard
1000

1000

  0
LAYER
  5
B1
330
2
100
AcDbSymbolTableRecord
100
AcDbLayerTableRecord
  2
Visible
 70
     0
 62
     7
  6
Continuous
370
    50
390
F
347
21
348
0
  0
LAYER
  5
E5
330
2
100
AcDbSymbolTableRecord
100
AcDbLayerTableRecord
  2
Hidden
 70
     0
 62
     7
  6
HIDDEN2
370
    25
390
F
347
21
348
0
  0
LAYER
  5
1C3
330
2
100
AcDbSymbolTableRecord
100
AcDbLayerTableRecord
  2
BORDER
 70
     0
 62
     7
  6
Continuous
370
    25
390
F
347
21
348
0
1001
AcAecLayerStandard
1000

1000

1001
AcCmTransparency
1071
        0
  0
LAYER
  5
209
330
2
100
AcDbSymbolTableRecord
100
AcDbLayerTableRecord
  2
TITLEBLOCK
 70
     0
 62
     7
  6
Continuous
370
    35
390
F
347
21
348
0
1001
AcAecLayerStandard
1000

1000

1001
AcCmTransparency
1071
        0
  0
LAYER
  5
255
330
2
100
AcDbSymbolTableRecord
100
AcDbLayerTableRecord
  2
FD_Dimensions
 70
     0
 62
     7
  6
Continuous
370
    25
390
F
347
21
348
0
  0
ENDTAB
  0
TABLE
  2
STYLE
  5
3
330
0
100
AcDbSymbolTable
 70
     5
  0
STYLE
  5
55
330
3
100
AcDbSymbolTableRecord
100
AcDbTextStyleTableRecord
  2
Standard
 70
     0
 40
0.0
 41
1.0
 50
0.0
 71
     0
 42
3.5
  3
arial.ttf
  4

1001
ACAD
1000
Arial
1071
       34
  0
STYLE
  5
5A
330
3
100
AcDbSymbolTableRecord
100
AcDbTextStyleTableRecord
  2
Annotative
 70
     0
 40
0.0
 41
1.0
 50
0.0
 71
     0
 42
0.2
  3
txt
  4

1001
AcadAnnotative
1000
AnnotativeData
1002
{
1070
     1
1070
     1
1002
}
  0
STYLE
  5
97
330
3
100
AcDbSymbolTableRecord
100
AcDbTextStyleTableRecord
  2
FusionTitle
 70
     0
 40
0.0
 41
1.0
 50
0.0
 71
     0
 42
2.5
  3
arial.ttf
  4

1001
ACAD
1000
Arial
1071
       34
  0
STYLE
  5
98
330
3
100
AcDbSymbolTableRecord
100
AcDbTextStyleTableRecord
  2

 70
     1
 40
0.0
 41
1.0
 50
0.0
 71
     0
 42
10.0
  3
genltshp.shx
  4

  0
STYLE
  5
99
330
3
100
AcDbSymbolTableRecord
100
AcDbTextStyleTableRecord
  2
ACISOGDT
 70
     0
 40
0.0
 41
1.0
 50
0.0
 71
     0
 42
10.0
  3
amgdt.shx
  4

  0
ENDTAB
  0
TABLE
  2
VIEW
  5
6
330
0
100
AcDbSymbolTable
 70
     0
  0
ENDTAB
  0
TABLE
  2
UCS
  5
7
330
0
100
AcDbSymbolTable
 70
     0
  0
ENDTAB
  0
TABLE
  2
APPID
  5
9
330
0
100
AcDbSymbolTable
 70
    24
  0
APPID
  5
56
330
9
100
AcDbSymbolTableRecord
100
AcDbRegAppTableRecord
  2
ACAD
 70
     0
  0
APPID
  5
5E
330
9
100
AcDbSymbolTableRecord
100
AcDbRegAppTableRecord
  2
AcadAnnotative
 70
     0
  0
APPID
  5
78
330
9
100
AcDbSymbolTableRecord
100
AcDbRegAppTableRecord
  2
ACAD_PSEXT
 70
     0
  0
APPID
  5
7A
330
9
100
AcDbSymbolTableRecord
100
AcDbRegAppTableRecord
  2
MCAD_NO_VIS
 70
     0
  0
APPID
  5
7B
330
9
100
AcDbSymbolTableRecord
100
AcDbRegAppTableRecord
  2
ACAD_TEMP_GRAPHIC
 70
     0
  0
APPID
  5
84
330
9
100
AcDbSymbolTableRecord
100
AcDbRegAppTableRecord
  2
ACAD_DSTYLE_DIMJAG
 70
     0
  0
APPID
  5
85
330
9
100
AcDbSymbolTableRecord
100
AcDbRegAppTableRecord
  2
ACAD_DSTYLE_DIMTALN
 70
     0
  0
APPID
  5
86
330
9
100
AcDbSymbolTableRecord
100
AcDbRegAppTableRecord
  2
ACAD_NAV_VCDISPLAY
 70
     0
  0
APPID
  5
87
330
9
100
AcDbSymbolTableRecord
100
AcDbRegAppTableRecord
  2
AcAecLayerStandard
 70
     0
  0
APPID
  5
88
330
9
100
AcDbSymbolTableRecord
100
AcDbRegAppTableRecord
  2
AcCmTransparency
 70
     0
  0
APPID
  5
89
330
9
100
AcDbSymbolTableRecord
100
AcDbRegAppTableRecord
  2
AcDbDynamicBlockGUID
 70
     0
  0
APPID
  5
8A
330
9
100
AcDbSymbolTableRecord
100
AcDbRegAppTableRecord
  2
ACAD_DSTYLE_DIMBREAK
 70
     0
  0
APPID
  5
8B
330
9
100
AcDbSymbolTableRecord
100
AcDbRegAppTableRecord
  2
ACAD_TC
 70
     0
  0
APPID
  5
8C
330
9
100
AcDbSymbolTableRecord
100
AcDbRegAppTableRecord
  2
FUSIONTITLEBLOCK
 70
     0
  0
APPID
  5
8D
330
9
100
AcDbSymbolTableRecord
100
AcDbRegAppTableRecord
  2
FUSIONCURRENTTITLEBLOCK
 70
     0
  0
APPID
  5
8E
330
9
100
AcDbSymbolTableRecord
100
AcDbRegAppTableRecord
  2
AcSynergy
 70
     0
  0
APPID
  5
8F
330
9
100
AcDbSymbolTableRecord
100
AcDbRegAppTableRecord
  2
GENIUS_GENSCREG_15
 70
     0
  0
APPID
  5
90
330
9
100
AcDbSymbolTableRecord
100
AcDbRegAppTableRecord
  2
GENIUS_GENOBJ-N-SDF_13
 70
     0
  0
APPID
  5
91
330
9
100
AcDbSymbolTableRecord
100
AcDbRegAppTableRecord
  2
GENIUS_GENODEF_13
 70
     0
  0
APPID
  5
92
330
9
100
AcDbSymbolTableRecord
100
AcDbRegAppTableRecord
  2
ACAD_DIMASSOC_CALC_DIMLFAC
 70
     0
  0
APPID
  5
93
330
9
100
AcDbSymbolTableRecord
100
AcDbRegAppTableRecord
  2
ACAD_DIMASSOC_DIMLFAC
 70
     0
  0
APPID
  5
94
330
9
100
AcDbSymbolTableRecord
100
AcDbRegAppTableRecord
  2
ACAD_DIMASSOC_OVERRIDDEN_DIMLFAC
 70
     0
  0
APPID
  5
95
330
9
100
AcDbSymbolTableRecord
100
AcDbRegAppTableRecord
  2
ACAD_DSTYLE_DIMJAG_POSITION
 70
     0
  0
APPID
  5
96
330
9
100
AcDbSymbolTableRecord
100
AcDbRegAppTableRecord
  2
ACATTRIBSERVICES
 70
     0
  0
ENDTAB
  0
TABLE
  2
DIMSTYLE
  5
A
330
0
100
AcDbSymbolTable
 70
     4
100
AcDbDimStyleTable
 71
     1
340
A9
  0
DIMSTYLE
105
58
330
A
100
AcDbSymbolTableRecord
100
AcDbDimStyleTableRecord
  2
Standard
 70
     0
  3
mm
 41
3.5
 42
2.1
 43
10.5
 44
2.1
 78
    12
 79
     3
140
3.5
143
0.03937
146
0.714286
147
1.4
179
     2
271
     2
272
     2
284
    12
340
55
  0
DIMSTYLE
105
59
330
A
100
AcDbSymbolTableRecord
100
AcDbDimStyleTableRecord
  2
Annotative
 70
     0
  3
mm
 40
0.0
 41
3.5
 42
2.1
 43
10.5
 44
2.1
 73
     0
 74
     0
 77
     1
 78
    12
 79
     3
140
3.5
141
2.5
143
0.03937
146
0.714286
147
1.4
171
     3
172
     1
179
     2
271
     2
272
     2
274
     3
278
    44
283
     0
284
    12
340
55
1001
AcadAnnotative
1000
AnnotativeData
1002
{
1070
     1
1070
     1
1002
}
  0
DIMSTYLE
105
A8
330
A
100
AcDbSymbolTableRecord
100
AcDbDimStyleTableRecord
  2
ISO-25
 70
     0
  3
mm
  4
in
 41
3.5
 42
2.1
 43
10.5
 44
2.1
 47
0.1
 48
0.1
 73
     0
 74
     0
 77
     1
 78
    12
 79
     3
140
3.5
141
0.0
143
0.03937
146
0.714286
147
1.4
171
     4
172
     1
176
   256
177
   256
178
   256
179
     2
271
     2
272
     2
274
     4
283
     0
284
    12
285
     8
340
55
1001
ACAD_DSTYLE_DIMJAG
1070
   388
1040
1.5
1001
ACAD_DSTYLE_DIMTALN
1070
   392
1070
     1
1001
ACAD_DSTYLE_DIMBREAK
1070
   391
1040
3.5
  0
DIMSTYLE
105
A9
102
{ACAD_REACTORS
330
254
330
262
330
26F
102
}
330
A
100
AcDbSymbolTableRecord
100
AcDbDimStyleTableRecord
  2
Dim-ISO-25
 70
     0
  3
mm
 41
3.5
 42
2.1
 43
10.5
 44
2.1
 47
0.1
 48
0.1
 73
     0
 74
     0
 77
     1
 78
    12
 79
     3
140
3.5
141
0.0
143
0.03937
146
0.714286
147
1.4
172
     1
179
     2
271
     2
272
     2
274
     4
283
     0
284
    12
285
    12
286
    12
340
55
1001
ACAD_DSTYLE_DIMJAG
1070
   388
1040
1.5
1001
ACAD_DSTYLE_DIMTALN
1070
   392
1070
     1
1001
ACAD_DSTYLE_DIMBREAK
1070
   391
1040
3.5
  0
ENDTAB
  0
TABLE
  2
BLOCK_RECORD
  5
1
330
0
100
AcDbSymbolTable
 70
    13
  0
BLOCK_RECORD
  5
70
102
{ACAD_XDICTIONARY
360
AA
102
}
330
1
100
AcDbSymbolTableRecord
100
AcDbBlockTableRecord
  2
*Model_Space
340
73
 70
     0
280
     1
281
     0
  0
BLOCK_RECORD
  5
6C
330
1
100
AcDbSymbolTableRecord
100
AcDbBlockTableRecord
  2
*Paper_Space
340
6F
 70
     0
280
     1
281
     0
  0
BLOCK_RECORD
  5
74
330
1
100
AcDbSymbolTableRecord
100
AcDbBlockTableRecord
  2
*Paper_Space0
340
77
 70
     0
280
     1
281
     0
  0
BLOCK_RECORD
  5
1C4
102
{ACAD_XDICTIONARY
360
1C5
102
}
330
1
100
AcDbSymbolTableRecord
100
AcDbBlockTableRecord
  2
ISO_A3_SHEET
340
0
310
2800000020000000200000000100080000000000000400000000000000000000000000000000000000000000000080000080000000808000800000008000800080800000C0C0C000C0DCC000F0CAA6000020400000206000002080000020A0000020C0000020E00000400000004020000040400000406000004080000040A0
310
000040C0000040E00000600000006020000060400000606000006080000060A0000060C0000060E00000800000008020000080400000806000008080000080A0000080C0000080E00000A0000000A0200000A0400000A0600000A0800000A0A00000A0C00000A0E00000C0000000C0200000C0400000C0600000C0800000C0
310
A00000C0C00000C0E00000E0000000E0200000E0400000E0600000E0800000E0A00000E0C00000E0E00040000000400020004000400040006000400080004000A0004000C0004000E00040200000402020004020400040206000402080004020A0004020C0004020E000404000004040200040404000404060004040800040
310
40A0004040C0004040E00040600000406020004060400040606000406080004060A0004060C0004060E00040800000408020004080400040806000408080004080A0004080C0004080E00040A0000040A0200040A0400040A0600040A0800040A0A00040A0C00040A0E00040C0000040C0200040C0400040C0600040C08000
310
40C0A00040C0C00040C0E00040E0000040E0200040E0400040E0600040E0800040E0A00040E0C00040E0E00080000000800020008000400080006000800080008000A0008000C0008000E00080200000802020008020400080206000802080008020A0008020C0008020E00080400000804020008040400080406000804080
310
008040A0008040C0008040E00080600000806020008060400080606000806080008060A0008060C0008060E00080800000808020008080400080806000808080008080A0008080C0008080E00080A0000080A0200080A0400080A0600080A0800080A0A00080A0C00080A0E00080C0000080C0200080C0400080C0600080C0
310
800080C0A00080C0C00080C0E00080E0000080E0200080E0400080E0600080E0800080E0A00080E0C00080E0E000C0000000C0002000C0004000C0006000C0008000C000A000C000C000C000E000C0200000C0202000C0204000C0206000C0208000C020A000C020C000C020E000C0400000C0402000C0404000C0406000C0
310
408000C040A000C040C000C040E000C0600000C0602000C0604000C0606000C0608000C060A000C060C000C060E000C0800000C0802000C0804000C0806000C0808000C080A000C080C000C080E000C0A00000C0A02000C0A04000C0A06000C0A08000C0A0A000C0A0C000C0A0E000C0C00000C0C02000C0C04000C0C06000
310
C0C08000C0C0A000F0FBFF00A4A0A000808080000000FF0000FF000000FFFF00FF000000FF00FF00FFFF0000FFFFFF0049494949494949494949494949494949494949494949494949494949494949494949494949494949494949494949494949494949494949494949494949494949494949494949494949494949494949
310
494949494949494949494949494949494949494949494949494949494949494949494949494949494949494949494949494949494949494949494949494949494949494949494949494949494949494949494949494949494949494949494949494949494949494949494949494949494949FFFFFFFFFFFFFFFFFFFFFFFFFF
310
FFFFFFFFFFFFFFFFFFFFFFFFFFFFFFFFFF4949FF49FF494949494949494949494949FF494949494949494949494949FFFF49494949FF49494949494949494949494949494949494949494949494949FF49494949FFFF49494949494949494949494949494949494949494949494949FF4949494949FF494949494949494949
310
49494949494949494949494949494949FF4949494949FF49494949494949494949494949494949494949494949494949FF49494949FFFF49494949494949494949494949494949494949494949494949FF4949494949FF49494949494949494949494949494949494949494949494949FF4949494949FF4949494949494949
310
4949494949494949494949494949494949FF4949494949FF49494949494949494949494949494949494949494949494949FF49494949FFFF49494949494949494949494949494949494949494949494949FF4949494949FF49494949494949494949494949494949494949494949494949FF4949494949FF49494949494949
310
494949494949494949494949494949494949FF49494949FFFF49494949494949494949494949494949494949494949494949FF4949494949FF49494949494949494949494949494949494949494949494949FF4949494949FF49494949494949494949494949494949494949494949494949FF49494949FFFF494949494949
310
49494949494949494949494949494949494949FF4949494949FF49494949494949494949494949494949494949494949494949FF494949FF49FF494949494949494949494949FF494949494949494949494949FFFF4949FFFFFFFFFFFFFFFFFFFFFFFFFFFFFFFFFFFFFFFFFFFFFFFFFFFFFFFFFFFF49494949494949494949
310
49494949494949494949494949494949494949494949494949494949494949494949494949494949494949494949494949494949494949494949494949494949494949494949494949494949494949494949494949494949494949494949494949494949494949494949494949494949494949494949494949494949494949
310
4949494949494949494949494949494949494949494949494949494949494949494949494949494949494949494949494949494949494949
102
{BLKREFS
331
1C2
102
}
 70
     4
280
     1
281
     0
1001
AcDbDynamicBlockGUID
1000
{B4874B5E-8040-BF49-A9B6-B81412F7B0AC}
  0
BLOCK_RECORD
  5
20A
102
{ACAD_XDICTIONARY
360
20B
102
}
330
1
100
AcDbSymbolTableRecord
100
AcDbBlockTableRecord
  2
ISO_TITLEBLOCK
340
0
310
2800000020000000200000000100080000000000000400000000000000000000000000000000000000000000000080000080000000808000800000008000800080800000C0C0C000C0DCC000F0CAA6000020400000206000002080000020A0000020C0000020E00000400000004020000040400000406000004080000040A0
310
000040C0000040E00000600000006020000060400000606000006080000060A0000060C0000060E00000800000008020000080400000806000008080000080A0000080C0000080E00000A0000000A0200000A0400000A0600000A0800000A0A00000A0C00000A0E00000C0000000C0200000C0400000C0600000C0800000C0
310
A00000C0C00000C0E00000E0000000E0200000E0400000E0600000E0800000E0A00000E0C00000E0E00040000000400020004000400040006000400080004000A0004000C0004000E00040200000402020004020400040206000402080004020A0004020C0004020E000404000004040200040404000404060004040800040
310
40A0004040C0004040E00040600000406020004060400040606000406080004060A0004060C0004060E00040800000408020004080400040806000408080004080A0004080C0004080E00040A0000040A0200040A0400040A0600040A0800040A0A00040A0C00040A0E00040C0000040C0200040C0400040C0600040C08000
310
40C0A00040C0C00040C0E00040E0000040E0200040E0400040E0600040E0800040E0A00040E0C00040E0E00080000000800020008000400080006000800080008000A0008000C0008000E00080200000802020008020400080206000802080008020A0008020C0008020E00080400000804020008040400080406000804080
310
008040A0008040C0008040E00080600000806020008060400080606000806080008060A0008060C0008060E00080800000808020008080400080806000808080008080A0008080C0008080E00080A0000080A0200080A0400080A0600080A0800080A0A00080A0C00080A0E00080C0000080C0200080C0400080C0600080C0
310
800080C0A00080C0C00080C0E00080E0000080E0200080E0400080E0600080E0800080E0A00080E0C00080E0E000C0000000C0002000C0004000C0006000C0008000C000A000C000C000C000E000C0200000C0202000C0204000C0206000C0208000C020A000C020C000C020E000C0400000C0402000C0404000C0406000C0
310
408000C040A000C040C000C040E000C0600000C0602000C0604000C0606000C0608000C060A000C060C000C060E000C0800000C0802000C0804000C0806000C0808000C080A000C080C000C080E000C0A00000C0A02000C0A04000C0A06000C0A08000C0A0A000C0A0C000C0A0E000C0C00000C0C02000C0C04000C0C06000
310
C0C08000C0C0A000F0FBFF00A4A0A000808080000000FF0000FF000000FFFF00FF000000FF00FF00FFFF0000FFFFFF0049494949494949494949494949494949494949494949494949494949494949494949494949494949494949494949494949494949494949494949494949494949494949494949494949494949494949
310
49494949494949494949494949494949494949494949494949494949494949494949494949494949494949494949494949494949494949494949494949494949494949494949494949494949494949494949494949494949494949494949494949494949494949494949494949494949494949494949494949494949494949
310
49494949494949494949494949494949494949494949494949494949494949494949494949494949494949494949494949494949494949494949494949494949494949494949494949494949494949494949494949494949494949494949494949494949494949494949494949494949494949494949494949494949494949
310
49494949494949494949494949494949494949494949494949494949494949494949494949494949494949494949494949494949FFFFFFFFFFFFFFFFFFFFFFFFFFFFFFFFFFFFFFFFFFFFFFFFFFFFFF4949494949FF4949494949494949FFFFFFFFFF49494949FFFFFFFFFFFFFFFFFFFF49494949FF4949494949494949FFFF
310
FFFFFF494949FFFFFFFFFFFFFFFFFFFF4949494949FF4949494949494949FFFFFFFFFF494949FFFFFFFFFFFFFFFFFFFF4949494949FF4949494949494949FFFFFFFFFFFFFFFFFFFFFFFFFFFFFFFFFFFF4949494949FFFFFFFFFFFFFFFFFFFFFFFFFFFFFFFFFFFFFFFFFFFFFFFFFFFFFF4949494949FFFFFF49FFFFFFFFFFFF
310
FFFFFFFFFFFFFFFFFFFFFFFFFFFFFFFFFFFFFFFF4949FFFFFFFFFFFFFFFFFFFFFFFFFFFFFFFFFFFFFFFFFFFFFFFFFFFFFF494949494949494949494949494949494949494949494949494949494949494949494949494949494949494949494949494949494949494949494949494949494949494949494949494949494949
310
49494949494949494949494949494949494949494949494949494949494949494949494949494949494949494949494949494949494949494949494949494949494949494949494949494949494949494949494949494949494949494949494949494949494949494949494949494949494949494949494949494949494949
310
49494949494949494949494949494949494949494949494949494949494949494949494949494949494949494949494949494949494949494949494949494949494949494949494949494949494949494949494949494949494949494949494949494949494949494949494949494949494949494949494949494949494949
310
4949494949494949494949494949494949494949494949494949494949494949494949494949494949494949494949494949494949494949
102
{BLKREFS
331
208
102
}
 70
     4
280
     1
281
     0
1001
AcDbDynamicBlockGUID
1000
{BCD52D05-323A-B54A-8A21-1B84008CF9CB}
1001
FUSIONTITLEBLOCK
1000
TitleBlock
  0
BLOCK_RECORD
  5
256
330
1
100
AcDbSymbolTableRecord
100
AcDbBlockTableRecord
  2
*D7
340
0
 70
     0
280
     1
281
     0
  0
BLOCK_RECORD
  5
263
330
1
100
AcDbSymbolTableRecord
100
AcDbBlockTableRecord
  2
*D8
340
0
 70
     0
280
     1
281
     0
  0
BLOCK_RECORD
  5
270
330
1
100
AcDbSymbolTableRecord
100
AcDbBlockTableRecord
  2
*D9
340
0
 70
     0
280
     1
281
     0
  0
BLOCK_RECORD
  5
27F
330
1
100
AcDbSymbolTableRecord
100
AcDbBlockTableRecord
  2
*D10
340
0
 70
     0
280
     1
281
     0
  0
BLOCK_RECORD
  5
28B
330
1
100
AcDbSymbolTableRecord
100
AcDbBlockTableRecord
  2
*D11
340
0
 70
     0
280
     1
281
     0
  0
BLOCK_RECORD
  5
297
330
1
100
AcDbSymbolTableRecord
100
AcDbBlockTableRecord
  2
*D12
340
0
 70
     0
280
     1
281
     0
  0
ENDTAB
  0
ENDSEC
  0
SECTION
  2
BLOCKS
  0
BLOCK
  5
71
330
70
100
AcDbEntity
  8
0
100
AcDbBlockBegin
  2
*Model_Space
 70
     0
 10
0.0
 20
0.0
 30
0.0
  3
*Model_Space
  1

  0
ENDBLK
  5
72
330
70
100
AcDbEntity
  8
0
100
AcDbBlockEnd
  0
BLOCK
  5
6D
330
6C
100
AcDbEntity
 67
     1
  8
0
100
AcDbBlockBegin
  2
*Paper_Space
 70
     0
 10
0.0
 20
0.0
 30
0.0
  3
*Paper_Space
  1

  0
ENDBLK
  5
6E
330
6C
100
AcDbEntity
 67
     1
  8
0
100
AcDbBlockEnd
  0
BLOCK
  5
75
330
74
100
AcDbEntity
 67
     1
  8
0
100
AcDbBlockBegin
  2
*Paper_Space0
 70
     0
 10
0.0
 20
0.0
 30
0.0
  3
*Paper_Space0
  1

  0
ENDBLK
  5
76
330
74
100
AcDbEntity
 67
     1
  8
0
100
AcDbBlockEnd
  0
BLOCK
  5
1C6
330
1C4
100
AcDbEntity
  8
0
100
AcDbBlockBegin
  2
ISO_A3_SHEET
 70
     0
 10
0.0
 20
0.0
 30
0.0
  3
ISO_A3_SHEET
  1

  0
LINE
  5
1C7
330
1C4
100
AcDbEntity
  8
Defpoints
100
AcDbLine
 10
0.0
 20
0.0
 30
0.0
 11
15.0
 21
0.0
 31
0.0
  0
LINE
  5
1C8
330
1C4
100
AcDbEntity
  8
Defpoints
100
AcDbLine
 10
405.0
 20
0.0
 30
0.0
 11
420.0
 21
0.0
 31
0.0
  0
LINE
  5
1C9
330
1C4
100
AcDbEntity
  8
BORDER
100
AcDbLine
 10
20.0
 20
10.0
 30
0.0
 11
410.0
 21
10.0
 31
0.0
  0
LINE
  5
1CA
330
1C4
100
AcDbEntity
  8
Defpoints
100
AcDbLine
 10
420.0
 20
0.0
 30
0.0
 11
420.0
 21
15.0
 31
0.0
  0
LINE
  5
1CB
330
1C4
100
AcDbEntity
  8
Defpoints
100
AcDbLine
 10
420.0
 20
282.0
 30
0.0
 11
420.0
 21
297.0
 31
0.0
  0
LINE
  5
1CC
330
1C4
100
AcDbEntity
  8
Defpoints
100
AcDbLine
 10
420.0
 20
297.0
 30
0.0
 11
405.0
 21
297.0
 31
0.0
  0
LINE
  5
1CD
330
1C4
100
AcDbEntity
  8
Defpoints
100
AcDbLine
 10
15.0
 20
297.0
 30
0.0
 11
0.0
 21
297.0
 31
0.0
  0
LINE
  5
1CE
330
1C4
100
AcDbEntity
  8
BORDER
100
AcDbLine
 10
410.0
 20
287.0
 30
0.0
 11
20.0
 21
287.0
 31
0.0
  0
LINE
  5
1CF
330
1C4
100
AcDbEntity
  8
Defpoints
100
AcDbLine
 10
0.0
 20
297.0
 30
0.0
 11
0.0
 21
282.0
 31
0.0
  0
LINE
  5
1D0
330
1C4
100
AcDbEntity
  8
Defpoints
100
AcDbLine
 10
0.0
 20
15.0
 30
0.0
 11
0.0
 21
0.0
 31
0.0
  0
LINE
  5
1D1
330
1C4
100
AcDbEntity
  8
BORDER
100
AcDbLine
 10
20.0
 20
287.0
 30
0.0
 11
20.0
 21
10.0
 31
0.0
  0
LINE
  5
1D2
330
1C4
100
AcDbEntity
  8
BORDER
100
AcDbLine
 10
410.0
 20
287.0
 30
0.0
 11
410.0
 21
10.0
 31
0.0
  0
LINE
  5
1D3
330
1C4
100
AcDbEntity
  8
BORDER
100
AcDbLine
 10
215.0
 20
5.0
 30
0.0
 11
215.0
 21
15.0
 31
0.0
  0
LINE
  5
1D4
330
1C4
100
AcDbEntity
  8
BORDER
100
AcDbLine
 10
215.0
 20
292.0
 30
0.0
 11
215.0
 21
282.0
 31
0.0
  0
LINE
  5
1D5
330
1C4
100
AcDbEntity
  8
BORDER
100
AcDbLine
 10
265.0
 20
292.0
 30
0.0
 11
265.0
 21
287.0
 31
0.0
  0
LINE
  5
1D6
330
1C4
100
AcDbEntity
  8
BORDER
100
AcDbLine
 10
315.0
 20
292.0
 30
0.0
 11
315.0
 21
287.0
 31
0.0
  0
LINE
  5
1D7
330
1C4
100
AcDbEntity
  8
BORDER
100
AcDbLine
 10
365.0
 20
292.0
 30
0.0
 11
365.0
 21
287.0
 31
0.0
  0
LINE
  5
1D8
330
1C4
100
AcDbEntity
  8
BORDER
100
AcDbLine
 10
165.0
 20
292.0
 30
0.0
 11
165.0
 21
287.0
 31
0.0
  0
LINE
  5
1D9
330
1C4
100
AcDbEntity
  8
BORDER
100
AcDbLine
 10
115.0
 20
292.0
 30
0.0
 11
115.0
 21
287.0
 31
0.0
  0
LINE
  5
1DA
330
1C4
100
AcDbEntity
  8
BORDER
100
AcDbLine
 10
65.0
 20
292.0
 30
0.0
 11
65.0
 21
287.0
 31
0.0
  0
LINE
  5
1DB
330
1C4
100
AcDbEntity
  8
BORDER
100
AcDbLine
 10
15.0
 20
148.5
 30
0.0
 11
25.0
 21
148.5
 31
0.0
  0
LINE
  5
1DC
330
1C4
100
AcDbEntity
  8
BORDER
100
AcDbLine
 10
15.0
 20
100.66667
 30
0.0
 11
20.0
 21
100.66667
 31
0.0
  0
LINE
  5
1DD
330
1C4
100
AcDbEntity
  8
BORDER
100
AcDbLine
 10
15.0
 20
52.83334
 30
0.0
 11
20.0
 21
52.83334
 31
0.0
  0
LINE
  5
1DE
330
1C4
100
AcDbEntity
  8
BORDER
100
AcDbLine
 10
15.0
 20
196.33333
 30
0.0
 11
20.0
 21
196.33333
 31
0.0
  0
LINE
  5
1DF
330
1C4
100
AcDbEntity
  8
BORDER
100
AcDbLine
 10
15.0
 20
244.16666
 30
0.0
 11
20.0
 21
244.16666
 31
0.0
  0
LINE
  5
1E0
330
1C4
100
AcDbEntity
  8
BORDER
100
AcDbLine
 10
415.0
 20
148.5
 30
0.0
 11
405.0
 21
148.5
 31
0.0
  0
LINE
  5
1E1
330
1C4
100
AcDbEntity
  8
BORDER
100
AcDbLine
 10
265.0
 20
5.0
 30
0.0
 11
265.0
 21
10.0
 31
0.0
  0
LINE
  5
1E2
330
1C4
100
AcDbEntity
  8
BORDER
100
AcDbLine
 10
315.0
 20
5.0
 30
0.0
 11
315.0
 21
10.0
 31
0.0
  0
LINE
  5
1E3
330
1C4
100
AcDbEntity
  8
BORDER
100
AcDbLine
 10
365.0
 20
5.0
 30
0.0
 11
365.0
 21
10.0
 31
0.0
  0
LINE
  5
1E4
330
1C4
100
AcDbEntity
  8
BORDER
100
AcDbLine
 10
165.0
 20
5.0
 30
0.0
 11
165.0
 21
10.0
 31
0.0
  0
LINE
  5
1E5
330
1C4
100
AcDbEntity
  8
BORDER
100
AcDbLine
 10
115.0
 20
5.0
 30
0.0
 11
115.0
 21
10.0
 31
0.0
  0
LINE
  5
1E6
330
1C4
100
AcDbEntity
  8
BORDER
100
AcDbLine
 10
65.0
 20
5.0
 30
0.0
 11
65.0
 21
10.0
 31
0.0
  0
LINE
  5
1E7
330
1C4
100
AcDbEntity
  8
BORDER
100
AcDbLine
 10
415.0
 20
100.66667
 30
0.0
 11
410.0
 21
100.66667
 31
0.0
  0
LINE
  5
1E8
330
1C4
100
AcDbEntity
  8
BORDER
100
AcDbLine
 10
415.0
 20
52.83334
 30
0.0
 11
410.0
 21
52.83334
 31
0.0
  0
LINE
  5
1E9
330
1C4
100
AcDbEntity
  8
BORDER
100
AcDbLine
 10
415.0
 20
196.33333
 30
0.0
 11
410.0
 21
196.33333
 31
0.0
  0
LINE
  5
1EA
330
1C4
100
AcDbEntity
  8
BORDER
100
AcDbLine
 10
415.0
 20
244.16666
 30
0.0
 11
410.0
 21
244.16666
 31
0.0
  0
TEXT
  5
1EB
330
1C4
100
AcDbEntity
  8
BORDER
100
AcDbText
 10
39.02882
 20
288.244884
 30
0.0
 40
2.5
  1
1
  7
FusionTitle
 72
     4
 11
40.0
 21
289.5
 31
0.0
100
AcDbText
  0
TEXT
  5
1EC
330
1C4
100
AcDbEntity
  8
BORDER
100
AcDbText
 10
16.335266
 20
266.83333
 30
0.0
 40
2.5
  1
A
  7
FusionTitle
 72
     4
 11
17.5
 21
268.08333
 31
0.0
100
AcDbText
  0
TEXT
  5
1ED
330
1C4
100
AcDbEntity
  8
BORDER
100
AcDbText
 10
89.02882
 20
288.244884
 30
0.0
 40
2.5
  1
2
  7
FusionTitle
 72
     4
 11
90.0
 21
289.5
 31
0.0
100
AcDbText
  0
TEXT
  5
1EE
330
1C4
100
AcDbEntity
  8
BORDER
100
AcDbText
 10
139.02882
 20
288.267053
 30
0.0
 40
2.5
  1
3
  7
FusionTitle
 72
     4
 11
140.0
 21
289.5
 31
0.0
100
AcDbText
  0
TEXT
  5
1EF
330
1C4
100
AcDbEntity
  8
BORDER
100
AcDbText
 10
189.02882
 20
288.25
 30
0.0
 40
2.5
  1
4
  7
FusionTitle
 72
     4
 11
190.0
 21
289.5
 31
0.0
100
AcDbText
  0
TEXT
  5
1F0
330
1C4
100
AcDbEntity
  8
BORDER
100
AcDbText
 10
239.02882
 20
288.28837
 30
0.0
 40
2.5
  1
5
  7
FusionTitle
 72
     4
 11
240.0
 21
289.5
 31
0.0
100
AcDbText
  0
TEXT
  5
1F1
330
1C4
100
AcDbEntity
  8
BORDER
100
AcDbText
 10
289.02882
 20
288.266201
 30
0.0
 40
2.5
  1
6
  7
FusionTitle
 72
     4
 11
290.0
 21
289.5
 31
0.0
100
AcDbText
  0
TEXT
  5
1F2
330
1C4
100
AcDbEntity
  8
BORDER
100
AcDbText
 10
339.02882
 20
288.266201
 30
0.0
 40
2.5
  1
7
  7
FusionTitle
 72
     4
 11
340.0
 21
289.5
 31
0.0
100
AcDbText
  0
TEXT
  5
1F3
330
1C4
100
AcDbEntity
  8
BORDER
100
AcDbText
 10
389.02882
 20
288.266201
 30
0.0
 40
2.5
  1
8
  7
FusionTitle
 72
     4
 11
390.0
 21
289.5
 31
0.0
100
AcDbText
  0
TEXT
  5
1F4
330
1C4
100
AcDbEntity
  8
BORDER
100
AcDbText
 10
39.02882
 20
6.244884
 30
0.0
 40
2.5
  1
1
  7
FusionTitle
 72
     4
 11
40.0
 21
7.5
 31
0.0
100
AcDbText
  0
TEXT
  5
1F5
330
1C4
100
AcDbEntity
  8
BORDER
100
AcDbText
 10
89.02882
 20
6.244884
 30
0.0
 40
2.5
  1
2
  7
FusionTitle
 72
     4
 11
90.0
 21
7.5
 31
0.0
100
AcDbText
  0
TEXT
  5
1F6
330
1C4
100
AcDbEntity
  8
BORDER
100
AcDbText
 10
139.02882
 20
6.267053
 30
0.0
 40
2.5
  1
3
  7
FusionTitle
 72
     4
 11
140.0
 21
7.5
 31
0.0
100
AcDbText
  0
TEXT
  5
1F7
330
1C4
100
AcDbEntity
  8
BORDER
100
AcDbText
 10
189.02882
 20
6.25
 30
0.0
 40
2.5
  1
4
  7
FusionTitle
 72
     4
 11
190.0
 21
7.5
 31
0.0
100
AcDbText
  0
TEXT
  5
1F8
330
1C4
100
AcDbEntity
  8
BORDER
100
AcDbText
 10
239.02882
 20
6.28837
 30
0.0
 40
2.5
  1
5
  7
FusionTitle
 72
     4
 11
240.0
 21
7.5
 31
0.0
100
AcDbText
  0
TEXT
  5
1F9
330
1C4
100
AcDbEntity
  8
BORDER
100
AcDbText
 10
289.02882
 20
6.266201
 30
0.0
 40
2.5
  1
6
  7
FusionTitle
 72
     4
 11
290.0
 21
7.5
 31
0.0
100
AcDbText
  0
TEXT
  5
1FA
330
1C4
100
AcDbEntity
  8
BORDER
100
AcDbText
 10
339.02882
 20
6.266201
 30
0.0
 40
2.5
  1
7
  7
FusionTitle
 72
     4
 11
340.0
 21
7.5
 31
0.0
100
AcDbText
  0
TEXT
  5
1FB
330
1C4
100
AcDbEntity
  8
BORDER
100
AcDbText
 10
389.02882
 20
6.266201
 30
0.0
 40
2.5
  1
8
  7
FusionTitle
 72
     4
 11
390.0
 21
7.5
 31
0.0
100
AcDbText
  0
TEXT
  5
1FC
330
1C4
100
AcDbEntity
  8
BORDER
100
AcDbText
 10
16.335266
 20
219.0
 30
0.0
 40
2.5
  1
B
  7
FusionTitle
 72
     4
 11
17.5
 21
220.25
 31
0.0
100
AcDbText
  0
TEXT
  5
1FD
330
1C4
100
AcDbEntity
  8
BORDER
100
AcDbText
 10
16.238915
 20
171.16667
 30
0.0
 40
2.5
  1
C
  7
FusionTitle
 72
     4
 11
17.5
 21
172.41667
 31
0.0
100
AcDbText
  0
TEXT
  5
1FE
330
1C4
100
AcDbEntity
  8
BORDER
100
AcDbText
 10
16.238915
 20
123.33334
 30
0.0
 40
2.5
  1
D
  7
FusionTitle
 72
     4
 11
17.5
 21
124.58334
 31
0.0
100
AcDbText
  0
TEXT
  5
1FF
330
1C4
100
AcDbEntity
  8
BORDER
100
AcDbText
 10
16.335266
 20
75.50001
 30
0.0
 40
2.5
  1
E
  7
FusionTitle
 72
     4
 11
17.5
 21
76.75001
 31
0.0
100
AcDbText
  0
TEXT
  5
200
330
1C4
100
AcDbEntity
  8
BORDER
100
AcDbText
 10
16.433322
 20
27.66668
 30
0.0
 40
2.5
  1
F
  7
FusionTitle
 72
     4
 11
17.5
 21
28.91668
 31
0.0
100
AcDbText
  0
TEXT
  5
201
330
1C4
100
AcDbEntity
  8
BORDER
100
AcDbText
 10
411.335266
 20
266.83333
 30
0.0
 40
2.5
  1
A
  7
FusionTitle
 72
     4
 11
412.5
 21
268.08333
 31
0.0
100
AcDbText
  0
TEXT
  5
202
330
1C4
100
AcDbEntity
  8
BORDER
100
AcDbText
 10
411.335266
 20
219.0
 30
0.0
 40
2.5
  1
B
  7
FusionTitle
 72
     4
 11
412.5
 21
220.25
 31
0.0
100
AcDbText
  0
TEXT
  5
203
330
1C4
100
AcDbEntity
  8
BORDER
100
AcDbText
 10
411.238915
 20
171.16667
 30
0.0
 40
2.5
  1
C
  7
FusionTitle
 72
     4
 11
412.5
 21
172.41667
 31
0.0
100
AcDbText
  0
TEXT
  5
204
330
1C4
100
AcDbEntity
  8
BORDER
100
AcDbText
 10
411.238915
 20
123.33334
 30
0.0
 40
2.5
  1
D
  7
FusionTitle
 72
     4
 11
412.5
 21
124.58334
 31
0.0
100
AcDbText
  0
TEXT
  5
205
330
1C4
100
AcDbEntity
  8
BORDER
100
AcDbText
 10
411.335266
 20
75.50001
 30
0.0
 40
2.5
  1
E
  7
FusionTitle
 72
     4
 11
412.5
 21
76.75001
 31
0.0
100
AcDbText
  0
TEXT
  5
206
330
1C4
100
AcDbEntity
  8
BORDER
100
AcDbText
 10
411.433322
 20
27.66668
 30
0.0
 40
2.5
  1
F
  7
FusionTitle
 72
     4
 11
412.5
 21
28.91668
 31
0.0
100
AcDbText
  0
ENDBLK
  5
207
330
1C4
100
AcDbEntity
  8
0
100
AcDbBlockEnd
  0
BLOCK
  5
20D
330
20A
100
AcDbEntity
  8
0
100
AcDbBlockBegin
  2
ISO_TITLEBLOCK
 70
     2
 10
0.0
 20
0.0
 30
0.0
  3
ISO_TITLEBLOCK
  1

  0
LINE
  5
20E
330
20A
100
AcDbEntity
  8
TITLEBLOCK
100
AcDbLine
 10
-180.0
 20
0.0
 30
0.0
 11
0.0
 21
0.0
 31
0.0
  0
LINE
  5
20F
330
20A
100
AcDbEntity
  8
TITLEBLOCK
100
AcDbLine
 10
-61.0
 20
10.0
 30
0.0
 11
0.0
 21
10.0
 31
0.0
  0
LINE
  5
210
330
20A
100
AcDbEntity
  8
TITLEBLOCK
100
AcDbLine
 10
-122.0
 20
27.0
 30
0.0
 11
0.0
 21
27.0
 31
0.0
  0
LINE
  5
211
330
20A
100
AcDbEntity
  8
TITLEBLOCK
100
AcDbLine
 10
-180.0
 20
37.0
 30
0.0
 11
0.0
 21
37.0
 31
0.0
  0
LINE
  5
212
330
20A
100
AcDbEntity
  8
TITLEBLOCK
100
AcDbLine
 10
0.0
 20
0.0
 30
0.0
 11
0.0
 21
47.0
 31
0.0
  0
LINE
  5
213
330
20A
100
AcDbEntity
  8
TITLEBLOCK
100
AcDbLine
 10
-15.0
 20
0.0
 30
0.0
 11
-15.0
 21
10.0
 31
0.0
  0
LINE
  5
214
330
20A
100
AcDbEntity
  8
TITLEBLOCK
100
AcDbLine
 10
-51.0
 20
0.0
 30
0.0
 11
-51.0
 21
10.0
 31
0.0
  0
LINE
  5
215
330
20A
100
AcDbEntity
  8
TITLEBLOCK
100
AcDbLine
 10
-61.0
 20
0.0
 30
0.0
 11
-61.0
 21
47.0
 31
0.0
  0
LINE
  5
216
330
20A
100
AcDbEntity
  8
TITLEBLOCK
100
AcDbLine
 10
-122.0
 20
0.0
 30
0.0
 11
-122.0
 21
47.0
 31
0.0
  0
LINE
  5
217
330
20A
100
AcDbEntity
  8
TITLEBLOCK
100
AcDbLine
 10
-156.0
 20
37.0
 30
0.0
 11
-156.0
 21
47.0
 31
0.0
  0
LINE
  5
218
330
20A
100
AcDbEntity
  8
TITLEBLOCK
100
AcDbLine
 10
0.0
 20
47.0
 30
0.0
 11
-180.0
 21
47.0
 31
0.0
  0
LINE
  5
219
330
20A
100
AcDbEntity
  8
TITLEBLOCK
100
AcDbLine
 10
-180.0
 20
47.0
 30
0.0
 11
-180.0
 21
0.0
 31
0.0
  0
TEXT
  5
21A
330
20A
100
AcDbEntity
  8
TITLEBLOCK
100
AcDbText
 10
-179.0
 20
44.2
 30
0.0
 40
1.8
  1
Dept.
  7
FusionTitle
 11
-179.0
 21
46.0
 31
0.0
100
AcDbText
 73
     3
  0
TEXT
  5
21B
330
20A
100
AcDbEntity
  8
TITLEBLOCK
100
AcDbText
 10
-155.0
 20
44.2
 30
0.0
 40
1.8
  1
Technical reference
  7
FusionTitle
 11
-155.0
 21
46.0
 31
0.0
100
AcDbText
 73
     3
  0
TEXT
  5
21C
330
20A
100
AcDbEntity
  8
TITLEBLOCK
100
AcDbText
 10
-121.0
 20
44.2
 30
0.0
 40
1.8
  1
Created by
  7
FusionTitle
 11
-121.0
 21
46.0
 31
0.0
100
AcDbText
 73
     3
  0
TEXT
  5
21D
330
20A
100
AcDbEntity
  8
TITLEBLOCK
100
AcDbText
 10
-60.0
 20
44.2
 30
0.0
 40
1.8
  1
Approved by
  7
FusionTitle
 11
-60.0
 21
46.0
 31
0.0
100
AcDbText
 73
     3
  0
TEXT
  5
21E
330
20A
100
AcDbEntity
  8
TITLEBLOCK
100
AcDbText
 10
-121.0
 20
34.2
 30
0.0
 40
1.8
  1
Document type
  7
FusionTitle
 11
-121.0
 21
36.0
 31
0.0
100
AcDbText
 73
     3
  0
TEXT
  5
21F
330
20A
100
AcDbEntity
  8
TITLEBLOCK
100
AcDbText
 10
-60.0
 20
34.2
 30
0.0
 40
1.8
  1
Document status
  7
FusionTitle
 11
-60.0
 21
36.0
 31
0.0
100
AcDbText
 73
     3
  0
TEXT
  5
220
330
20A
100
AcDbEntity
  8
TITLEBLOCK
100
AcDbText
 10
-121.0
 20
24.2
 30
0.0
 40
1.8
  1
Title
  7
FusionTitle
 11
-121.0
 21
26.0
 31
0.0
100
AcDbText
 73
     3
  0
TEXT
  5
221
330
20A
100
AcDbEntity
  8
TITLEBLOCK
100
AcDbText
 10
-60.0
 20
24.2
 30
0.0
 40
1.8
  1
DWG No.
  7
FusionTitle
 11
-60.0
 21
26.0
 31
0.0
100
AcDbText
 73
     3
  0
TEXT
  5
222
330
20A
100
AcDbEntity
  8
TITLEBLOCK
100
AcDbText
 10
-60.0
 20
7.2
 30
0.0
 40
1.8
  1
Rev.
  7
FusionTitle
 11
-60.0
 21
9.0
 31
0.0
100
AcDbText
 73
     3
  0
TEXT
  5
223
330
20A
100
AcDbEntity
  8
TITLEBLOCK
100
AcDbText
 10
-50.0
 20
7.2
 30
0.0
 40
1.8
  1
Date of issue
  7
FusionTitle
 11
-50.0
 21
9.0
 31
0.0
100
AcDbText
 73
     3
  0
TEXT
  5
224
330
20A
100
AcDbEntity
  8
TITLEBLOCK
100
AcDbText
 10
-14.0
 20
7.2
 30
0.0
 40
1.8
  1
Sheet
  7
FusionTitle
 11
-14.0
 21
9.0
 31
0.0
100
AcDbText
 73
     3
  0
ATTDEF
  5
225
102
{ACAD_XDICTIONARY
360
226
102
}
330
20A
100
AcDbEntity
  8
TITLEBLOCK
100
AcDbText
 10
-50.0
 20
1.5
 30
0.0
 40
3.5
  1

  7
FusionTitle
 11
-50.0
 21
5.0
 31
0.0
100
AcDbAttributeDefinition
280
     0
  3
Date of issue
  2
DATE_OF_ISSUE
 70
     0
 74
     3
280
     1
  0
ATTDEF
  5
227
102
{ACAD_XDICTIONARY
360
228
102
}
330
20A
100
AcDbEntity
  8
TITLEBLOCK
100
AcDbText
 10
-61.026774
 20
1.35
 30
0.0
 40
3.5
  1

  7
FusionTitle
 72
     1
 11
-56.0
 21
4.85
 31
0.0
100
AcDbAttributeDefinition
280
     0
  3
Revision
  2
REV
 70
     0
 74
     3
280
     1
  0
ATTDEF
  5
229
102
{ACAD_XDICTIONARY
360
22A
102
}
330
20A
100
AcDbEntity
  8
TITLEBLOCK
100
AcDbText
 10
-121.0
 20
1.5
 30
0.0
 40
5.0
  1

  7
FusionTitle
 11
-121.0
 21
6.5
 31
0.0
100
AcDbAttributeDefinition
280
     0
  3
3rd Title
  2
TITLE_3
 70
     0
 74
     3
280
     1
  0
ATTDEF
  5
22B
102
{ACAD_XDICTIONARY
360
22C
102
}
330
20A
100
AcDbEntity
  8
TITLEBLOCK
100
AcDbText
 10
-60.0
 20
28.5
 30
0.0
 40
3.5
  1

  7
FusionTitle
 11
-60.0
 21
32.0
 31
0.0
100
AcDbAttributeDefinition
280
     0
  3
Document status
  2
DOCUMENT_STATUS
 70
     0
 74
     3
280
     1
  0
ATTDEF
  5
22D
102
{ACAD_XDICTIONARY
360
22E
102
}
330
20A
100
AcDbEntity
  8
TITLEBLOCK
100
AcDbText
 10
-121.0
 20
28.5
 30
0.0
 40
3.5
  1

  7
FusionTitle
 11
-121.0
 21
32.0
 31
0.0
100
AcDbAttributeDefinition
280
     0
  3
Document type
  2
DOCUMENT_TYPE
 70
     0
 74
     3
280
     1
  0
ATTDEF
  5
22F
102
{ACAD_XDICTIONARY
360
230
102
}
330
20A
100
AcDbEntity
  8
TITLEBLOCK
100
AcDbText
 10
-43.923943
 20
38.5
 30
0.0
 40
3.5
  1

  7
FusionTitle
 72
     2
 11
-0.992838
 21
42.0
 31
0.0
100
AcDbAttributeDefinition
280
     0
  3
Approved date
  2
APPROVED_DATE
 70
     0
 74
     3
280
     1
  0
ATTDEF
  5
231
102
{ACAD_XDICTIONARY
360
232
102
}
330
20A
100
AcDbEntity
  8
TITLEBLOCK
100
AcDbText
 10
-101.123124
 20
38.5
 30
0.0
 40
3.5
  1

  7
FusionTitle
 72
     2
 11
-62.0
 21
42.0
 31
0.0
100
AcDbAttributeDefinition
280
     0
  3
Created date
  2
CREATED_DATE
 70
     0
 74
     3
280
     1
  0
ATTDEF
  5
233
102
{ACAD_XDICTIONARY
360
234
102
}
330
20A
100
AcDbEntity
  8
TITLEBLOCK
100
AcDbText
 10
-15.65075
 20
1.35
 30
0.0
 40
3.5
  1

  7
FusionTitle
 72
     1
 11
-7.5
 21
4.85
 31
0.0
100
AcDbAttributeDefinition
280
     0
  3
Sheet
  2
SHEET
 70
     0
 74
     3
280
     1
  0
ATTDEF
  5
235
102
{ACAD_XDICTIONARY
360
236
102
}
330
20A
100
AcDbEntity
  8
TITLEBLOCK
100
AcDbText
 10
-121.0
 20
9.0
 30
0.0
 40
5.0
  1

  7
FusionTitle
 11
-121.0
 21
14.0
 31
0.0
100
AcDbAttributeDefinition
280
     0
  3
2nd Title
  2
TITLE_2
 70
     0
 74
     3
280
     1
  0
ATTDEF
  5
237
102
{ACAD_XDICTIONARY
360
238
102
}
330
20A
100
AcDbEntity
  8
TITLEBLOCK
100
AcDbText
 10
-64.456344
 20
14.751432
 30
0.0
 40
5.0
  1

  7
FusionTitle
 72
     1
 11
-30.5
 21
19.751432
 31
0.0
100
AcDbAttributeDefinition
280
     0
  3
Drawing number
  2
DRAWING_NUMBER
 70
     0
 74
     3
280
     1
  0
ATTDEF
  5
239
102
{ACAD_XDICTIONARY
360
23A
102
}
330
20A
100
AcDbEntity
  8
TITLEBLOCK
100
AcDbText
 10
-121.0
 20
16.5
 30
0.0
 40
5.0
  1

  7
FusionTitle
 11
-121.0
 21
21.5
 31
0.0
100
AcDbAttributeDefinition
280
     0
  3
1st Title
  2
TITLE_1
 70
     0
 74
     3
280
     1
  0
ATTDEF
  5
23B
102
{ACAD_XDICTIONARY
360
23C
102
}
330
20A
100
AcDbEntity
  8
TITLEBLOCK
100
AcDbText
 10
-60.0
 20
38.5
 30
0.0
 40
3.5
  1

  7
FusionTitle
 11
-60.0
 21
42.0
 31
0.0
100
AcDbAttributeDefinition
280
     0
  3
Approved by
  2
APPROVED_BY
 70
     0
 74
     3
280
     1
  0
ATTDEF
  5
23D
102
{ACAD_XDICTIONARY
360
23E
102
}
330
20A
100
AcDbEntity
  8
TITLEBLOCK
100
AcDbText
 10
-121.0
 20
38.5
 30
0.0
 40
3.5
  1

  7
FusionTitle
 11
-121.0
 21
42.0
 31
0.0
100
AcDbAttributeDefinition
280
     0
  3
Created by
  2
CREATED_BY
 70
     0
 74
     3
280
     1
  0
ATTDEF
  5
23F
102
{ACAD_XDICTIONARY
360
240
102
}
330
20A
100
AcDbEntity
  8
TITLEBLOCK
100
AcDbText
 10
-155.0
 20
38.5
 30
0.0
 40
3.5
  1

  7
FusionTitle
 11
-155.0
 21
42.0
 31
0.0
100
AcDbAttributeDefinition
280
     0
  3
Technical reference
  2
TECHNICAL_REFERENCE
 70
     0
 74
     3
280
     1
  0
ATTDEF
  5
241
102
{ACAD_XDICTIONARY
360
242
102
}
330
20A
100
AcDbEntity
  8
TITLEBLOCK
100
AcDbText
 10
-179.0
 20
38.5
 30
0.0
 40
3.5
  1

  7
FusionTitle
 11
-179.0
 21
42.0
 31
0.0
100
AcDbAttributeDefinition
280
     0
  3
Department
  2
DEPT
 70
     0
 74
     3
280
     1
  0
ENDBLK
  5
243
330
20A
100
AcDbEntity
  8
0
100
AcDbBlockEnd
  0
BLOCK
  5
257
330
256
100
AcDbEntity
  8
0
100
AcDbBlockBegin
  2
*D7
 70
     1
 10
0.0
 20
0.0
 30
0.0
  3
*D7
  1

  0
LINE
  5
258
330
256
100
AcDbEntity
  8
FD_Dimensions
 62
     0
440
 16777216
370
    -2
100
AcDbLine
 10
143.083856
 20
257.551013
 30
0.0
 11
143.083856
 21
261.183641
 31
0.0
  0
LINE
  5
259
330
256
100
AcDbEntity
  8
FD_Dimensions
 62
     0
440
 16777216
370
    -2
100
AcDbLine
 10
48.083856
 20
257.551013
 30
0.0
 11
48.083856
 21
261.183641
 31
0.0
  0
LINE
  5
25A
330
256
100
AcDbEntity
  8
FD_Dimensions
 62
     0
440
 16777216
370
    -2
100
AcDbLine
 10
139.583856
 20
259.083641
 30
0.0
 11
51.583856
 21
259.083641
 31
0.0
  0
SOLID
  5
25B
330
256
100
AcDbEntity
  8
FD_Dimensions
 62
     0
440
 16777216
100
AcDbTrace
 10
139.583856
 20
259.666974
 30
0.0
 11
139.583856
 21
258.500308
 31
0.0
 12
143.083856
 22
259.083641
 32
0.0
 13
143.083856
 23
259.083641
 33
0.0
  0
SOLID
  5
25C
330
256
100
AcDbEntity
  8
FD_Dimensions
 62
     0
440
 16777216
100
AcDbTrace
 10
51.583856
 20
259.666974
 30
0.0
 11
51.583856
 21
258.500308
 31
0.0
 12
48.083856
 22
259.083641
 32
0.0
 13
48.083856
 23
259.083641
 33
0.0
  0
MTEXT
  5
25D
330
256
100
AcDbEntity
  8
FD_Dimensions
 62
     0
440
 16777216
100
AcDbMText
 10
95.583856
 20
262.270647
 30
0.0
 40
3.5
 41
0.0
 46
0.0
 71
     5
 72
     1
  1
190mm
 73
     1
 44
1.0
  0
POINT
  5
25E
330
256
100
AcDbEntity
  8
Defpoints
 62
     0
440
 16777216
100
AcDbPoint
 10
143.083856
 20
255.451013
 30
0.0
  0
POINT
  5
25F
330
256
100
AcDbEntity
  8
Defpoints
 62
     0
440
 16777216
100
AcDbPoint
 10
48.083856
 20
255.451013
 30
0.0
  0
POINT
  5
260
330
256
100
AcDbEntity
  8
Defpoints
 62
     0
440
 16777216
100
AcDbPoint
 10
48.083856
 20
259.083641
 30
0.0
  0
ENDBLK
  5
261
330
256
100
AcDbEntity
  8
0
100
AcDbBlockEnd
  0
BLOCK
  5
264
330
263
100
AcDbEntity
  8
0
100
AcDbBlockBegin
  2
*D8
 70
     1
 10
0.0
 20
0.0
 30
0.0
  3
*D8
  1

  0
LINE
  5
265
330
263
100
AcDbEntity
  8
FD_Dimensions
 62
     0
440
 16777216
370
    -2
100
AcDbLine
 10
145.183856
 20
180.451013
 30
0.0
 11
155.683856
 21
180.451013
 31
0.0
  0
LINE
  5
266
330
263
100
AcDbEntity
  8
FD_Dimensions
 62
     0
440
 16777216
370
    -2
100
AcDbLine
 10
145.183856
 20
255.451013
 30
0.0
 11
155.683856
 21
255.451013
 31
0.0
  0
LINE
  5
267
330
263
100
AcDbEntity
  8
FD_Dimensions
 62
     0
440
 16777216
370
    -2
100
AcDbLine
 10
153.583856
 20
183.951013
 30
0.0
 11
153.583856
 21
251.951013
 31
0.0
  0
SOLID
  5
268
330
263
100
AcDbEntity
  8
FD_Dimensions
 62
     0
440
 16777216
100
AcDbTrace
 10
153.000523
 20
183.951013
 30
0.0
 11
154.16719
 21
183.951013
 31
0.0
 12
153.583856
 22
180.451013
 32
0.0
 13
153.583856
 23
180.451013
 33
0.0
  0
SOLID
  5
269
330
263
100
AcDbEntity
  8
FD_Dimensions
 62
     0
440
 16777216
100
AcDbTrace
 10
153.000523
 20
251.951013
 30
0.0
 11
154.16719
 21
251.951013
 31
0.0
 12
153.583856
 22
255.451013
 32
0.0
 13
153.583856
 23
255.451013
 33
0.0
  0
MTEXT
  5
26A
330
263
100
AcDbEntity
  8
FD_Dimensions
 62
     0
440
 16777216
100
AcDbMText
 10
150.396851
 20
217.951013
 30
0.0
 40
3.5
 41
0.0
 46
0.0
 71
     5
 72
     1
  1
150mm
 11
0.0
 21
1.0
 31
0.0
 73
     1
 44
1.0
  0
POINT
  5
26B
330
263
100
AcDbEntity
  8
Defpoints
 62
     0
440
 16777216
100
AcDbPoint
 10
143.083856
 20
180.451013
 30
0.0
  0
POINT
  5
26C
330
263
100
AcDbEntity
  8
Defpoints
 62
     0
440
 16777216
100
AcDbPoint
 10
143.083856
 20
255.451013
 30
0.0
  0
POINT
  5
26D
330
263
100
AcDbEntity
  8
Defpoints
 62
     0
440
 16777216
100
AcDbPoint
 10
153.583856
 20
255.451013
 30
0.0
  0
ENDBLK
  5
26E
330
263
100
AcDbEntity
  8
0
100
AcDbBlockEnd
  0
BLOCK
  5
271
330
270
100
AcDbEntity
  8
0
100
AcDbBlockBegin
  2
*D9
 70
     1
 10
0.0
 20
0.0
 30
0.0
  3
*D9
  1

  0
LINE
  5
272
330
270
100
AcDbEntity
  8
FD_Dimensions
 62
     0
440
 16777216
370
    -2
100
AcDbLine
 10
214.407458
 20
257.551013
 30
0.0
 11
214.407458
 21
258.638735
 31
0.0
  0
LINE
  5
273
330
270
100
AcDbEntity
  8
FD_Dimensions
 62
     0
440
 16777216
370
    -2
100
AcDbLine
 10
217.407458
 20
257.551013
 30
0.0
 11
217.407458
 21
258.638735
 31
0.0
  0
LINE
  5
274
330
270
100
AcDbEntity
  8
FD_Dimensions
 62
     0
440
 16777216
370
    -2
100
AcDbLine
 10
210.907458
 20
256.538735
 30
0.0
 11
207.407458
 21
256.538735
 31
0.0
  0
LINE
  5
275
330
270
100
AcDbEntity
  8
FD_Dimensions
 62
     0
440
 16777216
370
    -2
100
AcDbLine
 10
220.907458
 20
256.538735
 30
0.0
 11
237.573761
 21
256.538735
 31
0.0
  0
LINE
  5
276
330
270
100
AcDbEntity
  8
FD_Dimensions
 62
     0
440
 16777216
370
    -2
100
AcDbLine
 10
214.407458
 20
256.538735
 30
0.0
 11
217.407458
 21
256.538735
 31
0.0
  0
SOLID
  5
277
330
270
100
AcDbEntity
  8
FD_Dimensions
 62
     0
440
 16777216
100
AcDbTrace
 10
210.907458
 20
257.122068
 30
0.0
 11
210.907458
 21
255.955402
 31
0.0
 12
214.407458
 22
256.538735
 32
0.0
 13
214.407458
 23
256.538735
 33
0.0
  0
SOLID
  5
278
330
270
100
AcDbEntity
  8
FD_Dimensions
 62
     0
440
 16777216
100
AcDbTrace
 10
220.907458
 20
257.122068
 30
0.0
 11
220.907458
 21
255.955402
 31
0.0
 12
217.407458
 22
256.538735
 32
0.0
 13
217.407458
 23
256.538735
 33
0.0
  0
MTEXT
  5
279
330
270
100
AcDbEntity
  8
FD_Dimensions
 62
     0
440
 16777216
100
AcDbMText
 10
230.990609
 20
259.725741
 30
0.0
 40
3.5
 41
0.0
 46
0.0
 71
     5
 72
     1
  1
6mm
 73
     1
 44
1.0
  0
POINT
  5
27A
330
270
100
AcDbEntity
  8
Defpoints
 62
     0
440
 16777216
100
AcDbPoint
 10
214.407458
 20
255.451013
 30
0.0
  0
POINT
  5
27B
330
270
100
AcDbEntity
  8
Defpoints
 62
     0
440
 16777216
100
AcDbPoint
 10
217.407458
 20
255.451013
 30
0.0
  0
POINT
  5
27C
330
270
100
AcDbEntity
  8
Defpoints
 62
     0
440
 16777216
100
AcDbPoint
 10
217.407458
 20
256.538735
 30
0.0
  0
ENDBLK
  5
27D
330
270
100
AcDbEntity
  8
0
100
AcDbBlockEnd
  0
BLOCK
  5
280
330
27F
100
AcDbEntity
  8
0
100
AcDbBlockBegin
  2
*D10
 70
     1
 10
0.0
 20
0.0
 30
0.0
  3
*D10
  1

  0
LINE
  5
41A
330
27F
100
AcDbEntity
  8
FD_Dimensions
 62
     0
440
 16777216
370
    -2
100
AcDbLine
 10
143.083856
 20
257.551013
 30
0.0
 11
143.083856
 21
261.183641
 31
0.0
  0
LINE
  5
41B
330
27F
100
AcDbEntity
  8
FD_Dimensions
 62
     0
440
 16777216
370
    -2
100
AcDbLine
 10
48.083856
 20
257.551013
 30
0.0
 11
48.083856
 21
261.183641
 31
0.0
  0
LINE
  5
41C
330
27F
100
AcDbEntity
  8
FD_Dimensions
 62
     0
440
 16777216
370
    -2
100
AcDbLine
 10
139.583856
 20
259.083641
 30
0.0
 11
51.583856
 21
259.083641
 31
0.0
  0
SOLID
  5
41D
330
27F
100
AcDbEntity
  8
FD_Dimensions
 62
     0
440
 16777216
100
AcDbTrace
 10
139.583856
 20
259.666974
 30
0.0
 11
139.583856
 21
258.500308
 31
0.0
 12
143.083856
 22
259.083641
 32
0.0
 13
143.083856
 23
259.083641
 33
0.0
  0
SOLID
  5
41E
330
27F
100
AcDbEntity
  8
FD_Dimensions
 62
     0
440
 16777216
100
AcDbTrace
 10
51.583856
 20
259.666974
 30
0.0
 11
51.583856
 21
258.500308
 31
0.0
 12
48.083856
 22
259.083641
 32
0.0
 13
48.083856
 23
259.083641
 33
0.0
  0
MTEXT
  5
41F
330
27F
100
AcDbEntity
  8
FD_Dimensions
 62
     0
440
 16777216
100
AcDbMText
 10
95.583856
 20
262.270647
 30
0.0
 40
3.5
 41
0.0
 46
0.0
 71
     5
 72
     1
  1
190mm
 73
     1
 44
1.0
  0
POINT
  5
420
330
27F
100
AcDbEntity
  8
Defpoints
 62
     0
440
 16777216
100
AcDbPoint
 10
143.083856
 20
255.451013
 30
0.0
  0
POINT
  5
421
330
27F
100
AcDbEntity
  8
Defpoints
 62
     0
440
 16777216
100
AcDbPoint
 10
48.083856
 20
255.451013
 30
0.0
  0
POINT
  5
422
330
27F
100
AcDbEntity
  8
Defpoints
 62
     0
440
 16777216
100
AcDbPoint
 10
48.083856
 20
259.083641
 30
0.0
  0
ENDBLK
  5
281
330
27F
100
AcDbEntity
  8
0
100
AcDbBlockEnd
  0
BLOCK
  5
28C
330
28B
100
AcDbEntity
  8
0
100
AcDbBlockBegin
  2
*D11
 70
     1
 10
0.0
 20
0.0
 30
0.0
  3
*D11
  1

  0
LINE
  5
423
330
28B
100
AcDbEntity
  8
FD_Dimensions
 62
     0
440
 16777216
370
    -2
100
AcDbLine
 10
145.183856
 20
180.451013
 30
0.0
 11
155.683856
 21
180.451013
 31
0.0
  0
LINE
  5
424
330
28B
100
AcDbEntity
  8
FD_Dimensions
 62
     0
440
 16777216
370
    -2
100
AcDbLine
 10
145.183856
 20
255.451013
 30
0.0
 11
155.683856
 21
255.451013
 31
0.0
  0
LINE
  5
425
330
28B
100
AcDbEntity
  8
FD_Dimensions
 62
     0
440
 16777216
370
    -2
100
AcDbLine
 10
153.583856
 20
183.951013
 30
0.0
 11
153.583856
 21
251.951013
 31
0.0
  0
SOLID
  5
426
330
28B
100
AcDbEntity
  8
FD_Dimensions
 62
     0
440
 16777216
100
AcDbTrace
 10
153.000523
 20
183.951013
 30
0.0
 11
154.16719
 21
183.951013
 31
0.0
 12
153.583856
 22
180.451013
 32
0.0
 13
153.583856
 23
180.451013
 33
0.0
  0
SOLID
  5
427
330
28B
100
AcDbEntity
  8
FD_Dimensions
 62
     0
440
 16777216
100
AcDbTrace
 10
153.000523
 20
251.951013
 30
0.0
 11
154.16719
 21
251.951013
 31
0.0
 12
153.583856
 22
255.451013
 32
0.0
 13
153.583856
 23
255.451013
 33
0.0
  0
MTEXT
  5
428
330
28B
100
AcDbEntity
  8
FD_Dimensions
 62
     0
440
 16777216
100
AcDbMText
 10
150.396851
 20
217.951013
 30
0.0
 40
3.5
 41
0.0
 46
0.0
 71
     5
 72
     1
  1
150mm
 11
0.0
 21
1.0
 31
0.0
 73
     1
 44
1.0
  0
POINT
  5
429
330
28B
100
AcDbEntity
  8
Defpoints
 62
     0
440
 16777216
100
AcDbPoint
 10
143.083856
 20
180.451013
 30
0.0
  0
POINT
  5
42A
330
28B
100
AcDbEntity
  8
Defpoints
 62
     0
440
 16777216
100
AcDbPoint
 10
143.083856
 20
255.451013
 30
0.0
  0
POINT
  5
42B
330
28B
100
AcDbEntity
  8
Defpoints
 62
     0
440
 16777216
100
AcDbPoint
 10
153.583856
 20
255.451013
 30
0.0
  0
ENDBLK
  5
28D
330
28B
100
AcDbEntity
  8
0
100
AcDbBlockEnd
  0
BLOCK
  5
298
330
297
100
AcDbEntity
  8
0
100
AcDbBlockBegin
  2
*D12
 70
     1
 10
0.0
 20
0.0
 30
0.0
  3
*D12
  1

  0
LINE
  5
42C
330
297
100
AcDbEntity
  8
FD_Dimensions
 62
     0
440
 16777216
370
    -2
100
AcDbLine
 10
214.407458
 20
257.551013
 30
0.0
 11
214.407458
 21
258.638735
 31
0.0
  0
LINE
  5
42D
330
297
100
AcDbEntity
  8
FD_Dimensions
 62
     0
440
 16777216
370
    -2
100
AcDbLine
 10
217.407458
 20
257.551013
 30
0.0
 11
217.407458
 21
258.638735
 31
0.0
  0
LINE
  5
42E
330
297
100
AcDbEntity
  8
FD_Dimensions
 62
     0
440
 16777216
370
    -2
100
AcDbLine
 10
210.907458
 20
256.538735
 30
0.0
 11
207.407458
 21
256.538735
 31
0.0
  0
LINE
  5
42F
330
297
100
AcDbEntity
  8
FD_Dimensions
 62
     0
440
 16777216
370
    -2
100
AcDbLine
 10
220.907458
 20
256.538735
 30
0.0
 11
237.573761
 21
256.538735
 31
0.0
  0
LINE
  5
430
330
297
100
AcDbEntity
  8
FD_Dimensions
 62
     0
440
 16777216
370
    -2
100
AcDbLine
 10
214.407458
 20
256.538735
 30
0.0
 11
217.407458
 21
256.538735
 31
0.0
  0
SOLID
  5
431
330
297
100
AcDbEntity
  8
FD_Dimensions
 62
     0
440
 16777216
100
AcDbTrace
 10
210.907458
 20
257.122068
 30
0.0
 11
210.907458
 21
255.955402
 31
0.0
 12
214.407458
 22
256.538735
 32
0.0
 13
214.407458
 23
256.538735
 33
0.0
  0
SOLID
  5
432
330
297
100
AcDbEntity
  8
FD_Dimensions
 62
     0
440
 16777216
100
AcDbTrace
 10
220.907458
 20
257.122068
 30
0.0
 11
220.907458
 21
255.955402
 31
0.0
 12
217.407458
 22
256.538735
 32
0.0
 13
217.407458
 23
256.538735
 33
0.0
  0
MTEXT
  5
433
330
297
100
AcDbEntity
  8
FD_Dimensions
 62
     0
440
 16777216
100
AcDbMText
 10
230.990609
 20
259.725741
 30
0.0
 40
3.5
 41
0.0
 46
0.0
 71
     5
 72
     1
  1
6mm
 73
     1
 44
1.0
  0
POINT
  5
434
330
297
100
AcDbEntity
  8
Defpoints
 62
     0
440
 16777216
100
AcDbPoint
 10
214.407458
 20
255.451013
 30
0.0
  0
POINT
  5
435
330
297
100
AcDbEntity
  8
Defpoints
 62
     0
440
 16777216
100
AcDbPoint
 10
217.407458
 20
255.451013
 30
0.0
  0
POINT
  5
436
330
297
100
AcDbEntity
  8
Defpoints
 62
     0
440
 16777216
100
AcDbPoint
 10
217.407458
 20
256.538735
 30
0.0
  0
ENDBLK
  5
299
330
297
100
AcDbEntity
  8
0
100
AcDbBlockEnd
  0
ENDSEC
  0
SECTION
  2
ENTITIES
  0
INSERT
  5
1C2
330
70
100
AcDbEntity
  8
BORDER
100
AcDbBlockReference
  2
ISO_A3_SHEET
 10
0.0
 20
0.0
 30
0.0
  0
INSERT
  5
208
330
70
100
AcDbEntity
  8
TITLEBLOCK
100
AcDbBlockReference
 66
     1
  2
ISO_TITLEBLOCK
 10
410.0
 20
10.0
 30
0.0
  0
ATTRIB
  5
244
330
208
100
AcDbEntity
  8
TITLEBLOCK
100
AcDbText
 10
360.0
 20
11.5
 30
0.0
 40
3.5
  1

  7
FusionTitle
 11
360.0
 21
15.0
 31
0.0
100
AcDbAttribute
280
     0
  2
DATE_OF_ISSUE
 70
     0
 74
     3
280
     1
  0
ATTRIB
  5
245
330
208
100
AcDbEntity
  8
TITLEBLOCK
100
AcDbText
 10
354.0
 20
11.35
 30
0.0
 40
3.5
  1

  7
FusionTitle
 72
     1
 11
354.0
 21
14.85
 31
0.0
100
AcDbAttribute
280
     0
  2
REV
 70
     0
 74
     3
280
     1
  0
ATTRIB
  5
246
330
208
100
AcDbEntity
  8
TITLEBLOCK
100
AcDbText
 10
289.0
 20
11.5
 30
0.0
 40
5.0
  1

  7
FusionTitle
 11
289.0
 21
16.5
 31
0.0
100
AcDbAttribute
280
     0
  2
TITLE_3
 70
     0
 74
     3
280
     1
  0
ATTRIB
  5
247
330
208
100
AcDbEntity
  8
TITLEBLOCK
100
AcDbText
 10
350.0
 20
38.5
 30
0.0
 40
3.5
  1

  7
FusionTitle
 11
350.0
 21
42.0
 31
0.0
100
AcDbAttribute
280
     0
  2
DOCUMENT_STATUS
 70
     0
 74
     3
280
     1
  0
ATTRIB
  5
248
330
208
100
AcDbEntity
  8
TITLEBLOCK
100
AcDbText
 10
289.0
 20
38.5
 30
0.0
 40
3.5
  1

  7
FusionTitle
 11
289.0
 21
42.0
 31
0.0
100
AcDbAttribute
280
     0
  2
DOCUMENT_TYPE
 70
     0
 74
     3
280
     1
  0
ATTRIB
  5
249
330
208
100
AcDbEntity
  8
TITLEBLOCK
100
AcDbText
 10
409.007162
 20
48.5
 30
0.0
 40
3.5
  1

  7
FusionTitle
 72
     2
 11
409.007162
 21
52.0
 31
0.0
100
AcDbAttribute
280
     0
  2
APPROVED_DATE
 70
     0
 74
     3
280
     1
  0
ATTRIB
  5
24A
330
208
100
AcDbEntity
  8
TITLEBLOCK
100
AcDbText
 10
323.528649
 20
48.5
 30
0.0
 40
3.5
  1
04/11/2023
  7
FusionTitle
 72
     2
 11
348.0
 21
52.0
 31
0.0
100
AcDbAttribute
280
     0
  2
CREATED_DATE
 70
     0
 74
     3
280
     1
  0
ATTRIB
  5
24B
330
208
100
AcDbEntity
  8
TITLEBLOCK
100
AcDbText
 10
399.101467
 20
11.35
 30
0.0
 40
3.5
  1
1/1
  7
FusionTitle
 72
     1
 11
402.5
 21
14.85
 31
0.0
100
AcDbAttribute
280
     0
  2
SHEET
 70
     0
 74
     3
280
     1
  0
ATTRIB
  5
24C
330
208
100
AcDbEntity
  8
TITLEBLOCK
100
AcDbText
 10
289.0
 20
19.0
 30
0.0
 40
5.0
  1

  7
FusionTitle
 11
289.0
 21
24.0
 31
0.0
100
AcDbAttribute
280
     0
  2
TITLE_2
 70
     0
 74
     3
280
     1
  0
ATTRIB
  5
24D
330
208
100
AcDbEntity
  8
TITLEBLOCK
100
AcDbText
 10
379.5
 20
24.751432
 30
0.0
 40
5.0
  1

  7
FusionTitle
 72
     1
 11
379.5
 21
29.751432
 31
0.0
100
AcDbAttribute
280
     0
  2
DRAWING_NUMBER
 70
     0
 74
     3
280
     1
  0
ATTRIB
  5
24E
330
208
100
AcDbEntity
  8
TITLEBLOCK
100
AcDbText
 10
289.0
 20
26.5
 30
0.0
 40
5.0
  1
Base_Zonerin1
  7
FusionTitle
 11
289.0
 21
31.5
 31
0.0
100
AcDbAttribute
280
     0
  2
TITLE_1
 70
     0
 74
     3
280
     1
  0
ATTRIB
  5
24F
330
208
100
AcDbEntity
  8
TITLEBLOCK
100
AcDbText
 10
350.0
 20
48.5
 30
0.0
 40
3.5
  1

  7
FusionTitle
 11
350.0
 21
52.0
 31
0.0
100
AcDbAttribute
280
     0
  2
APPROVED_BY
 70
     0
 74
     3
280
     1
  0
ATTRIB
  5
250
330
208
100
AcDbEntity
  8
TITLEBLOCK
100
AcDbText
 10
289.0
 20
48.5
 30
0.0
 40
3.5
  1
MATHEUS GALVAO
 41
0.720429
  7
FusionTitle
 11
289.0
 21
52.0
 31
0.0
100
AcDbAttribute
280
     0
  2
CREATED_BY
 70
     0
 74
     3
280
     1
  0
ATTRIB
  5
251
330
208
100
AcDbEntity
  8
TITLEBLOCK
100
AcDbText
 10
255.0
 20
48.5
 30
0.0
 40
3.5
  1

  7
FusionTitle
 11
255.0
 21
52.0
 31
0.0
100
AcDbAttribute
280
     0
  2
TECHNICAL_REFERENCE
 70
     0
 74
     3
280
     1
  0
ATTRIB
  5
252
330
208
100
AcDbEntity
  8
TITLEBLOCK
100
AcDbText
 10
231.0
 20
48.5
 30
0.0
 40
3.5
  1

  7
FusionTitle
 11
231.0
 21
52.0
 31
0.0
100
AcDbAttribute
280
     0
  2
DEPT
 70
     0
 74
     3
280
     1
  0
SEQEND
  5
253
330
208
100
AcDbEntity
  8
TITLEBLOCK
  0
DIMENSION
  5
254
330
70
100
AcDbEntity
  8
FD_Dimensions
100
AcDbDimension
280
     0
  2
*D10
 10
48.083856
 20
259.083641
 30
0.0
 11
95.583856
 21
262.270647
 31
0.0
 70
    33
 71
     5
 42
190.0
 73
     0
 74
     0
 75
     0
  3
Dim-ISO-25
100
AcDbAlignedDimension
 13
143.083856
 23
255.451013
 33
0.0
 14
48.083856
 24
255.451013
 34
0.0
1001
ACAD_DIMASSOC_CALC_DIMLFAC
1040
-2.0
1001
ACAD_DIMASSOC_DIMLFAC
1040
-2.0
1001
ACAD_DIMASSOC_OVERRIDDEN_DIMLFAC
1040
0.0
1001
ACAD_TC
1000
DSTYLE_TC
1002
{
1070
   176
1004
18000000020000008C8C8CC2000000000000000000000000
1070
   177
1004
18000000020000008C8C8CC2000000000000000000000000
1002
}
1001
ACAD_DSTYLE_DIMJAG_POSITION
1070
   387
1070
     0
1070
   389
1010
0.0
1020
0.0
1030
0.0
1001
ACAD
1000
DSTYLE
1002
{
1070
   144
1040
2.0
1070
   176
1070
     0
1070
   177
1070
     0
1002
}
  0
DIMENSION
  5
262
330
70
100
AcDbEntity
  8
FD_Dimensions
100
AcDbDimension
280
     0
  2
*D11
 10
153.583856
 20
255.451013
 30
0.0
 11
150.396851
 21
217.951013
 31
0.0
 70
    33
 71
     5
 42
150.0
 73
     0
 74
     0
 75
     0
  3
Dim-ISO-25
100
AcDbAlignedDimension
 13
143.083856
 23
180.451013
 33
0.0
 14
143.083856
 24
255.451013
 34
0.0
1001
ACAD_DIMASSOC_CALC_DIMLFAC
1040
-2.0
1001
ACAD_DIMASSOC_DIMLFAC
1040
-2.0
1001
ACAD_DIMASSOC_OVERRIDDEN_DIMLFAC
1040
0.0
1001
ACAD_TC
1000
DSTYLE_TC
1002
{
1070
   176
1004
18000000020000008C8C8CC2000000000000000000000000
1070
   177
1004
18000000020000008C8C8CC2000000000000000000000000
1002
}
1001
ACAD_DSTYLE_DIMJAG_POSITION
1070
   387
1070
     0
1070
   389
1010
0.0
1020
0.0
1030
0.0
1001
ACAD
1000
DSTYLE
1002
{
1070
   144
1040
2.0
1070
   176
1070
     0
1070
   177
1070
     0
1002
}
  0
DIMENSION
  5
26F
330
70
100
AcDbEntity
  8
FD_Dimensions
100
AcDbDimension
280
     0
  2
*D12
 10
217.407458
 20
256.538735
 30
0.0
 11
230.990609
 21
259.725741
 31
0.0
 70
    33
 71
     5
 42
6.0
 73
     0
 74
     0
 75
     0
  3
Dim-ISO-25
100
AcDbAlignedDimension
 13
214.407458
 23
255.451013
 33
0.0
 14
217.407458
 24
255.451013
 34
0.0
1001
ACAD_DIMASSOC_CALC_DIMLFAC
1040
-2.0
1001
ACAD_DIMASSOC_DIMLFAC
1040
-2.0
1001
ACAD_DIMASSOC_OVERRIDDEN_DIMLFAC
1040
0.0
1001
ACAD_TC
1000
DSTYLE_TC
1002
{
1070
   176
1004
18000000020000008C8C8CC2000000000000000000000000
1070
   177
1004
18000000020000008C8C8CC2000000000000000000000000
1002
}
1001
ACAD_DSTYLE_DIMJAG_POSITION
1070
   387
1070
     0
1070
   389
1010
0.0
1020
0.0
1030
0.0
1001
ACAD
1000
DSTYLE
1002
{
1070
   144
1040
2.0
1070
   176
1070
     0
1070
   177
1070
     0
1002
}
  0
CIRCLE
  5
2FD
330
70
100
AcDbEntity
  8
Visible
100
AcDbCircle
 10
-137.780356
 20
253.951013
 30
0.0
 40
0.8125000000000071
210
0.0
220
0.0
230
-1.0
  0
CIRCLE
  5
2FE
330
70
100
AcDbEntity
  8
Visible
100
AcDbCircle
 10
-110.404856
 20
253.951013
 30
0.0
 40
0.8124999999999982
210
0.0
220
0.0
230
-1.0
  0
CIRCLE
  5
2FF
330
70
100
AcDbEntity
  8
Visible
100
AcDbCircle
 10
-80.763356
 20
253.951013
 30
0.0
 40
0.8124999999999982
210
0.0
220
0.0
230
-1.0
  0
CIRCLE
  5
300
330
70
100
AcDbEntity
  8
Visible
100
AcDbCircle
 10
-53.388356
 20
253.951013
 30
0.0
 40
0.8125000000000003
210
0.0
220
0.0
230
-1.0
  0
CIRCLE
  5
301
330
70
100
AcDbEntity
  8
Visible
100
AcDbCircle
 10
-137.780356
 20
181.951013
 30
0.0
 40
0.8125000000000071
210
0.0
220
0.0
230
-1.0
  0
CIRCLE
  5
302
330
70
100
AcDbEntity
  8
Visible
100
AcDbCircle
 10
-110.404856
 20
181.951013
 30
0.0
 40
0.8124999999999982
210
0.0
220
0.0
230
-1.0
  0
CIRCLE
  5
303
330
70
100
AcDbEntity
  8
Visible
100
AcDbCircle
 10
-80.763356
 20
181.951013
 30
0.0
 40
0.8124999999999982
210
0.0
220
0.0
230
-1.0
  0
CIRCLE
  5
304
330
70
100
AcDbEntity
  8
Visible
100
AcDbCircle
 10
-53.388356
 20
181.951013
 30
0.0
 40
0.8125000000000003
210
0.0
220
0.0
230
-1.0
  0
CIRCLE
  5
305
330
70
100
AcDbEntity
  8
Visible
100
AcDbCircle
 10
-130.250481
 20
250.951013
 30
0.0
 40
0.5625000000000036
210
0.0
220
0.0
230
-1.0
  0
CIRCLE
  5
306
330
70
100
AcDbEntity
  8
Visible
100
AcDbCircle
 10
-120.250481
 20
250.951013
 30
0.0
 40
0.5625000000000036
210
0.0
220
0.0
230
-1.0
  0
CIRCLE
  5
307
330
70
100
AcDbEntity
  8
Visible
100
AcDbCircle
 10
-130.250481
 20
237.951013
 30
0.0
 40
0.5625000000000036
210
0.0
220
0.0
230
-1.0
  0
CIRCLE
  5
308
330
70
100
AcDbEntity
  8
Visible
100
AcDbCircle
 10
-120.250481
 20
237.951013
 30
0.0
 40
0.5625000000000036
210
0.0
220
0.0
230
-1.0
  0
CIRCLE
  5
309
330
70
100
AcDbEntity
  8
Visible
100
AcDbCircle
 10
-100.583831
 20
250.951013
 30
0.0
 40
0.5625000000000036
210
0.0
220
0.0
230
-1.0
  0
CIRCLE
  5
30A
330
70
100
AcDbEntity
  8
Visible
100
AcDbCircle
 10
-90.583831
 20
250.951013
 30
0.0
 40
0.5625000000000036
210
0.0
220
0.0
230
-1.0
  0
CIRCLE
  5
30B
330
70
100
AcDbEntity
  8
Visible
100
AcDbCircle
 10
-100.583831
 20
237.951013
 30
0.0
 40
0.5625000000000036
210
0.0
220
0.0
230
-1.0
  0
CIRCLE
  5
30C
330
70
100
AcDbEntity
  8
Visible
100
AcDbCircle
 10
-90.583831
 20
237.951013
 30
0.0
 40
0.5625000000000036
210
0.0
220
0.0
230
-1.0
  0
CIRCLE
  5
30D
330
70
100
AcDbEntity
  8
Visible
100
AcDbCircle
 10
-60.917181
 20
237.951013
 30
0.0
 40
0.5624999999999992
210
0.0
220
0.0
230
-1.0
  0
CIRCLE
  5
30E
330
70
100
AcDbEntity
  8
Visible
100
AcDbCircle
 10
-70.917181
 20
237.951013
 30
0.0
 40
0.5624999999999992
210
0.0
220
0.0
230
-1.0
  0
CIRCLE
  5
30F
330
70
100
AcDbEntity
  8
Visible
100
AcDbCircle
 10
-70.917181
 20
250.951013
 30
0.0
 40
0.5624999999999992
210
0.0
220
0.0
230
-1.0
  0
CIRCLE
  5
310
330
70
100
AcDbEntity
  8
Visible
100
AcDbCircle
 10
-60.917181
 20
250.951013
 30
0.0
 40
0.5624999999999992
210
0.0
220
0.0
230
-1.0
  0
CIRCLE
  5
311
330
70
100
AcDbEntity
  8
Visible
100
AcDbCircle
 10
-120.250481
 20
184.951013
 30
0.0
 40
0.5625000000000036
210
0.0
220
0.0
230
-1.0
  0
CIRCLE
  5
312
330
70
100
AcDbEntity
  8
Visible
100
AcDbCircle
 10
-130.250481
 20
184.951013
 30
0.0
 40
0.5625000000000036
210
0.0
220
0.0
230
-1.0
  0
CIRCLE
  5
313
330
70
100
AcDbEntity
  8
Visible
100
AcDbCircle
 10
-120.250481
 20
197.951013
 30
0.0
 40
0.5625000000000036
210
0.0
220
0.0
230
-1.0
  0
CIRCLE
  5
314
330
70
100
AcDbEntity
  8
Visible
100
AcDbCircle
 10
-130.250481
 20
197.951013
 30
0.0
 40
0.5625000000000036
210
0.0
220
0.0
230
-1.0
  0
CIRCLE
  5
315
330
70
100
AcDbEntity
  8
Visible
100
AcDbCircle
 10
-90.583831
 20
184.951013
 30
0.0
 40
0.5625000000000036
210
0.0
220
0.0
230
-1.0
  0
CIRCLE
  5
316
330
70
100
AcDbEntity
  8
Visible
100
AcDbCircle
 10
-100.583831
 20
184.951013
 30
0.0
 40
0.5625000000000036
210
0.0
220
0.0
230
-1.0
  0
CIRCLE
  5
317
330
70
100
AcDbEntity
  8
Visible
100
AcDbCircle
 10
-90.583831
 20
197.951013
 30
0.0
 40
0.5625000000000036
210
0.0
220
0.0
230
-1.0
  0
CIRCLE
  5
318
330
70
100
AcDbEntity
  8
Visible
100
AcDbCircle
 10
-100.583831
 20
197.951013
 30
0.0
 40
0.5625000000000036
210
0.0
220
0.0
230
-1.0
  0
CIRCLE
  5
319
330
70
100
AcDbEntity
  8
Visible
100
AcDbCircle
 10
-70.917181
 20
184.951013
 30
0.0
 40
0.5624999999999992
210
0.0
220
0.0
230
-1.0
  0
CIRCLE
  5
31A
330
70
100
AcDbEntity
  8
Visible
100
AcDbCircle
 10
-60.917181
 20
184.951013
 30
0.0
 40
0.5624999999999992
210
0.0
220
0.0
230
-1.0
  0
CIRCLE
  5
31B
330
70
100
AcDbEntity
  8
Visible
100
AcDbCircle
 10
-70.917181
 20
197.951013
 30
0.0
 40
0.5624999999999992
210
0.0
220
0.0
230
-1.0
  0
CIRCLE
  5
31C
330
70
100
AcDbEntity
  8
Visible
100
AcDbCircle
 10
-60.917181
 20
197.951013
 30
0.0
 40
0.5624999999999992
210
0.0
220
0.0
230
-1.0
  0
CIRCLE
  5
31D
330
70
100
AcDbEntity
  8
Visible
100
AcDbCircle
 10
-49.583856
 20
236.701013
 30
0.0
 40
0.8125000000000071
210
0.0
220
0.0
230
-1.0
  0
CIRCLE
  5
31E
330
70
100
AcDbEntity
  8
Visible
100
AcDbCircle
 10
-141.583856
 20
217.951013
 30
0.0
 40
0.8125000000000071
210
0.0
220
0.0
230
-1.0
  0
CIRCLE
  5
31F
330
70
100
AcDbEntity
  8
Visible
100
AcDbCircle
 10
-49.583856
 20
217.951013
 30
0.0
 40
0.8125000000000071
210
0.0
220
0.0
230
-1.0
  0
CIRCLE
  5
320
330
70
100
AcDbEntity
  8
Visible
100
AcDbCircle
 10
-141.583856
 20
199.201013
 30
0.0
 40
0.8125000000000071
210
0.0
220
0.0
230
-1.0
  0
CIRCLE
  5
321
330
70
100
AcDbEntity
  8
Visible
100
AcDbCircle
 10
-141.583856
 20
236.701013
 30
0.0
 40
0.8125000000000071
210
0.0
220
0.0
230
-1.0
  0
CIRCLE
  5
322
330
70
100
AcDbEntity
  8
Visible
100
AcDbCircle
 10
-49.583856
 20
199.201013
 30
0.0
 40
0.8124999999999998
210
0.0
220
0.0
230
-1.0
  0
LINE
  5
323
330
70
100
AcDbEntity
  8
Visible
100
AcDbLine
 10
48.083856
 20
255.451013
 30
0.0
 11
48.083856
 21
180.451013
 31
0.0
  0
LINE
  5
324
330
70
100
AcDbEntity
  8
Visible
100
AcDbLine
 10
143.083856
 20
255.451013
 30
0.0
 11
48.083856
 21
255.451013
 31
0.0
  0
LINE
  5
325
330
70
100
AcDbEntity
  8
Visible
100
AcDbLine
 10
143.083856
 20
180.451013
 30
0.0
 11
143.083856
 21
255.451013
 31
0.0
  0
LINE
  5
326
330
70
100
AcDbEntity
  8
Visible
100
AcDbLine
 10
48.083856
 20
180.451013
 30
0.0
 11
143.083856
 21
180.451013
 31
0.0
  0
LINE
  5
327
330
70
100
AcDbEntity
  8
Visible
100
AcDbLine
 10
214.407458
 20
255.451013
 30
0.0
 11
214.407458
 21
180.451013
 31
0.0
210
1.0
220
-0.0000000000000002
230
0.0000000000002967
  0
LINE
  5
328
330
70
100
AcDbEntity
  8
Visible
100
AcDbLine
 10
214.407458
 20
180.451013
 30
0.0
 11
217.407458
 21
180.451013
 31
0.0
210
1.0
220
-0.0000000000000002
230
0.0000000000002967
  0
LINE
  5
329
330
70
100
AcDbEntity
  8
Visible
100
AcDbLine
 10
217.407458
 20
255.451013
 30
0.0
 11
217.407458
 21
180.451013
 31
0.0
210
1.0
220
-0.0000000000000002
230
0.0000000000002967
  0
LINE
  5
32A
330
70
100
AcDbEntity
  8
Visible
100
AcDbLine
 10
214.407458
 20
255.451013
 30
0.0
 11
217.407458
 21
255.451013
 31
0.0
210
1.0
220
-0.0000000000000002
230
0.0000000000002967
  0
LINE
  5
32B
330
70
100
AcDbEntity
  8
Hidden
100
AcDbLine
 10
214.407458
 20
254.763513
 30
0.0
 11
217.407458
 21
254.763513
 31
0.0
210
1.0
220
-0.0000000000000002
230
0.0000000000002967
  0
LINE
  5
32C
330
70
100
AcDbEntity
  8
Hidden
100
AcDbLine
 10
214.407458
 20
253.138513
 30
0.0
 11
217.407458
 21
253.138513
 31
0.0
210
1.0
220
-0.0000000000000002
230
0.0000000000002967
  0
LINE
  5
32D
330
70
100
AcDbEntity
  8
Hidden
100
AcDbLine
 10
214.407458
 20
182.763513
 30
0.0
 11
217.407458
 21
182.763513
 31
0.0
210
1.0
220
-0.0000000000000002
230
0.0000000000002967
  0
LINE
  5
32E
330
70
100
AcDbEntity
  8
Hidden
100
AcDbLine
 10
214.407458
 20
181.138513
 30
0.0
 11
217.407458
 21
181.138513
 31
0.0
210
1.0
220
-0.0000000000000002
230
0.0000000000002967
  0
LINE
  5
32F
330
70
100
AcDbEntity
  8
Hidden
100
AcDbLine
 10
214.407458
 20
238.513513
 30
0.0
 11
217.407458
 21
238.513513
 31
0.0
210
1.0
220
-0.0000000000000002
230
0.0000000000002967
  0
LINE
  5
330
330
70
100
AcDbEntity
  8
Hidden
100
AcDbLine
 10
214.407458
 20
237.388513
 30
0.0
 11
217.407458
 21
237.388513
 31
0.0
210
1.0
220
-0.0000000000000002
230
0.0000000000002967
  0
LINE
  5
331
330
70
100
AcDbEntity
  8
Hidden
100
AcDbLine
 10
214.407458
 20
251.513513
 30
0.0
 11
217.407458
 21
251.513513
 31
0.0
210
1.0
220
-0.0000000000000002
230
0.0000000000002967
  0
LINE
  5
332
330
70
100
AcDbEntity
  8
Hidden
100
AcDbLine
 10
214.407458
 20
250.388513
 30
0.0
 11
217.407458
 21
250.388513
 31
0.0
210
1.0
220
-0.0000000000000002
230
0.0000000000002967
  0
LINE
  5
333
330
70
100
AcDbEntity
  8
Hidden
100
AcDbLine
 10
214.407458
 20
185.513513
 30
0.0
 11
217.407458
 21
185.513513
 31
0.0
210
1.0
220
-0.0000000000000002
230
0.0000000000002967
  0
LINE
  5
334
330
70
100
AcDbEntity
  8
Hidden
100
AcDbLine
 10
214.407458
 20
184.388513
 30
0.0
 11
217.407458
 21
184.388513
 31
0.0
210
1.0
220
-0.0000000000000002
230
0.0000000000002967
  0
LINE
  5
335
330
70
100
AcDbEntity
  8
Hidden
100
AcDbLine
 10
214.407458
 20
198.513513
 30
0.0
 11
217.407458
 21
198.513513
 31
0.0
210
1.0
220
-0.0000000000000002
230
0.0000000000002967
  0
LINE
  5
336
330
70
100
AcDbEntity
  8
Hidden
100
AcDbLine
 10
214.407458
 20
197.388513
 30
0.0
 11
217.407458
 21
197.388513
 31
0.0
210
1.0
220
-0.0000000000000002
230
0.0000000000002967
  0
LINE
  5
337
330
70
100
AcDbEntity
  8
Hidden
100
AcDbLine
 10
214.407458
 20
237.513513
 30
0.0
 11
217.407458
 21
237.513513
 31
0.0
210
1.0
220
-0.0000000000000002
230
0.0000000000002967
  0
LINE
  5
338
330
70
100
AcDbEntity
  8
Hidden
100
AcDbLine
 10
214.407458
 20
235.888513
 30
0.0
 11
217.407458
 21
235.888513
 31
0.0
210
1.0
220
-0.0000000000000002
230
0.0000000000002967
  0
LINE
  5
339
330
70
100
AcDbEntity
  8
Hidden
100
AcDbLine
 10
214.407458
 20
218.763513
 30
0.0
 11
217.407458
 21
218.763513
 31
0.0
210
1.0
220
-0.0000000000000002
230
0.0000000000002967
  0
LINE
  5
33A
330
70
100
AcDbEntity
  8
Hidden
100
AcDbLine
 10
214.407458
 20
217.138513
 30
0.0
 11
217.407458
 21
217.138513
 31
0.0
210
1.0
220
-0.0000000000000002
230
0.0000000000002967
  0
LINE
  5
33B
330
70
100
AcDbEntity
  8
Hidden
100
AcDbLine
 10
214.407458
 20
200.013513
 30
0.0
 11
217.407458
 21
200.013513
 31
0.0
210
1.0
220
-0.0000000000000002
230
0.0000000000002967
  0
LINE
  5
33C
330
70
100
AcDbEntity
  8
Hidden
100
AcDbLine
 10
214.407458
 20
198.388513
 30
0.0
 11
217.407458
 21
198.388513
 31
0.0
210
1.0
220
-0.0000000000000002
230
0.0000000000002967
  0
ELLIPSE
  5
33D
330
70
100
AcDbEntity
  8
Visible
100
AcDbEllipse
 10
310.424443
 20
210.477488
 30
0.0
 11
0.4054636719149534
 21
0.704099041865829
 31
-0.0000000000000002
210
-0.0000000000000002
220
-0.0000000000000002
230
-1.0
 40
0.5780931159167947
 41
1.570796326792522
 42
7.853981633972109
  0
ELLIPSE
  5
33E
330
70
100
AcDbEntity
  8
Hidden
100
AcDbEllipse
 10
308.303122
 20
211.699075
 30
0.0
 11
0.4054636719088726
 21
0.7040990418693307
 31
-0.0000000000000002
210
-0.0000000000000002
220
-0.0000000000000002
230
-1.0
 40
0.5780931159157511
 41
1.570796326796824
 42
7.85398163397641
  0
ELLIPSE
  5
33F
330
70
100
AcDbEntity
  8
Visible
100
AcDbEllipse
 10
291.067041
 20
199.330302
 30
0.0
 11
0.4054636719064531
 21
0.7040990418716335
 31
-0.0000000000000002
210
0.0
220
-0.0000000000000003
230
-0.9999999999999998
 40
0.5780931159146316
 41
1.570796326798164
 42
7.85398163397775
  0
ELLIPSE
  5
340
330
70
100
AcDbEntity
  8
Hidden
100
AcDbEllipse
 10
288.945721
 20
200.551889
 30
0.0
 11
0.4054636719107718
 21
0.7040990418694083
 31
-0.0000000000000002
210
0.0
220
-0.0000000000000003
230
-0.9999999999999998
 40
0.5780931159155136
 41
1.570796326795401
 42
7.853981633974987
  0
ELLIPSE
  5
341
330
70
100
AcDbEntity
  8
Visible
100
AcDbEllipse
 10
270.107335
 20
187.26041
 30
0.0
 11
0.4054636719088726
 21
0.7040990418693307
 31
-0.0000000000000002
210
0.0
220
-0.0000000000000003
230
-1.0
 40
0.5780931159157511
 41
1.570796326796824
 42
7.85398163397641
  0
ELLIPSE
  5
342
330
70
100
AcDbEntity
  8
Hidden
100
AcDbEllipse
 10
267.986015
 20
188.481997
 30
0.0
 11
0.4054636719126858
 21
0.7040990418680443
 31
-0.0000000000000002
210
0.0
220
-0.0000000000000003
230
-1.0
 40
0.5780931159157489
 41
1.570796326794986
 42
7.853981633974572
  0
ELLIPSE
  5
343
330
70
100
AcDbEntity
  8
Visible
100
AcDbEllipse
 10
250.750287
 20
176.113427
 30
0.0
 11
0.4054636719095695
 21
0.7040990418698391
 31
-0.0000000000000002
210
-0.0000000000000004
220
-0.0000000000000001
230
-1.0
 40
0.5780931159151903
 41
1.570796326796575
 42
7.853981633976161
  0
ELLIPSE
  5
344
330
70
100
AcDbEntity
  8
Hidden
100
AcDbEllipse
 10
248.628967
 20
177.335015
 30
0.0
 11
0.405463671914822
 21
0.7040990418670761
 31
-0.0000000000000002
210
-0.0000000000000004
220
-0.0000000000000001
230
-0.9999999999999998
 40
0.5780931159160724
 41
1.570796326793046
 42
7.853981633972632
  0
ELLIPSE
  5
345
330
70
100
AcDbEntity
  8
Visible
100
AcDbEllipse
 10
310.424443
 20
151.614095
 30
0.0
 11
0.4054636719095695
 21
0.7040990418698391
 31
-0.0000000000000002
210
-0.0000000000000002
220
-0.0000000000000002
230
-1.0
 40
0.5780931159151903
 41
1.570796326796575
 42
7.853981633976161
  0
ELLIPSE
  5
346
330
70
100
AcDbEntity
  8
Hidden
100
AcDbEllipse
 10
308.303122
 20
152.835682
 30
0.0
 11
0.4054636719115321
 21
0.7040990418687087
 31
-0.0000000000000002
210
-0.0000000000000002
220
-0.0000000000000002
230
-1.0
 40
0.5780931159151903
 41
1.570796326794964
 42
7.85398163397455
  0
ELLIPSE
  5
347
330
70
100
AcDbEntity
  8
Visible
100
AcDbEllipse
 10
291.067041
 20
140.466909
 30
0.0
 11
0.4054636719139515
 21
0.7040990418664058
 31
-0.0000000000000002
210
0.0
220
-0.0000000000000003
230
-1.0
 40
0.5780931159163098
 41
1.570796326793624
 42
7.85398163397321
  0
ELLIPSE
  5
348
330
70
100
AcDbEntity
  8
Hidden
100
AcDbEllipse
 10
288.945721
 20
141.688496
 30
0.0
 11
0.4054636719095695
 21
0.7040990418698391
 31
-0.0000000000000002
210
0.0
220
-0.0000000000000003
230
-1.0
 40
0.5780931159151903
 41
1.570796326796575
 42
7.853981633976161
  0
ELLIPSE
  5
349
330
70
100
AcDbEntity
  8
Visible
100
AcDbEllipse
 10
270.107335
 20
128.397017
 30
0.0
 11
0.4054636719141252
 21
0.7040990418665679
 31
-0.0000000000000002
210
0.0
220
-0.0000000000000003
230
-1.0
 40
0.5780931159166332
 41
1.570796326793295
 42
7.853981633972882
  0
ELLIPSE
  5
34A
330
70
100
AcDbEntity
  8
Hidden
100
AcDbEllipse
 10
267.986015
 20
129.618604
 30
0.0
 11
0.4054636719146213
 21
0.7040990418669297
 31
-0.0000000000000002
210
0.0
220
-0.0000000000000003
230
-1.0
 40
0.5780931159162339
 41
1.570796326793118
 42
7.853981633972704
  0
ELLIPSE
  5
34B
330
70
100
AcDbEntity
  8
Visible
100
AcDbEllipse
 10
250.750287
 20
117.250034
 30
0.0
 11
0.4054636719115049
 21
0.7040990418687243
 31
-0.0000000000000002
210
-0.0000000000000004
220
-0.0000000000000001
230
-0.9999999999999998
 40
0.5780931159156753
 41
1.570796326794706
 42
7.853981633974292
  0
ELLIPSE
  5
34C
330
70
100
AcDbEntity
  8
Hidden
100
AcDbEllipse
 10
248.628967
 20
118.471622
 30
0.0
 11
0.4054636719146701
 21
0.7040990418671635
 31
-0.0000000000000002
210
-0.0000000000000004
220
-0.0000000000000001
230
-1.0
 40
0.5780931159159988
 41
1.570796326791922
 42
7.853981633971508
  0
ELLIPSE
  5
34D
330
70
100
AcDbEntity
  8
Visible
100
AcDbEllipse
 10
305.100017
 20
204.958714
 30
0.0
 11
0.2807056190169355
 21
0.4874531828305483
 31
-0.0000000000000002
210
0.0000000000000001
220
-0.0000000000000004
230
-1.0
 40
0.5780931159174032
 41
1.570796326795066
 42
7.853981633974652
  0
ELLIPSE
  5
34E
330
70
100
AcDbEntity
  8
Hidden
100
AcDbEllipse
 10
302.978697
 20
206.180301
 30
0.0
 11
0.2807056190115322
 21
0.4874531828348309
 31
-0.0000000000000002
210
0.0000000000000001
220
-0.0000000000000004
230
-0.9999999999999996
 40
0.5780931159140458
 41
1.570796326799676
 42
7.853981633979262
  0
ELLIPSE
  5
34F
330
70
100
AcDbEntity
  8
Visible
100
AcDbEllipse
 10
298.028949
 20
200.886757
 30
0.0
 11
0.2807056190174122
 21
0.4874531828311831
 31
-0.0000000000000002
210
0.0000000000000001
220
-0.0000000000000004
230
-1.0
 40
0.5780931159157864
 41
1.570796326793566
 42
7.853981633973152
  0
ELLIPSE
  5
350
330
70
100
AcDbEntity
  8
Hidden
100
AcDbEllipse
 10
295.907629
 20
202.108344
 30
0.0
 11
0.2807056190145162
 21
0.4874531828328508
 31
-0.0000000000000002
210
0.0000000000000001
220
-0.0000000000000004
230
-1.0
 40
0.5780931159157865
 41
1.570796326797
 42
7.853981633976586
  0
ELLIPSE
  5
351
330
70
100
AcDbEntity
  8
Visible
100
AcDbEllipse
 10
305.100017
 20
194.330601
 30
0.0
 11
0.2807056190185466
 21
0.4874531828307919
 31
-0.0000000000000002
210
0.0000000000000001
220
-0.0000000000000004
230
-0.9999999999999998
 40
0.5780931159155533
 41
1.570796326792355
 42
7.853981633971941
  0
ELLIPSE
  5
352
330
70
100
AcDbEntity
  8
Hidden
100
AcDbEllipse
 10
302.978697
 20
195.552188
 30
0.0
 11
0.2807056190166035
 21
0.4874531828316488
 31
-0.0000000000000002
210
0.0000000000000001
220
-0.0000000000000004
230
-1.0
 40
0.5780931159165933
 41
1.570796326795926
 42
7.853981633975513
  0
ELLIPSE
  5
353
330
70
100
AcDbEntity
  8
Visible
100
AcDbEllipse
 10
298.028949
 20
190.258644
 30
0.0
 11
0.2807056190158873
 21
0.4874531828314137
 31
-0.0000000000000002
210
0.0000000000000001
220
-0.0000000000000004
230
-0.9999999999999998
 40
0.5780931159163633
 41
1.570796326795042
 42
7.853981633974628
  0
ELLIPSE
  5
354
330
70
100
AcDbEntity
  8
Hidden
100
AcDbEllipse
 10
295.907629
 20
191.480231
 30
0.0
 11
0.2807056190180698
 21
0.4874531828301569
 31
-0.0000000000000002
210
0.0000000000000001
220
-0.0000000000000004
230
-1.0
 40
0.57809311591717
 41
1.570796326793855
 42
7.853981633973441
  0
ELLIPSE
  5
355
330
70
100
AcDbEntity
  8
Visible
100
AcDbEllipse
 10
284.122528
 20
192.878581
 30
0.0
 11
0.2807056190174122
 21
0.4874531828311831
 31
-0.0000000000000002
210
0.0000000000000001
220
-0.0000000000000004
230
-1.0
 40
0.5780931159157864
 41
1.570796326793566
 42
7.853981633973152
  0
ELLIPSE
  5
356
330
70
100
AcDbEntity
  8
Hidden
100
AcDbEllipse
 10
282.001207
 20
194.100168
 30
0.0
 11
0.2807056190174122
 21
0.4874531828311831
 31
-0.0000000000000002
210
0.0000000000000001
220
-0.0000000000000004
230
-1.0
 40
0.5780931159157864
 41
1.570796326793566
 42
7.853981633973152
  0
ELLIPSE
  5
357
330
70
100
AcDbEntity
  8
Visible
100
AcDbEllipse
 10
277.05146
 20
188.806624
 30
0.0
 11
0.2807056190144481
 21
0.4874531828328904
 31
-0.0000000000000002
210
0.0000000000000001
220
-0.0000000000000004
230
-1.0
 40
0.5780931159150857
 41
1.570796326797485
 42
7.85398163397707
  0
ELLIPSE
  5
358
330
70
100
AcDbEntity
  8
Hidden
100
AcDbEllipse
 10
274.930139
 20
190.028211
 30
0.0
 11
0.280705619013294
 21
0.4874531828335546
 31
-0.0000000000000002
210
0.0000000000000001
220
-0.0000000000000004
230
-1.0
 40
0.5780931159142791
 41
1.570796326797452
 42
7.853981633977038
  0
ELLIPSE
  5
359
330
70
100
AcDbEntity
  8
Visible
100
AcDbEllipse
 10
284.122528
 20
182.250469
 30
0.0
 11
0.2807056190157136
 21
0.4874531828312518
 31
-0.0000000000000002
210
0.0000000000000001
220
-0.0000000000000004
230
-1.0
 40
0.5780931159158959
 41
1.570796326795517
 42
7.853981633975104
  0
ELLIPSE
  5
35A
330
70
100
AcDbEntity
  8
Hidden
100
AcDbEllipse
 10
282.001207
 20
183.472056
 30
0.0
 11
0.2807056190175642
 21
0.4874531828310955
 31
-0.0000000000000002
210
0.0000000000000001
220
-0.0000000000000004
230
-0.9999999999999996
 40
0.5780931159158928
 41
1.57079632679519
 42
7.853981633974776
  0
ELLIPSE
  5
35B
330
70
100
AcDbEntity
  8
Visible
100
AcDbEllipse
 10
277.05146
 20
178.178511
 30
0.0
 11
0.2807056190154766
 21
0.4874531828322977
 31
-0.0000000000000002
210
0.0000000000000001
220
-0.0000000000000004
230
-0.9999999999999998
 40
0.5780931159150857
 41
1.570796326796265
 42
7.853981633975851
  0
ELLIPSE
  5
35C
330
70
100
AcDbEntity
  8
Hidden
100
AcDbEllipse
 10
274.930139
 20
179.400099
 30
0.0
 11
0.2807056190166306
 21
0.4874531828316331
 31
-0.0000000000000002
210
0.0000000000000001
220
-0.0000000000000004
230
-0.9999999999999998
 40
0.5780931159158929
 41
1.570796326796297
 42
7.853981633975884
  0
ELLIPSE
  5
35D
330
70
100
AcDbEntity
  8
Visible
100
AcDbEllipse
 10
256.07397
 20
166.098379
 30
0.0
 11
0.2807056190154498
 21
0.4874531828323132
 31
-0.0000000000000002
210
0.0000000000000001
220
-0.0000000000000004
230
-1.0
 40
0.5780931159157865
 41
1.570796326795893
 42
7.853981633975479
  0
ELLIPSE
  5
35E
330
70
100
AcDbEntity
  8
Hidden
100
AcDbEllipse
 10
253.95265
 20
167.319966
 30
0.0
 11
0.2807056190154766
 21
0.4874531828322977
 31
-0.0000000000000002
210
0.0000000000000001
220
-0.0000000000000004
230
-0.9999999999999998
 40
0.5780931159150857
 41
1.570796326796265
 42
7.853981633975851
  0
ELLIPSE
  5
35F
330
70
100
AcDbEntity
  8
Visible
100
AcDbEllipse
 10
263.145038
 20
170.170336
 30
0.0
 11
0.2807056190176129
 21
0.4874531828313295
 31
-0.0000000000000002
210
0.0000000000000001
220
-0.0000000000000004
230
-1.0
 40
0.5780931159155532
 41
1.570796326793462
 42
7.853981633973049
  0
ELLIPSE
  5
360
330
70
100
AcDbEntity
  8
Hidden
100
AcDbEllipse
 10
261.023718
 20
171.391923
 30
0.0
 11
0.280705619017833
 21
0.4874531828312027
 31
-0.0000000000000002
210
0.0000000000000001
220
-0.0000000000000004
230
-1.0
 40
0.57809311591636
 41
1.570796326794603
 42
7.853981633974189
  0
ELLIPSE
  5
361
330
70
100
AcDbEntity
  8
Visible
100
AcDbEllipse
 10
263.145038
 20
180.798448
 30
0.0
 11
0.2807056190156505
 21
0.4874531828324594
 31
-0.0000000000000002
210
0.0000000000000001
220
-0.0000000000000004
230
-0.9999999999999998
 40
0.5780931159155534
 41
1.570796326795789
 42
7.853981633975376
  0
ELLIPSE
  5
362
330
70
100
AcDbEntity
  8
Hidden
100
AcDbEllipse
 10
261.023718
 20
182.020036
 30
0.0
 11
0.2807056190162584
 21
0.4874531828318477
 31
-0.0000000000000002
210
0.0000000000000001
220
-0.0000000000000004
230
-1.0
 40
0.5780931159149795
 41
1.570796326793533
 42
7.85398163397312
  0
ELLIPSE
  5
363
330
70
100
AcDbEntity
  8
Visible
100
AcDbEllipse
 10
256.07397
 20
176.726491
 30
0.0
 11
0.2807056190156505
 21
0.4874531828324594
 31
-0.0000000000000002
210
0.0000000000000001
220
-0.0000000000000004
230
-0.9999999999999998
 40
0.5780931159155534
 41
1.570796326795789
 42
7.853981633975376
  0
ELLIPSE
  5
364
330
70
100
AcDbEntity
  8
Hidden
100
AcDbEllipse
 10
253.95265
 20
177.948078
 30
0.0
 11
0.2807056190154766
 21
0.4874531828322977
 31
-0.0000000000000002
210
0.0000000000000001
220
-0.0000000000000004
230
-0.9999999999999998
 40
0.5780931159150857
 41
1.570796326796265
 42
7.853981633975851
  0
ELLIPSE
  5
365
330
70
100
AcDbEntity
  8
Visible
100
AcDbEllipse
 10
298.028949
 20
146.928647
 30
0.0
 11
0.2807056190145162
 21
0.4874531828328508
 31
-0.0000000000000002
210
0.0000000000000001
220
-0.0000000000000004
230
-1.0
 40
0.5780931159157865
 41
1.570796326797
 42
7.853981633976586
  0
ELLIPSE
  5
366
330
70
100
AcDbEntity
  8
Hidden
100
AcDbEllipse
 10
295.907629
 20
148.150234
 30
0.0
 11
0.2807056190147797
 21
0.4874531828317897
 31
-0.0000000000000002
210
0.0000000000000001
220
-0.0000000000000004
230
-1.0
 40
0.5780931159158957
 41
1.570796326796625
 42
7.853981633976211
  0
ELLIPSE
  5
367
330
70
100
AcDbEntity
  8
Visible
100
AcDbEllipse
 10
305.100017
 20
151.000604
 30
0.0
 11
0.2807056190135142
 21
0.4874531828334277
 31
-0.0000000000000002
210
0.0000000000000001
220
-0.0000000000000004
230
-0.9999999999999998
 40
0.5780931159150859
 41
1.570796326798592
 42
7.853981633978178
  0
ELLIPSE
  5
368
330
70
100
AcDbEntity
  8
Hidden
100
AcDbEllipse
 10
302.978697
 20
152.222191
 30
0.0
 11
0.2807056190185466
 21
0.4874531828307919
 31
-0.0000000000000002
210
0.0000000000000001
220
-0.0000000000000004
230
-0.9999999999999998
 40
0.5780931159155533
 41
1.570796326792355
 42
7.853981633971941
  0
ELLIPSE
  5
369
330
70
100
AcDbEntity
  8
Visible
100
AcDbEllipse
 10
298.028949
 20
157.556759
 30
0.0
 11
0.2807056190177648
 21
0.4874531828312419
 31
-0.0000000000000002
210
0.0000000000000001
220
-0.0000000000000004
230
-1.0
 40
0.5780931159156593
 41
1.570796326795087
 42
7.853981633974672
  0
ELLIPSE
  5
36A
330
70
100
AcDbEntity
  8
Hidden
100
AcDbEllipse
 10
295.907629
 20
158.778346
 30
0.0
 11
0.2807056190190035
 21
0.4874531828296192
 31
-0.0000000000000002
210
0.0000000000000001
220
-0.0000000000000004
230
-1.0
 40
0.57809311591717
 41
1.570796326792748
 42
7.853981633972335
  0
ELLIPSE
  5
36B
330
70
100
AcDbEntity
  8
Visible
100
AcDbEllipse
 10
305.100017
 20
161.628716
 30
0.0
 11
0.2807056190178693
 21
0.4874531828300106
 31
-0.0000000000000002
210
0.0000000000000001
220
-0.0000000000000004
230
-1.0
 40
0.5780931159174032
 41
1.570796326793959
 42
7.853981633973544
  0
ELLIPSE
  5
36C
330
70
100
AcDbEntity
  8
Hidden
100
AcDbEllipse
 10
302.978697
 20
162.850303
 30
0.0
 11
0.2807056190123335
 21
0.487453182834108
 31
-0.0000000000000002
210
0.0000000000000001
220
-0.0000000000000004
230
-1.0
 40
0.5780931159149795
 41
1.570796326798188
 42
7.853981633977774
  0
ELLIPSE
  5
36D
330
70
100
AcDbEntity
  8
Visible
100
AcDbEllipse
 10
277.05146
 20
134.848514
 30
0.0
 11
0.2807056190154498
 21
0.4874531828323132
 31
-0.0000000000000002
210
0.0000000000000001
220
-0.0000000000000004
230
-1.0
 40
0.5780931159157865
 41
1.570796326795893
 42
7.853981633975479
  0
ELLIPSE
  5
36E
330
70
100
AcDbEntity
  8
Hidden
100
AcDbEllipse
 10
274.930139
 20
136.070101
 30
0.0
 11
0.2807056190175642
 21
0.4874531828310955
 31
-0.0000000000000002
210
0.0000000000000001
220
-0.0000000000000004
230
-0.9999999999999996
 40
0.5780931159158928
 41
1.57079632679519
 42
7.853981633974776
  0
ELLIPSE
  5
36F
330
70
100
AcDbEntity
  8
Visible
100
AcDbEllipse
 10
284.122528
 20
138.920471
 30
0.0
 11
0.2807056190154303
 21
0.4874531828325864
 31
-0.0000000000000002
210
0.0000000000000001
220
-0.0000000000000004
230
-1.0
 40
0.5780931159147463
 41
1.57079632679465
 42
7.853981633974235
  0
ELLIPSE
  5
370
330
70
100
AcDbEntity
  8
Hidden
100
AcDbEllipse
 10
282.001207
 20
140.142058
 30
0.0
 11
0.2807056190176324
 21
0.4874531828310563
 31
-0.0000000000000002
210
0.0000000000000001
220
-0.0000000000000004
230
-1.0
 40
0.5780931159165932
 41
1.570796326794706
 42
7.853981633974292
  0
ELLIPSE
  5
371
330
70
100
AcDbEntity
  8
Visible
100
AcDbEllipse
 10
277.05146
 20
145.476626
 30
0.0
 11
0.2807056190187667
 21
0.487453182830665
 31
-0.0000000000000002
210
0.0000000000000001
220
-0.0000000000000004
230
-1.0
 40
0.57809311591636
 41
1.570796326793495
 42
7.853981633973081
  0
ELLIPSE
  5
372
330
70
100
AcDbEntity
  8
Hidden
100
AcDbEllipse
 10
274.930139
 20
146.698214
 30
0.0
 11
0.2807056190133624
 21
0.4874531828335151
 31
-0.0000000000000002
210
0.0000000000000001
220
-0.0000000000000004
230
-1.0
 40
0.5780931159149798
 41
1.570796326796967
 42
7.853981633976554
  0
ELLIPSE
  5
373
330
70
100
AcDbEntity
  8
Visible
100
AcDbEllipse
 10
284.122528
 20
149.548584
 30
0.0
 11
0.2807056190166306
 21
0.4874531828316331
 31
-0.0000000000000002
210
0.0000000000000001
220
-0.0000000000000004
230
-0.9999999999999998
 40
0.5780931159158929
 41
1.570796326796297
 42
7.853981633975884
  0
ELLIPSE
  5
374
330
70
100
AcDbEntity
  8
Hidden
100
AcDbEllipse
 10
282.001207
 20
150.770171
 30
0.0
 11
0.2807056190125125
 21
0.4874531828340047
 31
-0.0000000000000002
210
0.0000000000000001
220
-0.0000000000000004
230
-1.0
 40
0.5780931159143853
 41
1.570796326800183
 42
7.85398163397977
  0
ELLIPSE
  5
375
330
70
100
AcDbEntity
  8
Visible
100
AcDbEllipse
 10
263.145038
 20
126.840338
 30
0.0
 11
0.2807056190174122
 21
0.4874531828311831
 31
-0.0000000000000002
210
0.0000000000000001
220
-0.0000000000000004
230
-1.0
 40
0.5780931159157864
 41
1.570796326793566
 42
7.853981633973152
  0
ELLIPSE
  5
376
330
70
100
AcDbEntity
  8
Hidden
100
AcDbEllipse
 10
261.023718
 20
128.061925
 30
0.0
 11
0.280705619018566
 21
0.4874531828305187
 31
-0.0000000000000002
210
0.0000000000000001
220
-0.0000000000000004
230
-1.0
 40
0.5780931159165932
 41
1.570796326793599
 42
7.853981633973186
  0
ELLIPSE
  5
377
330
70
100
AcDbEntity
  8
Visible
100
AcDbEllipse
 10
256.07397
 20
122.768381
 30
0.0
 11
0.2807056190146486
 21
0.4874531828330364
 31
-0.0000000000000002
210
0.0000000000000001
220
-0.0000000000000004
230
-1.0
 40
0.5780931159148527
 41
1.570796326797381
 42
7.853981633976967
  0
ELLIPSE
  5
378
330
70
100
AcDbEntity
  8
Hidden
100
AcDbEllipse
 10
253.95265
 20
123.989968
 30
0.0
 11
0.280705619018566
 21
0.4874531828305187
 31
-0.0000000000000002
210
0.0000000000000001
220
-0.0000000000000004
230
-1.0
 40
0.5780931159165932
 41
1.570796326793599
 42
7.853981633973186
  0
ELLIPSE
  5
379
330
70
100
AcDbEntity
  8
Visible
100
AcDbEllipse
 10
263.145038
 20
137.468451
 30
0.0
 11
0.2807056190175642
 21
0.4874531828310955
 31
-0.0000000000000002
210
0.0000000000000001
220
-0.0000000000000004
230
-0.9999999999999996
 40
0.5780931159158928
 41
1.57079632679519
 42
7.853981633974776
  0
ELLIPSE
  5
37A
330
70
100
AcDbEntity
  8
Hidden
100
AcDbEllipse
 10
261.023718
 20
138.690038
 30
0.0
 11
0.2807056190164786
 21
0.4874531828317207
 31
-0.0000000000000002
210
0.0000000000000001
220
-0.0000000000000004
230
-0.9999999999999998
 40
0.5780931159157865
 41
1.570796326794673
 42
7.853981633974259
  0
ELLIPSE
  5
37B
330
70
100
AcDbEntity
  8
Visible
100
AcDbEllipse
 10
256.07397
 20
133.396494
 30
0.0
 11
0.2807056190175642
 21
0.4874531828310955
 31
-0.0000000000000002
210
0.0000000000000001
220
-0.0000000000000004
230
-0.9999999999999996
 40
0.5780931159158928
 41
1.57079632679519
 42
7.853981633974776
  0
ELLIPSE
  5
37C
330
70
100
AcDbEntity
  8
Hidden
100
AcDbEllipse
 10
253.95265
 20
134.618081
 30
0.0
 11
0.2807056190165842
 21
0.4874531828319219
 31
-0.0000000000000002
210
0.0000000000000001
220
-0.0000000000000004
230
-1.0
 40
0.5780931159155532
 41
1.570796326794682
 42
7.853981633974269
  0
ELLIPSE
  5
37D
330
70
100
AcDbEntity
  8
Visible
100
AcDbEllipse
 10
248.060099
 20
160.461563
 30
0.0
 11
0.4054636719139245
 21
0.7040990418664216
 31
-0.0000000000000002
210
-0.0000000000000002
220
-0.0000000000000002
230
-0.9999999999999998
 40
0.5780931159167946
 41
1.570796326793367
 42
7.853981633972953
  0
ELLIPSE
  5
37E
330
70
100
AcDbEntity
  8
Hidden
100
AcDbEllipse
 10
245.938779
 20
161.683151
 30
0.0
 11
0.405463671914885
 21
0.7040990418658683
 31
-0.0000000000000002
210
-0.0000000000000002
220
-0.0000000000000002
230
-1.0
 40
0.5780931159163096
 41
1.570796326792858
 42
7.853981633972444
  0
ELLIPSE
  5
37F
330
70
100
AcDbEntity
  8
Visible
100
AcDbEllipse
 10
313.113923
 20
182.594561
 30
0.0
 11
0.4054636719126858
 21
0.7040990418680443
 31
-0.0000000000000002
210
-0.0000000000000002
220
-0.0000000000000002
230
-1.0
 40
0.5780931159157489
 41
1.570796326794986
 42
7.853981633974572
  0
ELLIPSE
  5
380
330
70
100
AcDbEntity
  8
Hidden
100
AcDbEllipse
 10
310.992603
 20
183.816148
 30
0.0
 11
0.4054636719115321
 21
0.7040990418687087
 31
-0.0000000000000002
210
-0.0000000000000002
220
-0.0000000000000002
230
-1.0
 40
0.5780931159151903
 41
1.570796326794964
 42
7.85398163397455
  0
ELLIPSE
  5
381
330
70
100
AcDbEntity
  8
Visible
100
AcDbEllipse
 10
248.060099
 20
145.132555
 30
0.0
 11
0.4054636719118368
 21
0.7040990418676236
 31
-0.0000000000000002
210
-0.0000000000000002
220
-0.0000000000000002
230
-1.0
 40
0.5780931159162361
 41
1.570796326794111
 42
7.853981633973697
  0
ELLIPSE
  5
382
330
70
100
AcDbEntity
  8
Hidden
100
AcDbEllipse
 10
245.938779
 20
146.354142
 30
0.0
 11
0.4054636719136878
 21
0.7040990418674672
 31
-0.0000000000000002
210
-0.0000000000000002
220
-0.0000000000000002
230
-1.0
 40
0.5780931159162339
 41
1.570796326793884
 42
7.853981633973471
  0
ELLIPSE
  5
383
330
70
100
AcDbEntity
  8
Visible
100
AcDbEllipse
 10
313.113923
 20
167.265552
 30
0.0
 11
0.4054636719144694
 21
0.7040990418670172
 31
-0.0000000000000002
210
-0.0000000000000002
220
-0.0000000000000002
230
-1.0
 40
0.5780931159161603
 41
1.570796326791993
 42
7.85398163397158
  0
ELLIPSE
  5
384
330
70
100
AcDbEntity
  8
Hidden
100
AcDbEllipse
 10
310.992603
 20
168.487139
 30
0.0
 11
0.4054636719134675
 21
0.704099041867594
 31
-0.0000000000000002
210
-0.0000000000000002
220
-0.0000000000000002
230
-1.0
 40
0.5780931159156754
 41
1.570796326793095
 42
7.853981633972681
  0
ELLIPSE
  5
385
330
70
100
AcDbEntity
  8
Visible
100
AcDbEllipse
 10
313.113923
 20
197.923569
 30
0.0
 11
0.4054636719117055
 21
0.7040990418688706
 31
-0.0000000000000002
210
-0.0000000000000002
220
-0.0000000000000002
230
-1.0
 40
0.5780931159155137
 41
1.570796326794635
 42
7.853981633974221
  0
ELLIPSE
  5
386
330
70
100
AcDbEntity
  8
Hidden
100
AcDbEllipse
 10
310.992603
 20
199.145156
 30
0.0
 11
0.4054636719144694
 21
0.7040990418670172
 31
-0.0000000000000002
210
-0.0000000000000002
220
-0.0000000000000002
230
-1.0
 40
0.5780931159161603
 41
1.570796326791993
 42
7.85398163397158
  0
ELLIPSE
  5
387
330
70
100
AcDbEntity
  8
Visible
100
AcDbEllipse
 10
248.060099
 20
129.803546
 30
0.0
 11
0.405463671914885
 21
0.7040990418658683
 31
-0.0000000000000003
210
0.0
220
-0.0000000000000004
230
-1.0
 40
0.5780931159163096
 41
1.570796326792858
 42
7.853981633972444
  0
ELLIPSE
  5
388
330
70
100
AcDbEntity
  8
Hidden
100
AcDbEllipse
 10
245.938779
 20
131.025133
 30
0.0
 11
0.4054636719136682
 21
0.7040990418677405
 31
-0.0000000000000003
210
0.0
220
-0.0000000000000004
230
-1.0
 40
0.5780931159155137
 41
1.570796326793024
 42
7.85398163397261
  0
LINE
  5
389
330
70
100
AcDbEntity
  8
Visible
100
AcDbLine
 10
244.878119
 20
176.401366
 30
0.0
 11
244.878119
 21
115.085331
 31
0.0
210
0.7071067811864426
220
-0.4071957137923945
230
0.5780931159158106
  0
LINE
  5
38A
330
70
100
AcDbEntity
  8
Visible
100
AcDbLine
 10
244.878119
 20
115.085331
 30
0.0
 11
246.999439
 21
113.863744
 31
0.0
210
0.7071067811864426
220
-0.4071957137923945
230
0.5780931159158106
  0
LINE
  5
38B
330
70
100
AcDbEntity
  8
Visible
100
AcDbLine
 10
246.999439
 20
175.179778
 30
0.0
 11
246.999439
 21
113.863744
 31
0.0
210
0.7071067811864426
220
-0.4071957137923945
230
0.5780931159158106
  0
LINE
  5
38C
330
70
100
AcDbEntity
  8
Visible
100
AcDbLine
 10
244.878119
 20
176.401366
 30
0.0
 11
246.999439
 21
175.179778
 31
0.0
210
0.7071067811864426
220
-0.4071957137923945
230
0.5780931159158106
  0
LINE
  5
38D
330
70
100
AcDbEntity
  8
Visible
100
AcDbLine
 10
312.053263
 20
215.084958
 30
0.0
 11
244.878119
 21
176.401366
 31
0.0
210
0.7071067811864426
220
-0.4071957137923945
230
0.5780931159158106
  0
LINE
  5
38E
330
70
100
AcDbEntity
  8
Visible
100
AcDbLine
 10
314.174583
 20
213.863371
 30
0.0
 11
246.999439
 21
175.179778
 31
0.0
210
0.7071067811864426
220
-0.4071957137923945
230
0.5780931159158106
  0
LINE
  5
38F
330
70
100
AcDbEntity
  8
Visible
100
AcDbLine
 10
312.053263
 20
215.084958
 30
0.0
 11
314.174583
 21
213.863371
 31
0.0
210
0.7071067811864426
220
-0.4071957137923945
230
0.5780931159158106
  0
LINE
  5
390
330
70
100
AcDbEntity
  8
Hidden
100
AcDbLine
 10
312.053263
 20
153.768924
 30
0.0
 11
312.053263
 21
215.084958
 31
0.0
210
0.7071067811864426
220
-0.4071957137923945
230
0.5780931159158106
  0
LINE
  5
391
330
70
100
AcDbEntity
  8
Visible
100
AcDbLine
 10
314.174583
 20
152.547337
 30
0.0
 11
314.174583
 21
213.863371
 31
0.0
210
0.7071067811864426
220
-0.4071957137923945
230
0.5780931159158106
  0
LINE
  5
392
330
70
100
AcDbEntity
  8
Hidden
100
AcDbLine
 10
312.053263
 20
153.768924
 30
0.0
 11
314.174583
 21
152.547337
 31
0.0
210
0.7071067811864426
220
-0.4071957137923945
230
0.5780931159158106
  0
LINE
  5
393
330
70
100
AcDbEntity
  8
Hidden
100
AcDbLine
 10
244.878119
 20
115.085331
 30
0.0
 11
312.053263
 21
153.768924
 31
0.0
210
0.7071067811864426
220
-0.4071957137923945
230
0.5780931159158106
  0
LINE
  5
394
330
70
100
AcDbEntity
  8
Visible
100
AcDbLine
 10
246.999439
 20
113.863744
 30
0.0
 11
314.174583
 21
152.547337
 31
0.0
210
0.7071067811864426
220
-0.4071957137923945
230
0.5780931159158106
  0
LINE
  5
395
330
70
100
AcDbEntity
  8
Hidden
100
AcDbLine
 10
308.708586
 20
212.403174
 30
0.0
 11
310.829906
 21
211.181587
 31
0.0
210
0.7071067811864426
220
-0.4071957137923945
230
0.5780931159158106
  0
LINE
  5
396
330
70
100
AcDbEntity
  8
Hidden
100
AcDbLine
 10
307.897659
 20
210.994976
 30
0.0
 11
310.018979
 21
209.773389
 31
0.0
210
0.7071067811864426
220
-0.4071957137923945
230
0.5780931159158106
  0
LINE
  5
397
330
70
100
AcDbEntity
  8
Hidden
100
AcDbLine
 10
289.351184
 20
201.255988
 30
0.0
 11
291.472505
 21
200.034401
 31
0.0
210
0.7071067811864426
220
-0.4071957137923945
230
0.5780931159158106
  0
LINE
  5
398
330
70
100
AcDbEntity
  8
Hidden
100
AcDbLine
 10
288.540257
 20
199.84779
 30
0.0
 11
290.661577
 21
198.626203
 31
0.0
210
0.7071067811864426
220
-0.4071957137923945
230
0.5780931159158106
  0
LINE
  5
399
330
70
100
AcDbEntity
  8
Hidden
100
AcDbLine
 10
268.391479
 20
189.186096
 30
0.0
 11
270.512799
 21
187.964509
 31
0.0
210
0.7071067811864426
220
-0.4071957137923945
230
0.5780931159158106
  0
LINE
  5
39A
330
70
100
AcDbEntity
  8
Hidden
100
AcDbLine
 10
267.580551
 20
187.777898
 30
0.0
 11
269.701872
 21
186.556311
 31
0.0
210
0.7071067811864426
220
-0.4071957137923945
230
0.5780931159158106
  0
LINE
  5
39B
330
70
100
AcDbEntity
  8
Hidden
100
AcDbLine
 10
249.03443
 20
178.039114
 30
0.0
 11
251.155751
 21
176.817526
 31
0.0
210
0.7071067811864426
220
-0.4071957137923945
230
0.5780931159158106
  0
LINE
  5
39C
330
70
100
AcDbEntity
  8
Hidden
100
AcDbLine
 10
248.223503
 20
176.630916
 30
0.0
 11
250.344823
 21
175.409328
 31
0.0
210
0.7071067811864426
220
-0.4071957137923945
230
0.5780931159158106
  0
LINE
  5
39D
330
70
100
AcDbEntity
  8
Hidden
100
AcDbLine
 10
308.708586
 20
153.539781
 30
0.0
 11
310.829906
 21
152.318194
 31
0.0
210
0.7071067811864426
220
-0.4071957137923945
230
0.5780931159158106
  0
LINE
  5
39E
330
70
100
AcDbEntity
  8
Hidden
100
AcDbLine
 10
307.897659
 20
152.131583
 30
0.0
 11
310.018979
 21
150.909996
 31
0.0
210
0.7071067811864426
220
-0.4071957137923945
230
0.5780931159158106
  0
LINE
  5
39F
330
70
100
AcDbEntity
  8
Hidden
100
AcDbLine
 10
289.351184
 20
142.392595
 30
0.0
 11
291.472505
 21
141.171008
 31
0.0
210
0.7071067811864426
220
-0.4071957137923945
230
0.5780931159158106
  0
LINE
  5
3A0
330
70
100
AcDbEntity
  8
Hidden
100
AcDbLine
 10
288.540257
 20
140.984397
 30
0.0
 11
290.661577
 21
139.76281
 31
0.0
210
0.7071067811864426
220
-0.4071957137923945
230
0.5780931159158106
  0
LINE
  5
3A1
330
70
100
AcDbEntity
  8
Hidden
100
AcDbLine
 10
268.391479
 20
130.322703
 30
0.0
 11
270.512799
 21
129.101116
 31
0.0
210
0.7071067811864426
220
-0.4071957137923945
230
0.5780931159158106
  0
LINE
  5
3A2
330
70
100
AcDbEntity
  8
Hidden
100
AcDbLine
 10
267.580551
 20
128.914505
 30
0.0
 11
269.701872
 21
127.692918
 31
0.0
210
0.7071067811864426
220
-0.4071957137923945
230
0.5780931159158106
  0
LINE
  5
3A3
330
70
100
AcDbEntity
  8
Hidden
100
AcDbLine
 10
249.03443
 20
119.175721
 30
0.0
 11
251.155751
 21
117.954133
 31
0.0
210
0.7071067811864426
220
-0.4071957137923945
230
0.5780931159158106
  0
LINE
  5
3A4
330
70
100
AcDbEntity
  8
Hidden
100
AcDbLine
 10
248.223503
 20
117.767523
 30
0.0
 11
250.344823
 21
116.545935
 31
0.0
210
0.7071067811864426
220
-0.4071957137923945
230
0.5780931159158106
  0
LINE
  5
3A5
330
70
100
AcDbEntity
  8
Hidden
100
AcDbLine
 10
303.259402
 20
206.667754
 30
0.0
 11
305.380723
 21
205.446167
 31
0.0
210
0.7071067811864426
220
-0.4071957137923945
230
0.5780931159158106
  0
LINE
  5
3A6
330
70
100
AcDbEntity
  8
Hidden
100
AcDbLine
 10
302.697991
 20
205.692848
 30
0.0
 11
304.819311
 21
204.471261
 31
0.0
210
0.7071067811864426
220
-0.4071957137923945
230
0.5780931159158106
  0
LINE
  5
3A7
330
70
100
AcDbEntity
  8
Hidden
100
AcDbLine
 10
296.188334
 20
202.595797
 30
0.0
 11
298.309655
 21
201.37421
 31
0.0
210
0.7071067811864426
220
-0.4071957137923945
230
0.5780931159158106
  0
LINE
  5
3A8
330
70
100
AcDbEntity
  8
Hidden
100
AcDbLine
 10
295.626923
 20
201.620891
 30
0.0
 11
297.748243
 21
200.399304
 31
0.0
210
0.7071067811864426
220
-0.4071957137923945
230
0.5780931159158106
  0
LINE
  5
3A9
330
70
100
AcDbEntity
  8
Hidden
100
AcDbLine
 10
303.259402
 20
196.039642
 30
0.0
 11
305.380723
 21
194.818054
 31
0.0
210
0.7071067811864426
220
-0.4071957137923945
230
0.5780931159158106
  0
LINE
  5
3AA
330
70
100
AcDbEntity
  8
Hidden
100
AcDbLine
 10
302.697991
 20
195.064735
 30
0.0
 11
304.819311
 21
193.843148
 31
0.0
210
0.7071067811864426
220
-0.4071957137923945
230
0.5780931159158106
  0
LINE
  5
3AB
330
70
100
AcDbEntity
  8
Hidden
100
AcDbLine
 10
296.188334
 20
191.967684
 30
0.0
 11
298.309655
 21
190.746097
 31
0.0
210
0.7071067811864426
220
-0.4071957137923945
230
0.5780931159158106
  0
LINE
  5
3AC
330
70
100
AcDbEntity
  8
Hidden
100
AcDbLine
 10
295.626923
 20
190.992778
 30
0.0
 11
297.748243
 21
189.771191
 31
0.0
210
0.7071067811864426
220
-0.4071957137923945
230
0.5780931159158106
  0
LINE
  5
3AD
330
70
100
AcDbEntity
  8
Hidden
100
AcDbLine
 10
282.281913
 20
194.587622
 30
0.0
 11
284.403233
 21
193.366034
 31
0.0
210
0.7071067811864426
220
-0.4071957137923945
230
0.5780931159158106
  0
LINE
  5
3AE
330
70
100
AcDbEntity
  8
Hidden
100
AcDbLine
 10
281.720502
 20
193.612715
 30
0.0
 11
283.841822
 21
192.391128
 31
0.0
210
0.7071067811864426
220
-0.4071957137923945
230
0.5780931159158106
  0
LINE
  5
3AF
330
70
100
AcDbEntity
  8
Hidden
100
AcDbLine
 10
275.210845
 20
190.515664
 30
0.0
 11
277.332165
 21
189.294077
 31
0.0
210
0.7071067811864426
220
-0.4071957137923945
230
0.5780931159158106
  0
LINE
  5
3B0
330
70
100
AcDbEntity
  8
Hidden
100
AcDbLine
 10
274.649434
 20
189.540758
 30
0.0
 11
276.770754
 21
188.319171
 31
0.0
210
0.7071067811864426
220
-0.4071957137923945
230
0.5780931159158106
  0
LINE
  5
3B1
330
70
100
AcDbEntity
  8
Hidden
100
AcDbLine
 10
282.281913
 20
183.959509
 30
0.0
 11
284.403233
 21
182.737922
 31
0.0
210
0.7071067811864426
220
-0.4071957137923945
230
0.5780931159158106
  0
LINE
  5
3B2
330
70
100
AcDbEntity
  8
Hidden
100
AcDbLine
 10
281.720502
 20
182.984603
 30
0.0
 11
283.841822
 21
181.763015
 31
0.0
210
0.7071067811864426
220
-0.4071957137923945
230
0.5780931159158106
  0
LINE
  5
3B3
330
70
100
AcDbEntity
  8
Hidden
100
AcDbLine
 10
275.210845
 20
179.887552
 30
0.0
 11
277.332165
 21
178.665965
 31
0.0
210
0.7071067811864426
220
-0.4071957137923945
230
0.5780931159158106
  0
LINE
  5
3B4
330
70
100
AcDbEntity
  8
Hidden
100
AcDbLine
 10
274.649434
 20
178.912645
 30
0.0
 11
276.770754
 21
177.691058
 31
0.0
210
0.7071067811864426
220
-0.4071957137923945
230
0.5780931159158106
  0
LINE
  5
3B5
330
70
100
AcDbEntity
  8
Hidden
100
AcDbLine
 10
254.233356
 20
167.807419
 30
0.0
 11
256.354676
 21
166.585832
 31
0.0
210
0.7071067811864426
220
-0.4071957137923945
230
0.5780931159158106
  0
LINE
  5
3B6
330
70
100
AcDbEntity
  8
Hidden
100
AcDbLine
 10
253.671944
 20
166.832513
 30
0.0
 11
255.793265
 21
165.610926
 31
0.0
210
0.7071067811864426
220
-0.4071957137923945
230
0.5780931159158106
  0
LINE
  5
3B7
330
70
100
AcDbEntity
  8
Hidden
100
AcDbLine
 10
261.304423
 20
171.879376
 30
0.0
 11
263.425744
 21
170.657789
 31
0.0
210
0.7071067811864426
220
-0.4071957137923945
230
0.5780931159158106
  0
LINE
  5
3B8
330
70
100
AcDbEntity
  8
Hidden
100
AcDbLine
 10
260.743012
 20
170.90447
 30
0.0
 11
262.864333
 21
169.682883
 31
0.0
210
0.7071067811864426
220
-0.4071957137923945
230
0.5780931159158106
  0
LINE
  5
3B9
330
70
100
AcDbEntity
  8
Hidden
100
AcDbLine
 10
261.304423
 20
182.507489
 30
0.0
 11
263.425744
 21
181.285902
 31
0.0
210
0.7071067811864426
220
-0.4071957137923945
230
0.5780931159158106
  0
LINE
  5
3BA
330
70
100
AcDbEntity
  8
Hidden
100
AcDbLine
 10
260.743012
 20
181.532582
 30
0.0
 11
262.864333
 21
180.310995
 31
0.0
210
0.7071067811864426
220
-0.4071957137923945
230
0.5780931159158106
  0
LINE
  5
3BB
330
70
100
AcDbEntity
  8
Hidden
100
AcDbLine
 10
254.233356
 20
178.435532
 30
0.0
 11
256.354676
 21
177.213945
 31
0.0
210
0.7071067811864426
220
-0.4071957137923945
230
0.5780931159158106
  0
LINE
  5
3BC
330
70
100
AcDbEntity
  8
Hidden
100
AcDbLine
 10
253.671944
 20
177.460625
 30
0.0
 11
255.793265
 21
176.239038
 31
0.0
210
0.7071067811864426
220
-0.4071957137923945
230
0.5780931159158106
  0
LINE
  5
3BD
330
70
100
AcDbEntity
  8
Hidden
100
AcDbLine
 10
296.188334
 20
148.637687
 30
0.0
 11
298.309655
 21
147.4161
 31
0.0
210
0.7071067811864426
220
-0.4071957137923945
230
0.5780931159158106
  0
LINE
  5
3BE
330
70
100
AcDbEntity
  8
Hidden
100
AcDbLine
 10
295.626923
 20
147.66278
 30
0.0
 11
297.748243
 21
146.441193
 31
0.0
210
0.7071067811864426
220
-0.4071957137923945
230
0.5780931159158106
  0
LINE
  5
3BF
330
70
100
AcDbEntity
  8
Hidden
100
AcDbLine
 10
303.259402
 20
152.709644
 30
0.0
 11
305.380723
 21
151.488057
 31
0.0
210
0.7071067811864426
220
-0.4071957137923945
230
0.5780931159158106
  0
LINE
  5
3C0
330
70
100
AcDbEntity
  8
Hidden
100
AcDbLine
 10
302.697991
 20
151.734738
 30
0.0
 11
304.819311
 21
150.51315
 31
0.0
210
0.7071067811864426
220
-0.4071957137923945
230
0.5780931159158106
  0
LINE
  5
3C1
330
70
100
AcDbEntity
  8
Hidden
100
AcDbLine
 10
296.188334
 20
159.265799
 30
0.0
 11
298.309655
 21
158.044212
 31
0.0
210
0.7071067811864426
220
-0.4071957137923945
230
0.5780931159158106
  0
LINE
  5
3C2
330
70
100
AcDbEntity
  8
Hidden
100
AcDbLine
 10
295.626923
 20
158.290893
 30
0.0
 11
297.748243
 21
157.069306
 31
0.0
210
0.7071067811864426
220
-0.4071957137923945
230
0.5780931159158106
  0
LINE
  5
3C3
330
70
100
AcDbEntity
  8
Hidden
100
AcDbLine
 10
303.259402
 20
163.337757
 30
0.0
 11
305.380723
 21
162.116169
 31
0.0
210
0.7071067811864426
220
-0.4071957137923945
230
0.5780931159158106
  0
LINE
  5
3C4
330
70
100
AcDbEntity
  8
Hidden
100
AcDbLine
 10
302.697991
 20
162.36285
 30
0.0
 11
304.819311
 21
161.141263
 31
0.0
210
0.7071067811864426
220
-0.4071957137923945
230
0.5780931159158106
  0
LINE
  5
3C5
330
70
100
AcDbEntity
  8
Hidden
100
AcDbLine
 10
275.210845
 20
136.557554
 30
0.0
 11
277.332165
 21
135.335967
 31
0.0
210
0.7071067811864426
220
-0.4071957137923945
230
0.5780931159158106
  0
LINE
  5
3C6
330
70
100
AcDbEntity
  8
Hidden
100
AcDbLine
 10
274.649434
 20
135.582648
 30
0.0
 11
276.770754
 21
134.361061
 31
0.0
210
0.7071067811864426
220
-0.4071957137923945
230
0.5780931159158106
  0
LINE
  5
3C7
330
70
100
AcDbEntity
  8
Hidden
100
AcDbLine
 10
282.281913
 20
140.629511
 30
0.0
 11
284.403233
 21
139.407924
 31
0.0
210
0.7071067811864426
220
-0.4071957137923945
230
0.5780931159158106
  0
LINE
  5
3C8
330
70
100
AcDbEntity
  8
Hidden
100
AcDbLine
 10
281.720502
 20
139.654605
 30
0.0
 11
283.841822
 21
138.433018
 31
0.0
210
0.7071067811864426
220
-0.4071957137923945
230
0.5780931159158106
  0
LINE
  5
3C9
330
70
100
AcDbEntity
  8
Hidden
100
AcDbLine
 10
275.210845
 20
147.185667
 30
0.0
 11
277.332165
 21
145.96408
 31
0.0
210
0.7071067811864426
220
-0.4071957137923945
230
0.5780931159158106
  0
LINE
  5
3CA
330
70
100
AcDbEntity
  8
Hidden
100
AcDbLine
 10
274.649434
 20
146.21076
 30
0.0
 11
276.770754
 21
144.989173
 31
0.0
210
0.7071067811864426
220
-0.4071957137923945
230
0.5780931159158106
  0
LINE
  5
3CB
330
70
100
AcDbEntity
  8
Hidden
100
AcDbLine
 10
282.281913
 20
151.257624
 30
0.0
 11
284.403233
 21
150.036037
 31
0.0
210
0.7071067811864426
220
-0.4071957137923945
230
0.5780931159158106
  0
LINE
  5
3CC
330
70
100
AcDbEntity
  8
Hidden
100
AcDbLine
 10
281.720502
 20
150.282718
 30
0.0
 11
283.841822
 21
149.06113
 31
0.0
210
0.7071067811864426
220
-0.4071957137923945
230
0.5780931159158106
  0
LINE
  5
3CD
330
70
100
AcDbEntity
  8
Hidden
100
AcDbLine
 10
261.304423
 20
128.549379
 30
0.0
 11
263.425744
 21
127.327791
 31
0.0
210
0.7071067811864426
220
-0.4071957137923945
230
0.5780931159158106
  0
LINE
  5
3CE
330
70
100
AcDbEntity
  8
Hidden
100
AcDbLine
 10
260.743012
 20
127.574472
 30
0.0
 11
262.864333
 21
126.352885
 31
0.0
210
0.7071067811864426
220
-0.4071957137923945
230
0.5780931159158106
  0
LINE
  5
3CF
330
70
100
AcDbEntity
  8
Hidden
100
AcDbLine
 10
254.233356
 20
124.477421
 30
0.0
 11
256.354676
 21
123.255834
 31
0.0
210
0.7071067811864426
220
-0.4071957137923945
230
0.5780931159158106
  0
LINE
  5
3D0
330
70
100
AcDbEntity
  8
Hidden
100
AcDbLine
 10
253.671944
 20
123.502515
 30
0.0
 11
255.793265
 21
122.280928
 31
0.0
210
0.7071067811864426
220
-0.4071957137923945
230
0.5780931159158106
  0
LINE
  5
3D1
330
70
100
AcDbEntity
  8
Hidden
100
AcDbLine
 10
261.304423
 20
139.177491
 30
0.0
 11
263.425744
 21
137.955904
 31
0.0
210
0.7071067811864426
220
-0.4071957137923945
230
0.5780931159158106
  0
LINE
  5
3D2
330
70
100
AcDbEntity
  8
Hidden
100
AcDbLine
 10
260.743012
 20
138.202585
 30
0.0
 11
262.864333
 21
136.980998
 31
0.0
210
0.7071067811864426
220
-0.4071957137923945
230
0.5780931159158106
  0
LINE
  5
3D3
330
70
100
AcDbEntity
  8
Hidden
100
AcDbLine
 10
254.233356
 20
135.105534
 30
0.0
 11
256.354676
 21
133.883947
 31
0.0
210
0.7071067811864426
220
-0.4071957137923945
230
0.5780931159158106
  0
LINE
  5
3D4
330
70
100
AcDbEntity
  8
Hidden
100
AcDbLine
 10
253.671944
 20
134.130628
 30
0.0
 11
255.793265
 21
132.909041
 31
0.0
210
0.7071067811864426
220
-0.4071957137923945
230
0.5780931159158106
  0
LINE
  5
3D5
330
70
100
AcDbEntity
  8
Hidden
100
AcDbLine
 10
246.344243
 20
162.38725
 30
0.0
 11
248.465563
 21
161.165662
 31
0.0
210
0.7071067811864426
220
-0.4071957137923945
230
0.5780931159158106
  0
LINE
  5
3D6
330
70
100
AcDbEntity
  8
Hidden
100
AcDbLine
 10
245.533315
 20
160.979052
 30
0.0
 11
247.654636
 21
159.757464
 31
0.0
210
0.7071067811864426
220
-0.4071957137923945
230
0.5780931159158106
  0
LINE
  5
3D7
330
70
100
AcDbEntity
  8
Hidden
100
AcDbLine
 10
311.398067
 20
184.520247
 30
0.0
 11
313.519387
 21
183.29866
 31
0.0
210
0.7071067811864426
220
-0.4071957137923945
230
0.5780931159158106
  0
LINE
  5
3D8
330
70
100
AcDbEntity
  8
Hidden
100
AcDbLine
 10
310.587139
 20
183.112049
 30
0.0
 11
312.70846
 21
181.890461
 31
0.0
210
0.7071067811864426
220
-0.4071957137923945
230
0.5780931159158106
  0
LINE
  5
3D9
330
70
100
AcDbEntity
  8
Hidden
100
AcDbLine
 10
246.344243
 20
147.058241
 30
0.0
 11
248.465563
 21
145.836654
 31
0.0
210
0.7071067811864426
220
-0.4071957137923945
230
0.5780931159158106
  0
LINE
  5
3DA
330
70
100
AcDbEntity
  8
Hidden
100
AcDbLine
 10
245.533315
 20
145.650043
 30
0.0
 11
247.654636
 21
144.428456
 31
0.0
210
0.7071067811864426
220
-0.4071957137923945
230
0.5780931159158106
  0
LINE
  5
3DB
330
70
100
AcDbEntity
  8
Hidden
100
AcDbLine
 10
311.398067
 20
169.191238
 30
0.0
 11
313.519387
 21
167.969651
 31
0.0
210
0.7071067811864426
220
-0.4071957137923945
230
0.5780931159158106
  0
LINE
  5
3DC
330
70
100
AcDbEntity
  8
Hidden
100
AcDbLine
 10
310.587139
 20
167.78304
 30
0.0
 11
312.70846
 21
166.561453
 31
0.0
210
0.7071067811864426
220
-0.4071957137923945
230
0.5780931159158106
  0
LINE
  5
3DD
330
70
100
AcDbEntity
  8
Hidden
100
AcDbLine
 10
311.398067
 20
199.849255
 30
0.0
 11
313.519387
 21
198.627668
 31
0.0
210
0.7071067811864426
220
-0.4071957137923945
230
0.5780931159158106
  0
LINE
  5
3DE
330
70
100
AcDbEntity
  8
Hidden
100
AcDbLine
 10
310.587139
 20
198.441057
 30
0.0
 11
312.70846
 21
197.21947
 31
0.0
210
0.7071067811864426
220
-0.4071957137923945
230
0.5780931159158106
  0
LINE
  5
3DF
330
70
100
AcDbEntity
  8
Hidden
100
AcDbLine
 10
246.344243
 20
131.729232
 30
0.0
 11
248.465563
 21
130.507645
 31
0.0
210
0.7071067811864426
220
-0.4071957137923945
230
0.5780931159158106
  0
LINE
  5
3E0
330
70
100
AcDbEntity
  8
Hidden
100
AcDbLine
 10
245.533315
 20
130.321034
 30
0.0
 11
247.654636
 21
129.099447
 31
0.0
210
0.7071067811864426
220
-0.4071957137923945
230
0.5780931159158106
  0
LINE
  5
3E1
330
70
100
AcDbEntity
  8
Visible
100
AcDbLine
 10
48.083856
 20
128.875581
 30
0.0
 11
48.083856
 21
125.875581
 31
0.0
210
-0.0000000000000001
220
-1.0
230
0.0000000000002966
  0
LINE
  5
3E2
330
70
100
AcDbEntity
  8
Visible
100
AcDbLine
 10
143.083856
 20
128.875581
 30
0.0
 11
48.083856
 21
128.875581
 31
0.0
210
-0.0000000000000001
220
-1.0
230
0.0000000000002966
  0
LINE
  5
3E3
330
70
100
AcDbEntity
  8
Visible
100
AcDbLine
 10
143.083856
 20
125.875581
 30
0.0
 11
48.083856
 21
125.875581
 31
0.0
210
-0.0000000000000001
220
-1.0
230
0.0000000000002966
  0
LINE
  5
3E4
330
70
100
AcDbEntity
  8
Visible
100
AcDbLine
 10
143.083856
 20
128.875581
 30
0.0
 11
143.083856
 21
125.875581
 31
0.0
210
-0.0000000000000001
220
-1.0
230
0.0000000000002966
  0
LINE
  5
3E5
330
70
100
AcDbEntity
  8
Hidden
100
AcDbLine
 10
138.592856
 20
128.875581
 30
0.0
 11
138.592856
 21
125.875581
 31
0.0
210
-0.0000000000000001
220
-1.0
230
0.0000000000002966
  0
LINE
  5
3E6
330
70
100
AcDbEntity
  8
Hidden
100
AcDbLine
 10
136.967856
 20
128.875581
 30
0.0
 11
136.967856
 21
125.875581
 31
0.0
210
-0.0000000000000001
220
-1.0
230
0.0000000000002966
  0
LINE
  5
3E7
330
70
100
AcDbEntity
  8
Hidden
100
AcDbLine
 10
111.217356
 20
128.875581
 30
0.0
 11
111.217356
 21
125.875581
 31
0.0
210
-0.0000000000000001
220
-1.0
230
0.0000000000002966
  0
LINE
  5
3E8
330
70
100
AcDbEntity
  8
Hidden
100
AcDbLine
 10
109.592356
 20
128.875581
 30
0.0
 11
109.592356
 21
125.875581
 31
0.0
210
-0.0000000000000001
220
-1.0
230
0.0000000000002966
  0
LINE
  5
3E9
330
70
100
AcDbEntity
  8
Hidden
100
AcDbLine
 10
81.575856
 20
128.875581
 30
0.0
 11
81.575856
 21
125.875581
 31
0.0
210
-0.0000000000000001
220
-1.0
230
0.0000000000002966
  0
LINE
  5
3EA
330
70
100
AcDbEntity
  8
Hidden
100
AcDbLine
 10
79.950856
 20
128.875581
 30
0.0
 11
79.950856
 21
125.875581
 31
0.0
210
-0.0000000000000001
220
-1.0
230
0.0000000000002966
  0
LINE
  5
3EB
330
70
100
AcDbEntity
  8
Hidden
100
AcDbLine
 10
54.200856
 20
128.875581
 30
0.0
 11
54.200856
 21
125.875581
 31
0.0
210
-0.0000000000000001
220
-1.0
230
0.0000000000002966
  0
LINE
  5
3EC
330
70
100
AcDbEntity
  8
Hidden
100
AcDbLine
 10
52.575856
 20
128.875581
 30
0.0
 11
52.575856
 21
125.875581
 31
0.0
210
-0.0000000000000001
220
-1.0
230
0.0000000000002966
  0
LINE
  5
3ED
330
70
100
AcDbEntity
  8
Hidden
100
AcDbLine
 10
130.812981
 20
128.875581
 30
0.0
 11
130.812981
 21
125.875581
 31
0.0
210
-0.0000000000000001
220
-1.0
230
0.0000000000002966
  0
LINE
  5
3EE
330
70
100
AcDbEntity
  8
Hidden
100
AcDbLine
 10
129.687981
 20
128.875581
 30
0.0
 11
129.687981
 21
125.875581
 31
0.0
210
-0.0000000000000001
220
-1.0
230
0.0000000000002966
  0
LINE
  5
3EF
330
70
100
AcDbEntity
  8
Hidden
100
AcDbLine
 10
120.812981
 20
128.875581
 30
0.0
 11
120.812981
 21
125.875581
 31
0.0
210
-0.0000000000000001
220
-1.0
230
0.0000000000002966
  0
LINE
  5
3F0
330
70
100
AcDbEntity
  8
Hidden
100
AcDbLine
 10
119.687981
 20
128.875581
 30
0.0
 11
119.687981
 21
125.875581
 31
0.0
210
-0.0000000000000001
220
-1.0
230
0.0000000000002966
  0
LINE
  5
3F1
330
70
100
AcDbEntity
  8
Hidden
100
AcDbLine
 10
101.146331
 20
128.875581
 30
0.0
 11
101.146331
 21
125.875581
 31
0.0
210
-0.0000000000000001
220
-1.0
230
0.0000000000002966
  0
LINE
  5
3F2
330
70
100
AcDbEntity
  8
Hidden
100
AcDbLine
 10
100.021331
 20
128.875581
 30
0.0
 11
100.021331
 21
125.875581
 31
0.0
210
-0.0000000000000001
220
-1.0
230
0.0000000000002966
  0
LINE
  5
3F3
330
70
100
AcDbEntity
  8
Hidden
100
AcDbLine
 10
91.146331
 20
128.875581
 30
0.0
 11
91.146331
 21
125.875581
 31
0.0
210
-0.0000000000000001
220
-1.0
230
0.0000000000002966
  0
LINE
  5
3F4
330
70
100
AcDbEntity
  8
Hidden
100
AcDbLine
 10
90.021331
 20
128.875581
 30
0.0
 11
90.021331
 21
125.875581
 31
0.0
210
-0.0000000000000001
220
-1.0
230
0.0000000000002966
  0
LINE
  5
3F5
330
70
100
AcDbEntity
  8
Hidden
100
AcDbLine
 10
71.479681
 20
128.875581
 30
0.0
 11
71.479681
 21
125.875581
 31
0.0
210
-0.0000000000000001
220
-1.0
230
0.0000000000002966
  0
LINE
  5
3F6
330
70
100
AcDbEntity
  8
Hidden
100
AcDbLine
 10
70.354681
 20
128.875581
 30
0.0
 11
70.354681
 21
125.875581
 31
0.0
210
-0.0000000000000001
220
-1.0
230
0.0000000000002966
  0
LINE
  5
3F7
330
70
100
AcDbEntity
  8
Hidden
100
AcDbLine
 10
61.479681
 20
128.875581
 30
0.0
 11
61.479681
 21
125.875581
 31
0.0
210
-0.0000000000000001
220
-1.0
230
0.0000000000002966
  0
LINE
  5
3F8
330
70
100
AcDbEntity
  8
Hidden
100
AcDbLine
 10
60.354681
 20
128.875581
 30
0.0
 11
60.354681
 21
125.875581
 31
0.0
210
-0.0000000000000001
220
-1.0
230
0.0000000000002966
  0
LINE
  5
3F9
330
70
100
AcDbEntity
  8
Hidden
100
AcDbLine
 10
50.396356
 20
128.875581
 30
0.0
 11
50.396356
 21
125.875581
 31
0.0
210
-0.0000000000000001
220
-1.0
230
0.0000000000002966
  0
LINE
  5
3FA
330
70
100
AcDbEntity
  8
Hidden
100
AcDbLine
 10
48.771356
 20
128.875581
 30
0.0
 11
48.771356
 21
125.875581
 31
0.0
210
-0.0000000000000001
220
-1.0
230
0.0000000000002966
  0
LINE
  5
3FB
330
70
100
AcDbEntity
  8
Hidden
100
AcDbLine
 10
142.396356
 20
128.875581
 30
0.0
 11
142.396356
 21
125.875581
 31
0.0
210
-0.0000000000000001
220
-1.0
230
0.0000000000002966
  0
LINE
  5
3FC
330
70
100
AcDbEntity
  8
Hidden
100
AcDbLine
 10
140.771356
 20
128.875581
 30
0.0
 11
140.771356
 21
125.875581
 31
0.0
210
-0.0000000000000001
220
-1.0
230
0.0000000000002966
  0
ENDSEC
  0
SECTION
  2
OBJECTS
  0
DICTIONARY
  5
C
330
0
100
AcDbDictionary
281
     1
  3
ACAD_COLOR
350
63
  3
ACAD_DETAILVIEWSTYLE
350
6A
  3
ACAD_GROUP
350
D
  3
ACAD_LAYOUT
350
62
  3
ACAD_MATERIAL
350
10
  3
ACAD_MLEADERSTYLE
350
66
  3
ACAD_MLINESTYLE
350
5F
  3
ACAD_PLOTSETTINGS
350
61
  3
ACAD_PLOTSTYLENAME
350
E
  3
ACAD_SCALELIST
350
42
  3
ACAD_SECTIONVIEWSTYLE
350
68
  3
ACAD_TABLESTYLE
350
64
  3
ACAD_VISUALSTYLE
350
29
  3
ACDB_RECOMPOSE_DATA
350
440
  3
AcDbVariableDictionary
350
437
  0
DICTIONARY
  5
AA
330
70
100
AcDbDictionary
280
     1
281
     1
  3
ACAD_SORTENTS
360
AB
  0
DICTIONARY
  5
1C5
330
1C4
100
AcDbDictionary
280
     1
281
     1
  0
DICTIONARY
  5
20B
330
20A
100
AcDbDictionary
280
     1
281
     1
  3
ACAD_SORTENTS
360
2FC
  0
DICTIONARY
  5
226
330
225
100
AcDbDictionary
280
     1
281
     1
  0
DICTIONARY
  5
228
330
227
100
AcDbDictionary
280
     1
281
     1
  0
DICTIONARY
  5
22A
330
229
100
AcDbDictionary
280
     1
281
     1
  0
DICTIONARY
  5
22C
330
22B
100
AcDbDictionary
280
     1
281
     1
  0
DICTIONARY
  5
22E
330
22D
100
AcDbDictionary
280
     1
281
     1
  0
DICTIONARY
  5
230
330
22F
100
AcDbDictionary
280
     1
281
     1
  0
DICTIONARY
  5
232
330
231
100
AcDbDictionary
280
     1
281
     1
  0
DICTIONARY
  5
234
330
233
100
AcDbDictionary
280
     1
281
     1
  0
DICTIONARY
  5
236
330
235
100
AcDbDictionary
280
     1
281
     1
  0
DICTIONARY
  5
238
330
237
100
AcDbDictionary
280
     1
281
     1
  0
DICTIONARY
  5
23A
330
239
100
AcDbDictionary
280
     1
281
     1
  0
DICTIONARY
  5
23C
330
23B
100
AcDbDictionary
280
     1
281
     1
  0
DICTIONARY
  5
23E
330
23D
100
AcDbDictionary
280
     1
281
     1
  0
DICTIONARY
  5
240
330
23F
100
AcDbDictionary
280
     1
281
     1
  0
DICTIONARY
  5
242
330
241
100
AcDbDictionary
280
     1
281
     1
  0
DICTIONARY
  5
63
102
{ACAD_REACTORS
330
C
102
}
330
C
100
AcDbDictionary
281
     1
  0
DICTIONARY
  5
6A
102
{ACAD_REACTORS
330
C
102
}
330
C
100
AcDbDictionary
281
     1
  3
Imperial24
350
6B
  0
DICTIONARY
  5
D
102
{ACAD_REACTORS
330
C
102
}
330
C
100
AcDbDictionary
281
     1
  0
DICTIONARY
  5
62
102
{ACAD_REACTORS
330
C
102
}
330
C
100
AcDbDictionary
281
     1
  3
Folha1
350
6F
  3
Folha2
350
77
  3
Model
350
73
  0
DICTIONARY
  5
10
102
{ACAD_REACTORS
330
C
102
}
330
C
100
AcDbDictionary
281
     1
  3
ByBlock
350
19
  3
ByLayer
350
11
  3
Global
350
21
  0
DICTIONARY
  5
66
102
{ACAD_REACTORS
330
C
102
}
330
C
100
AcDbDictionary
281
     1
  3
Standard
350
67
  0
DICTIONARY
  5
5F
102
{ACAD_REACTORS
330
C
102
}
330
C
100
AcDbDictionary
281
     1
  3
Standard
350
60
  0
DICTIONARY
  5
61
102
{ACAD_REACTORS
330
C
102
}
330
C
100
AcDbDictionary
281
     1
  0
ACDBDICTIONARYWDFLT
  5
E
102
{ACAD_REACTORS
330
C
102
}
330
C
100
AcDbDictionary
281
     1
  3
Normal
350
F
100
AcDbDictionaryWithDefault
340
F
  0
DICTIONARY
  5
42
102
{ACAD_REACTORS
330
C
102
}
330
C
100
AcDbDictionary
281
     1
  3
A0
350
43
  3
A1
350
44
  3
A2
350
45
  3
A3
350
46
  3
A4
350
47
  3
A5
350
48
  3
A6
350
49
  3
A7
350
4A
  3
A8
350
4B
  3
A9
350
4C
  3
B0
350
4D
  3
B1
350
4E
  3
B2
350
4F
  3
B3
350
50
  3
B4
350
51
  3
B5
350
52
  3
B6
350
53
  0
DICTIONARY
  5
68
102
{ACAD_REACTORS
330
C
102
}
330
C
100
AcDbDictionary
281
     1
  3
Imperial24
350
69
  0
DICTIONARY
  5
64
102
{ACAD_REACTORS
330
C
102
}
330
C
100
AcDbDictionary
281
     1
  3
Standard
350
65
  0
DICTIONARY
  5
29
102
{ACAD_REACTORS
330
C
102
}
330
C
100
AcDbDictionary
281
     1
  3
2dWireframe
350
2F
  3
Basic
350
2E
  3
Brighten
350
35
  3
ColorChange
350
39
  3
Conceptual
350
32
  3
Dim
350
34
  3
EdgeColorOff
350
41
  3
Facepattern
350
38
  3
Flat
350
2A
  3
FlatWithEdges
350
2B
  3
Gouraud
350
2C
  3
GouraudWithEdges
350
2D
  3
Hidden
350
31
  3
JitterOff
350
3F
  3
Linepattern
350
37
  3
OverhangOff
350
40
  3
Realistic
350
33
  3
Shaded
350
3E
  3
Shaded with edges
350
3D
  3
Shades of Gray
350
3A
  3
Sketchy
350
3B
  3
Thicken
350
36
  3
Wireframe
350
30
  3
X-Ray
350
3C
  0
XRECORD
  5
440
102
{ACAD_REACTORS
330
C
102
}
330
C
100
AcDbXrecord
280
     1
 90
        1
330
65
  0
DICTIONARY
  5
437
102
{ACAD_REACTORS
330
C
102
}
330
C
100
AcDbDictionary
281
     1
  3
ANNOALLVISIBLE
350
43C
  3
CANNOSCALE
350
43D
  3
CMLEADERSTYLE
350
439
  3
CTABLESTYLE
350
438
  3
CVIEWDETAILSTYLE
350
43A
  3
CVIEWSECTIONSTYLE
350
43B
  0
SORTENTSTABLE
  5
AB
102
{ACAD_REACTORS
330
AA
102
}
330
AA
100
AcDbSortentsTable
330
70
  0
SORTENTSTABLE
  5
2FC
102
{ACAD_REACTORS
330
20B
102
}
330
20B
100
AcDbSortentsTable
330
20A
  0
ACDBDETAILVIEWSTYLE
  5
6B
102
{ACAD_XDICTIONARY
360
443
102
}
102
{ACAD_REACTORS
330
6A
102
}
330
6A
100
AcDbModelDocViewStyle
 70
     0
  3
Imperial24
290
     0
100
AcDbDetailViewStyle
 70
     0
 71
     0
 90
        3
 71
     1
340
55
 62
   256
 40
0.24
340
0
 62
   256
 40
0.24
300

 40
0.36
280
     3
 71
     2
340
5D
 90
       25
 62
   256
 71
     3
340
55
 62
   256
 40
0.24
 90
        1
 40
0.75
 90
        1
300
%<\AcVar ViewType \f "%tc1">% %<\AcVar ViewDetailId>%\PESCALA %<\AcVar ViewScale \f "%sn">%
 71
     4
340
5D
 90
       25
 62
   256
340
5D
 90
       25
 62
   256
280
     0
  0
LAYOUT
  5
6F
102
{ACAD_REACTORS
330
62
102
}
330
62
100
AcDbPlotSettings
  1

  2
None
  4

  6

 40
0.0
 41
0.0
 42
0.0
 43
0.0
 44
0.0
 45
0.0
 46
0.0
 47
0.0
 48
0.0
 49
0.0
140
0.0
141
0.0
142
1.0
143
1.0
 70
   688
 72
     0
 73
     0
 74
     5
  7

 75
    16
147
1.0
 76
     0
 77
     2
 78
   300
148
0.0
149
0.0
100
AcDbLayout
  1
Folha1
 70
     1
 71
     1
 10
0.0
 20
0.0
 11
12.0
 21
9.0
 12
0.0
 22
0.0
 32
0.0
 14
0.0
 24
0.0
 34
0.0
 15
0.0
 25
0.0
 35
0.0
146
0.0
 13
0.0
 23
0.0
 33
0.0
 16
1.0
 26
0.0
 36
0.0
 17
0.0
 27
1.0
 37
0.0
 76
     0
330
6C
  0
LAYOUT
  5
77
102
{ACAD_REACTORS
330
62
102
}
330
62
100
AcDbPlotSettings
  1

  2
None
  4

  6

 40
0.0
 41
0.0
 42
0.0
 43
0.0
 44
0.0
 45
0.0
 46
0.0
 47
0.0
 48
0.0
 49
0.0
140
0.0
141
0.0
142
1.0
143
1.0
 70
   688
 72
     0
 73
     0
 74
     5
  7

 75
    16
147
1.0
 76
     0
 77
     2
 78
   300
148
0.0
149
0.0
100
AcDbLayout
  1
Folha2
 70
     1
 71
     2
 10
0.0
 20
0.0
 11
12.0
 21
9.0
 12
0.0
 22
0.0
 32
0.0
 14
0.0
 24
0.0
 34
0.0
 15
0.0
 25
0.0
 35
0.0
146
0.0
 13
0.0
 23
0.0
 33
0.0
 16
1.0
 26
0.0
 36
0.0
 17
0.0
 27
1.0
 37
0.0
 76
     0
330
74
  0
LAYOUT
  5
73
102
{ACAD_REACTORS
330
62
102
}
330
62
100
AcDbPlotSettings
  1

  2
AutoCAD PDF (High Quality Print).pc3
  4
ISO_full_bleed_A3_(420.00_x_297.00_MM)
  6

 40
0.0
 41
0.0
 42
0.0
 43
0.0
 44
420.0
 45
297.0
 46
0.0
 47
0.0
 48
0.0
 49
0.0
140
0.0
141
0.0
142
1.0
143
1.763955
 70
 11952
 72
     1
 73
     0
 74
     0
  7

 75
     0
147
0.566908
 76
     0
 77
     2
 78
   300
148
160.000617
149
0.512613
100
AcDbLayout
  1
Model
 70
     1
 71
     0
 10
0.0
 20
0.0
 11
12.0
 21
9.0
 12
0.0
 22
0.0
 32
0.0
 14
0.0
 24
0.0
 34
0.0
 15
0.0
 25
0.0
 35
0.0
146
0.0
 13
0.0
 23
0.0
 33
0.0
 16
1.0
 26
0.0
 36
0.0
 17
0.0
 27
1.0
 37
0.0
 76
     0
330
70
1001
ACAD_PSEXT
1000
AutoCAD PDF (High Quality Print).pc3
1000
DWG To PDF
1000
Arquivo
1000

1070
     0
  0
MATERIAL
  5
19
102
{ACAD_XDICTIONARY
360
1A
102
}
102
{ACAD_REACTORS
330
10
102
}
330
10
100
AcDbMaterial
  1
ByBlock
 72
     0
 43
0.020833
 43
0.0
 43
0.0
 43
0.0
 43
0.0
 43
0.020833
 43
0.0
 43
0.0
 43
0.0
 43
0.0
 43
1.0
 43
0.0
 43
0.0
 43
0.0
 43
0.0
 43
1.0
 77
     0
 47
0.020833
 47
0.0
 47
0.0
 47
0.0
 47
0.0
 47
0.020833
 47
0.0
 47
0.0
 47
0.0
 47
0.0
 47
1.0
 47
0.0
 47
0.0
 47
0.0
 47
0.0
 47
1.0
171
     0
 49
0.020833
 49
0.0
 49
0.0
 49
0.0
 49
0.0
 49
0.020833
 49
0.0
 49
0.0
 49
0.0
 49
0.0
 49
1.0
 49
0.0
 49
0.0
 49
0.0
 49
0.0
 49
1.0
175
     0
142
0.020833
142
0.0
142
0.0
142
0.0
142
0.0
142
0.020833
142
0.0
142
0.0
142
0.0
142
0.0
142
1.0
142
0.0
142
0.0
142
0.0
142
0.0
142
1.0
179
     0
144
0.020833
144
0.0
144
0.0
144
0.0
144
0.0
144
0.020833
144
0.0
144
0.0
144
0.0
144
0.0
144
1.0
144
0.0
144
0.0
144
0.0
144
0.0
144
1.0
147
0.020833
147
0.0
147
0.0
147
0.0
147
0.0
147
0.020833
147
0.0
147
0.0
147
0.0
147
0.0
147
1.0
147
0.0
147
0.0
147
0.0
147
0.0
147
1.0
  0
MATERIAL
  5
11
102
{ACAD_XDICTIONARY
360
12
102
}
102
{ACAD_REACTORS
330
10
102
}
330
10
100
AcDbMaterial
  1
ByLayer
 72
     0
 43
0.020833
 43
0.0
 43
0.0
 43
0.0
 43
0.0
 43
0.020833
 43
0.0
 43
0.0
 43
0.0
 43
0.0
 43
1.0
 43
0.0
 43
0.0
 43
0.0
 43
0.0
 43
1.0
 77
     0
 47
0.020833
 47
0.0
 47
0.0
 47
0.0
 47
0.0
 47
0.020833
 47
0.0
 47
0.0
 47
0.0
 47
0.0
 47
1.0
 47
0.0
 47
0.0
 47
0.0
 47
0.0
 47
1.0
171
     0
 49
0.020833
 49
0.0
 49
0.0
 49
0.0
 49
0.0
 49
0.020833
 49
0.0
 49
0.0
 49
0.0
 49
0.0
 49
1.0
 49
0.0
 49
0.0
 49
0.0
 49
0.0
 49
1.0
175
     0
142
0.020833
142
0.0
142
0.0
142
0.0
142
0.0
142
0.020833
142
0.0
142
0.0
142
0.0
142
0.0
142
1.0
142
0.0
142
0.0
142
0.0
142
0.0
142
1.0
179
     0
144
0.020833
144
0.0
144
0.0
144
0.0
144
0.0
144
0.020833
144
0.0
144
0.0
144
0.0
144
0.0
144
1.0
144
0.0
144
0.0
144
0.0
144
0.0
144
1.0
147
0.020833
147
0.0
147
0.0
147
0.0
147
0.0
147
0.020833
147
0.0
147
0.0
147
0.0
147
0.0
147
1.0
147
0.0
147
0.0
147
0.0
147
0.0
147
1.0
  0
MATERIAL
  5
21
102
{ACAD_XDICTIONARY
360
22
102
}
102
{ACAD_REACTORS
330
10
102
}
330
10
100
AcDbMaterial
  1
Global
 72
     0
 43
0.020833
 43
0.0
 43
0.0
 43
0.0
 43
0.0
 43
0.020833
 43
0.0
 43
0.0
 43
0.0
 43
0.0
 43
1.0
 43
0.0
 43
0.0
 43
0.0
 43
0.0
 43
1.0
 77
     0
 47
0.020833
 47
0.0
 47
0.0
 47
0.0
 47
0.0
 47
0.020833
 47
0.0
 47
0.0
 47
0.0
 47
0.0
 47
1.0
 47
0.0
 47
0.0
 47
0.0
 47
0.0
 47
1.0
171
     0
 49
0.020833
 49
0.0
 49
0.0
 49
0.0
 49
0.0
 49
0.020833
 49
0.0
 49
0.0
 49
0.0
 49
0.0
 49
1.0
 49
0.0
 49
0.0
 49
0.0
 49
0.0
 49
1.0
175
     0
142
0.020833
142
0.0
142
0.0
142
0.0
142
0.0
142
0.020833
142
0.0
142
0.0
142
0.0
142
0.0
142
1.0
142
0.0
142
0.0
142
0.0
142
0.0
142
1.0
179
     0
144
0.020833
144
0.0
144
0.0
144
0.0
144
0.0
144
0.020833
144
0.0
144
0.0
144
0.0
144
0.0
144
1.0
144
0.0
144
0.0
144
0.0
144
0.0
144
1.0
147
0.020833
147
0.0
147
0.0
147
0.0
147
0.0
147
0.020833
147
0.0
147
0.0
147
0.0
147
0.0
147
1.0
147
0.0
147
0.0
147
0.0
147
0.0
147
1.0
  0
MLEADERSTYLE
  5
67
102
{ACAD_REACTORS
330
66
102
}
330
66
100
AcDbMLeaderStyle
179
     2
170
     2
171
     1
172
     0
 90
        2
 40
0.0
 41
0.0
173
     1
 91
-1056964608
340
5B
 92
       -2
290
     1
 42
0.09
291
     1
 43
0.36
  3
Standard
 44
0.18
300

342
55
174
     1
178
     6
175
     1
176
     0
 93
-1056964608
 45
0.18
292
     0
297
     0
 46
0.18
 94
-1056964608
 47
1.0
 49
1.0
140
1.0
293
     1
141
0.0
294
     1
177
     0
142
1.0
295
     0
296
     0
143
0.125
271
     0
272
     9
273
     9
298
     1
  0
MLINESTYLE
  5
60
102
{ACAD_REACTORS
330
5F
102
}
330
5F
100
AcDbMlineStyle
  2
STANDARD
 70
     0
  3

 62
   256
 51
90.0
 52
90.0
 71
     0
  0
ACDBPLACEHOLDER
  5
F
102
{ACAD_REACTORS
330
E
102
}
330
E
  0
SCALE
  5
43
102
{ACAD_REACTORS
330
42
102
}
330
42
100
AcDbScale
 70
     0
300
1:1
140
1.0
141
1.0
290
     1
  0
SCALE
  5
44
102
{ACAD_REACTORS
330
42
102
}
330
42
100
AcDbScale
 70
     0
300
1:2
140
1.0
141
2.0
290
     0
  0
SCALE
  5
45
102
{ACAD_REACTORS
330
42
102
}
330
42
100
AcDbScale
 70
     0
300
1:4
140
1.0
141
4.0
290
     0
  0
SCALE
  5
46
102
{ACAD_REACTORS
330
42
102
}
330
42
100
AcDbScale
 70
     0
300
1:5
140
1.0
141
5.0
290
     0
  0
SCALE
  5
47
102
{ACAD_REACTORS
330
42
102
}
330
42
100
AcDbScale
 70
     0
300
1:8
140
1.0
141
8.0
290
     0
  0
SCALE
  5
48
102
{ACAD_REACTORS
330
42
102
}
330
42
100
AcDbScale
 70
     0
300
1:10
140
1.0
141
10.0
290
     0
  0
SCALE
  5
49
102
{ACAD_REACTORS
330
42
102
}
330
42
100
AcDbScale
 70
     0
300
1:16
140
1.0
141
16.0
290
     0
  0
SCALE
  5
4A
102
{ACAD_REACTORS
330
42
102
}
330
42
100
AcDbScale
 70
     0
300
1:20
140
1.0
141
20.0
290
     0
  0
SCALE
  5
4B
102
{ACAD_REACTORS
330
42
102
}
330
42
100
AcDbScale
 70
     0
300
1:30
140
1.0
141
30.0
290
     0
  0
SCALE
  5
4C
102
{ACAD_REACTORS
330
42
102
}
330
42
100
AcDbScale
 70
     0
300
1:40
140
1.0
141
40.0
290
     0
  0
SCALE
  5
4D
102
{ACAD_REACTORS
330
42
102
}
330
42
100
AcDbScale
 70
     0
300
1:50
140
1.0
141
50.0
290
     0
  0
SCALE
  5
4E
102
{ACAD_REACTORS
330
42
102
}
330
42
100
AcDbScale
 70
     0
300
1:100
140
1.0
141
100.0
290
     0
  0
SCALE
  5
4F
102
{ACAD_REACTORS
330
42
102
}
330
42
100
AcDbScale
 70
     0
300
2:1
140
2.0
141
1.0
290
     0
  0
SCALE
  5
50
102
{ACAD_REACTORS
330
42
102
}
330
42
100
AcDbScale
 70
     0
300
4:1
140
4.0
141
1.0
290
     0
  0
SCALE
  5
51
102
{ACAD_REACTORS
330
42
102
}
330
42
100
AcDbScale
 70
     0
300
8:1
140
8.0
141
1.0
290
     0
  0
SCALE
  5
52
102
{ACAD_REACTORS
330
42
102
}
330
42
100
AcDbScale
 70
     0
300
10:1
140
10.0
141
1.0
290
     0
  0
SCALE
  5
53
102
{ACAD_REACTORS
330
42
102
}
330
42
100
AcDbScale
 70
     0
300
100:1
140
100.0
141
1.0
290
     0
  0
ACDBSECTIONVIEWSTYLE
  5
69
102
{ACAD_XDICTIONARY
360
441
102
}
102
{ACAD_REACTORS
330
68
102
}
330
68
100
AcDbModelDocViewStyle
 70
     0
  3
Imperial24
290
     0
100
AcDbSectionViewStyle
 70
     0
 71
     0
 90
       78
 71
     1
340
55
 62
   256
 40
0.24
340
0
340
0
 62
   256
 40
0.24
300
I, O, Q, S, X, Z
 40
0.48
 90
        3
 40
0.18
 90
        1
 71
     2
340
5D
 90
       25
 62
   256
340
5D
 90
       50
 62
   256
 40
0.24
 40
0.0
 40
0.24
 71
     3
340
55
 62
   256
 40
0.24
 90
        1
 40
0.75
 90
        1
300
%<\AcVar ViewType \f "%tc1">% %<\AcVar ViewSectionStartId>%-%<\AcVar ViewSectionEndId>%\PESCALA %<\AcVar ViewScale \f "%sn">%
 71
     4
 62
   256
 62
   257
300
ANSI31
 40
1.0
 90
        0
290
     0
290
     0
 90
        6
 40
0.0
 40
1.570796
 40
0.261799
 40
1.308997
 40
-0.261799
 40
1.832596
  0
TABLESTYLE
  5
65
102
{ACAD_XDICTIONARY
360
43E
102
}
102
{ACAD_REACTORS
330
64
102
}
330
64
100
AcDbTableStyle
280
     0
  3
Standard
 70
     0
 71
     0
 40
1.5
 41
1.5
280
     0
281
     0
  7
Standard
140
0.18
170
     2
 62
     0
 63
     7
283
     0
 90
      512
 91
        0
  1

274
    -2
284
     1
 64
     0
275
    -2
285
     1
 65
     0
276
    -2
286
     1
 66
     0
277
    -2
287
     1
 67
     0
278
    -2
288
     1
 68
     0
279
    -2
289
     1
 69
     0
  7
Standard
140
0.25
170
     5
 62
     0
 63
     7
283
     0
 90
      512
 91
        0
  1

274
    -2
284
     1
 64
     0
275
    -2
285
     1
 65
     0
276
    -2
286
     1
 66
     0
277
    -2
287
     1
 67
     0
278
    -2
288
     1
 68
     0
279
    -2
289
     1
 69
     0
  7
Standard
140
0.18
170
     5
 62
     0
 63
     7
283
     0
 90
      512
 91
        0
  1

274
    -2
284
     1
 64
     0
275
    -2
285
     1
 65
     0
276
    -2
286
     1
 66
     0
277
    -2
287
     1
 67
     0
278
    -2
288
     1
 68
     0
279
    -2
289
     1
 69
     0
  0
VISUALSTYLE
  5
2F
102
{ACAD_REACTORS
330
29
102
}
330
29
100
AcDbVisualStyle
  2
2dWireframe
 70
     4
177
     3
291
     0
 70
    58
 90
        0
176
     1
 90
        2
176
     1
 90
        0
176
     1
 90
        0
176
     1
 40
0.6
176
     1
 40
30.0
176
     1
 62
     7
420
 16777215
176
     1
 90
        1
176
     1
 90
        4
176
     1
 62
     7
176
     1
 62
   257
176
     1
 90
        1
176
     1
 90
        1
176
     1
 40
1.0
176
     1
 90
        0
176
     1
 62
   257
176
     1
 40
1.0
176
     1
 90
        1
176
     1
 90
        6
176
     1
 90
        2
176
     1
 62
     7
176
     1
 90
        5
176
     1
 90
        0
176
     1
 90
        0
176
     1
290
     0
176
     1
 90
        1
176
     1
 40
0.0
176
     1
 90
        0
176
     1
290
     1
176
     1
290
     1
176
     1
290
     0
176
     1
290
     0
176
     1
290
     0
176
     1
290
     0
176
     1
290
     0
176
     1
290
     0
176
     1
290
     0
176
     1
 90
       50
176
     1
 40
0.0
176
     1
 40
1.0
176
     1
 90
        0
176
     1
 62
    18
420
        0
176
     1
 90
       50
176
     1
 90
        3
176
     1
 62
     5
420
      255
176
     1
290
     0
176
     1
 90
       50
176
     1
 90
       50
176
     1
 90
       50
176
     1
290
     0
176
     1
 90
       50
176
     1
 62
   256
176
     0
 40
1.0
176
     0
 90
        2
176
     1
  1
strokes_ogs.tif
176
     1
290
     0
176
     1
 40
1.0
176
     1
 40
1.0
176
     1
1001
ACAD
1000
AcDbSavedByObjectVersion
1070
     0
  0
VISUALSTYLE
  5
2E
102
{ACAD_REACTORS
330
29
102
}
330
29
100
AcDbVisualStyle
  2
Basic
 70
     7
177
     3
291
     1
 70
    58
 90
        1
176
     1
 90
        0
176
     1
 90
        1
176
     1
 90
        0
176
     1
 40
0.6
176
     1
 40
30.0
176
     1
 62
     7
420
 16777215
176
     1
 90
        0
176
     1
 90
        4
176
     1
 62
     7
176
     1
 62
   257
176
     1
 90
        1
176
     1
 90
        1
176
     1
 40
1.0
176
     1
 90
        8
176
     1
 62
     7
176
     1
 40
1.0
176
     1
 90
        1
176
     1
 90
        6
176
     1
 90
        2
176
     1
 62
     7
176
     1
 90
        5
176
     1
 90
        0
176
     1
 90
        0
176
     1
290
     0
176
     1
 90
        1
176
     1
 40
0.0
176
     1
 90
        0
176
     1
290
     0
176
     1
290
     1
176
     1
290
     1
176
     1
290
     0
176
     1
290
     0
176
     1
290
     0
176
     1
290
     0
176
     1
290
     0
176
     1
290
     0
176
     1
 90
       50
176
     1
 40
0.0
176
     1
 40
1.0
176
     1
 90
        0
176
     1
 62
    18
420
        0
176
     1
 90
       50
176
     1
 90
        3
176
     1
 62
     5
420
      255
176
     1
290
     0
176
     1
 90
       50
176
     1
 90
       50
176
     1
 90
       50
176
     1
290
     0
176
     1
 90
       50
176
     1
 62
   256
176
     0
 40
1.0
176
     0
 90
        2
176
     1
  1
strokes_ogs.tif
176
     1
290
     0
176
     1
 40
1.0
176
     1
 40
1.0
176
     1
1001
ACAD
1000
AcDbSavedByObjectVersion
1070
     0
  0
VISUALSTYLE
  5
35
102
{ACAD_REACTORS
330
29
102
}
330
29
100
AcDbVisualStyle
  2
Brighten
 70
    12
177
     3
291
     1
 70
    58
 90
        2
176
     1
 90
        2
176
     1
 90
        0
176
     1
 90
        0
176
     1
 40
0.6
176
     1
 40
30.0
176
     1
 62
     7
420
 16777215
176
     1
 90
        1
176
     1
 90
        4
176
     1
 62
     7
176
     1
 62
   257
176
     1
 90
        1
176
     1
 90
        1
176
     1
 40
1.0
176
     1
 90
        8
176
     1
 62
     7
176
     1
 40
1.0
176
     1
 90
        1
176
     1
 90
        6
176
     1
 90
        2
176
     1
 62
     7
176
     1
 90
        5
176
     1
 90
        0
176
     1
 90
        0
176
     1
290
     0
176
     1
 90
        1
176
     1
 40
50.0
176
     1
 90
        0
176
     1
290
     0
176
     1
290
     1
176
     1
290
     1
176
     1
290
     0
176
     1
290
     0
176
     1
290
     0
176
     1
290
     0
176
     1
290
     0
176
     1
290
     0
176
     1
 90
       50
176
     1
 40
0.0
176
     1
 40
1.0
176
     1
 90
        0
176
     1
 62
    18
420
        0
176
     1
 90
       50
176
     1
 90
        3
176
     1
 62
     5
420
      255
176
     1
290
     0
176
     1
 90
       50
176
     1
 90
       50
176
     1
 90
       50
176
     1
290
     0
176
     1
 90
       50
176
     1
 62
   256
176
     0
 40
1.0
176
     0
 90
        2
176
     1
  1
strokes_ogs.tif
176
     1
290
     0
176
     1
 40
1.0
176
     1
 40
1.0
176
     1
1001
ACAD
1000
AcDbSavedByObjectVersion
1070
     0
  0
VISUALSTYLE
  5
39
102
{ACAD_REACTORS
330
29
102
}
330
29
100
AcDbVisualStyle
  2
ColorChange
 70
    16
177
     3
291
     1
 70
    58
 90
        2
176
     1
 90
        2
176
     1
 90
        3
176
     1
 90
        0
176
     1
 40
0.6
176
     1
 40
30.0
176
     1
 62
     8
420
  8421504
176
     1
 90
        1
176
     1
 90
        4
176
     1
 62
     7
176
     1
 62
   257
176
     1
 90
        1
176
     1
 90
        1
176
     1
 40
1.0
176
     1
 90
        8
176
     1
 62
     8
420
  8421504
176
     1
 40
1.0
176
     1
 90
        1
176
     1
 90
        6
176
     1
 90
        2
176
     1
 62
     7
176
     1
 90
        5
176
     1
 90
        0
176
     1
 90
        0
176
     1
290
     0
176
     1
 90
        1
176
     1
 40
0.0
176
     1
 90
        0
176
     1
290
     0
176
     1
290
     1
176
     1
290
     1
176
     1
290
     0
176
     1
290
     0
176
     1
290
     0
176
     1
290
     0
176
     1
290
     0
176
     1
290
     0
176
     1
 90
       50
176
     1
 40
0.0
176
     1
 40
1.0
176
     1
 90
        0
176
     1
 62
    18
420
        0
176
     1
 90
       50
176
     1
 90
        3
176
     1
 62
     5
420
      255
176
     1
290
     0
176
     1
 90
       50
176
     1
 90
       50
176
     1
 90
       50
176
     1
290
     0
176
     1
 90
       50
176
     1
 62
   256
176
     0
 40
1.0
176
     0
 90
        2
176
     1
  1
strokes_ogs.tif
176
     1
290
     0
176
     1
 40
1.0
176
     1
 40
1.0
176
     1
1001
ACAD
1000
AcDbSavedByObjectVersion
1070
     0
  0
VISUALSTYLE
  5
32
102
{ACAD_REACTORS
330
29
102
}
330
29
100
AcDbVisualStyle
  2
Conceptual
 70
     9
177
     3
291
     0
 70
    58
 90
        3
176
     1
 90
        2
176
     1
 90
        0
176
     1
 90
        0
176
     1
 40
0.6
176
     1
 40
30.0
176
     1
 62
     7
420
 16777215
176
     1
 90
        2
176
     1
 90
        2
176
     1
 62
     7
176
     1
 62
   257
176
     1
 90
        1
176
     1
 90
        1
176
     1
 40
179.0
176
     1
 90
        8
176
     1
 62
     7
176
     1
 40
1.0
176
     1
 90
        1
176
     1
 90
        6
176
     1
 90
        2
176
     1
 62
     7
176
     1
 90
        3
176
     1
 90
        0
176
     1
 90
        0
176
     1
290
     0
176
     1
 90
        1
176
     1
 40
0.0
176
     1
 90
        0
176
     1
290
     0
176
     1
290
     1
176
     1
290
     1
176
     1
290
     0
176
     1
290
     0
176
     1
290
     0
176
     1
290
     0
176
     1
290
     0
176
     1
290
     0
176
     1
 90
       50
176
     1
 40
0.0
176
     1
 40
1.0
176
     1
 90
        0
176
     1
 62
    18
420
        0
176
     1
 90
       50
176
     1
 90
        3
176
     1
 62
     5
420
      255
176
     1
290
     0
176
     1
 90
       50
176
     1
 90
       50
176
     1
 90
       50
176
     1
290
     0
176
     1
 90
       50
176
     1
 62
   256
176
     0
 40
1.0
176
     0
 90
        2
176
     1
  1
strokes_ogs.tif
176
     1
290
     0
176
     1
 40
1.0
176
     1
 40
1.0
176
     1
1001
ACAD
1000
AcDbSavedByObjectVersion
1070
     0
  0
VISUALSTYLE
  5
34
102
{ACAD_REACTORS
330
29
102
}
330
29
100
AcDbVisualStyle
  2
Dim
 70
    11
177
     3
291
     1
 70
    58
 90
        2
176
     1
 90
        2
176
     1
 90
        0
176
     1
 90
        0
176
     1
 40
0.6
176
     1
 40
30.0
176
     1
 62
     7
420
 16777215
176
     1
 90
        1
176
     1
 90
        4
176
     1
 62
     7
176
     1
 62
   257
176
     1
 90
        1
176
     1
 90
        1
176
     1
 40
1.0
176
     1
 90
        8
176
     1
 62
     7
176
     1
 40
1.0
176
     1
 90
        1
176
     1
 90
        6
176
     1
 90
        2
176
     1
 62
     7
176
     1
 90
        5
176
     1
 90
        0
176
     1
 90
        0
176
     1
290
     0
176
     1
 90
        1
176
     1
 40
-50.0
176
     1
 90
        0
176
     1
290
     0
176
     1
290
     1
176
     1
290
     1
176
     1
290
     0
176
     1
290
     0
176
     1
290
     0
176
     1
290
     0
176
     1
290
     0
176
     1
290
     0
176
     1
 90
       50
176
     1
 40
0.0
176
     1
 40
1.0
176
     1
 90
        0
176
     1
 62
    18
420
        0
176
     1
 90
       50
176
     1
 90
        3
176
     1
 62
     5
420
      255
176
     1
290
     0
176
     1
 90
       50
176
     1
 90
       50
176
     1
 90
       50
176
     1
290
     0
176
     1
 90
       50
176
     1
 62
   256
176
     0
 40
1.0
176
     0
 90
        2
176
     1
  1
strokes_ogs.tif
176
     1
290
     0
176
     1
 40
1.0
176
     1
 40
1.0
176
     1
1001
ACAD
1000
AcDbSavedByObjectVersion
1070
     0
  0
VISUALSTYLE
  5
41
102
{ACAD_REACTORS
330
29
102
}
330
29
100
AcDbVisualStyle
  2
EdgeColorOff
 70
    22
177
     3
291
     1
 70
    58
 90
        2
176
     0
 90
        2
176
     0
 90
        0
176
     0
 90
        0
176
     0
 40
0.6
176
     0
 40
30.0
176
     0
 62
     7
420
 16777215
176
     0
 90
        1
176
     0
 90
        4
176
     0
 62
     7
176
     0
 62
   257
176
     0
 90
        1
176
     0
 90
        1
176
     0
 40
1.0
176
     0
 90
        8
176
     2
 62
     7
176
     0
 40
1.0
176
     0
 90
        1
176
     0
 90
        6
176
     0
 90
        2
176
     0
 62
     7
176
     0
 90
        5
176
     0
 90
        0
176
     0
 90
        0
176
     0
290
     0
176
     0
 90
        1
176
     0
 40
0.0
176
     0
 90
        0
176
     0
290
     0
176
     0
290
     1
176
     0
290
     1
176
     0
290
     0
176
     0
290
     0
176
     0
290
     0
176
     0
290
     0
176
     0
290
     0
176
     0
290
     0
176
     0
 90
       50
176
     0
 40
0.0
176
     0
 40
1.0
176
     0
 90
        0
176
     0
 62
    18
420
        0
176
     0
 90
       50
176
     0
 90
        3
176
     0
 62
     5
420
      255
176
     0
290
     0
176
     0
 90
       50
176
     0
 90
       50
176
     0
 90
       50
176
     0
290
     0
176
     0
 90
       50
176
     0
 62
   256
176
     0
 40
1.0
176
     0
 90
        2
176
     0
  1
strokes_ogs.tif
176
     0
290
     0
176
     0
 40
1.0
176
     0
 40
1.0
176
     0
1001
ACAD
1000
AcDbSavedByObjectVersion
1070
     0
  0
VISUALSTYLE
  5
38
102
{ACAD_REACTORS
330
29
102
}
330
29
100
AcDbVisualStyle
  2
Facepattern
 70
    15
177
     3
291
     1
 70
    58
 90
        2
176
     1
 90
        2
176
     1
 90
        0
176
     1
 90
        0
176
     1
 40
0.6
176
     1
 40
30.0
176
     1
 62
     7
420
 16777215
176
     1
 90
        1
176
     1
 90
        4
176
     1
 62
     7
176
     1
 62
   257
176
     1
 90
        1
176
     1
 90
        1
176
     1
 40
1.0
176
     1
 90
        8
176
     1
 62
     7
176
     1
 40
1.0
176
     1
 90
        1
176
     1
 90
        6
176
     1
 90
        2
176
     1
 62
     7
176
     1
 90
        5
176
     1
 90
        0
176
     1
 90
        0
176
     1
290
     0
176
     1
 90
        1
176
     1
 40
0.0
176
     1
 90
        0
176
     1
290
     0
176
     1
290
     1
176
     1
290
     1
176
     1
290
     0
176
     1
290
     0
176
     1
290
     0
176
     1
290
     0
176
     1
290
     0
176
     1
290
     0
176
     1
 90
       50
176
     1
 40
0.0
176
     1
 40
1.0
176
     1
 90
        0
176
     1
 62
    18
420
        0
176
     1
 90
       50
176
     1
 90
        3
176
     1
 62
     5
420
      255
176
     1
290
     0
176
     1
 90
       50
176
     1
 90
       50
176
     1
 90
       50
176
     1
290
     0
176
     1
 90
       50
176
     1
 62
   256
176
     0
 40
1.0
176
     0
 90
        2
176
     1
  1
strokes_ogs.tif
176
     1
290
     0
176
     1
 40
1.0
176
     1
 40
1.0
176
     1
1001
ACAD
1000
AcDbSavedByObjectVersion
1070
     0
  0
VISUALSTYLE
  5
2A
102
{ACAD_REACTORS
330
29
102
}
330
29
100
AcDbVisualStyle
  2
Flat
 70
     0
177
     3
291
     1
 70
    58
 90
        2
176
     1
 90
        1
176
     1
 90
        1
176
     1
 90
        2
176
     1
 40
0.6
176
     1
 40
30.0
176
     1
 62
     7
420
 16777215
176
     1
 90
        0
176
     1
 90
        0
176
     1
 62
     7
176
     1
 62
   257
176
     1
 90
        1
176
     1
 90
        1
176
     1
 40
1.0
176
     1
 90
        8
176
     1
 62
     7
176
     1
 40
1.0
176
     1
 90
        1
176
     1
 90
        6
176
     1
 90
        2
176
     1
 62
     7
176
     1
 90
        5
176
     1
 90
        0
176
     1
 90
        0
176
     1
290
     0
176
     1
 90
       13
176
     1
 40
0.0
176
     1
 90
        0
176
     1
290
     0
176
     1
290
     1
176
     1
290
     1
176
     1
290
     0
176
     1
290
     0
176
     1
290
     0
176
     1
290
     0
176
     1
290
     0
176
     1
290
     0
176
     1
 90
       50
176
     1
 40
0.0
176
     1
 40
1.0
176
     1
 90
        0
176
     1
 62
    18
420
        0
176
     1
 90
       50
176
     1
 90
        3
176
     1
 62
     5
420
      255
176
     1
290
     0
176
     1
 90
       50
176
     1
 90
       50
176
     1
 90
       50
176
     1
290
     0
176
     1
 90
       50
176
     1
 62
   256
176
     0
 40
1.0
176
     0
 90
        2
176
     1
  1
strokes_ogs.tif
176
     1
290
     0
176
     1
 40
1.0
176
     1
 40
1.0
176
     1
1001
ACAD
1000
AcDbSavedByObjectVersion
1070
     0
  0
VISUALSTYLE
  5
2B
102
{ACAD_REACTORS
330
29
102
}
330
29
100
AcDbVisualStyle
  2
FlatWithEdges
 70
     1
177
     3
291
     1
 70
    58
 90
        2
176
     1
 90
        1
176
     1
 90
        1
176
     1
 90
        2
176
     1
 40
0.6
176
     1
 40
30.0
176
     1
 62
     7
420
 16777215
176
     1
 90
        1
176
     1
 90
        0
176
     1
 62
     7
176
     1
 62
   257
176
     1
 90
        1
176
     1
 90
        1
176
     1
 40
1.0
176
     1
 90
        0
176
     1
 62
   257
176
     1
 40
1.0
176
     1
 90
        1
176
     1
 90
        6
176
     1
 90
        2
176
     1
 62
     7
176
     1
 90
        5
176
     1
 90
        0
176
     1
 90
        0
176
     1
290
     0
176
     1
 90
       13
176
     1
 40
0.0
176
     1
 90
        0
176
     1
290
     0
176
     1
290
     1
176
     1
290
     1
176
     1
290
     0
176
     1
290
     0
176
     1
290
     0
176
     1
290
     0
176
     1
290
     0
176
     1
290
     0
176
     1
 90
       50
176
     1
 40
0.0
176
     1
 40
1.0
176
     1
 90
        0
176
     1
 62
    18
420
        0
176
     1
 90
       50
176
     1
 90
        3
176
     1
 62
     5
420
      255
176
     1
290
     0
176
     1
 90
       50
176
     1
 90
       50
176
     1
 90
       50
176
     1
290
     0
176
     1
 90
       50
176
     1
 62
   256
176
     0
 40
1.0
176
     0
 90
        2
176
     1
  1
strokes_ogs.tif
176
     1
290
     0
176
     1
 40
1.0
176
     1
 40
1.0
176
     1
1001
ACAD
1000
AcDbSavedByObjectVersion
1070
     0
  0
VISUALSTYLE
  5
2C
102
{ACAD_REACTORS
330
29
102
}
330
29
100
AcDbVisualStyle
  2
Gouraud
 70
     2
177
     3
291
     1
 70
    58
 90
        2
176
     1
 90
        2
176
     1
 90
        1
176
     1
 90
        2
176
     1
 40
0.6
176
     1
 40
30.0
176
     1
 62
     7
420
 16777215
176
     1
 90
        0
176
     1
 90
        0
176
     1
 62
     7
176
     1
 62
   257
176
     1
 90
        1
176
     1
 90
        1
176
     1
 40
1.0
176
     1
 90
        0
176
     1
 62
     7
176
     1
 40
1.0
176
     1
 90
        1
176
     1
 90
        6
176
     1
 90
        2
176
     1
 62
     7
176
     1
 90
        5
176
     1
 90
        0
176
     1
 90
        0
176
     1
290
     0
176
     1
 90
       13
176
     1
 40
0.0
176
     1
 90
        0
176
     1
290
     0
176
     1
290
     1
176
     1
290
     1
176
     1
290
     0
176
     1
290
     0
176
     1
290
     0
176
     1
290
     0
176
     1
290
     0
176
     1
290
     0
176
     1
 90
       50
176
     1
 40
0.0
176
     1
 40
1.0
176
     1
 90
        0
176
     1
 62
    18
420
        0
176
     1
 90
       50
176
     1
 90
        3
176
     1
 62
     5
420
      255
176
     1
290
     0
176
     1
 90
       50
176
     1
 90
       50
176
     1
 90
       50
176
     1
290
     0
176
     1
 90
       50
176
     1
 62
   256
176
     0
 40
1.0
176
     0
 90
        2
176
     1
  1
strokes_ogs.tif
176
     1
290
     0
176
     1
 40
1.0
176
     1
 40
1.0
176
     1
1001
ACAD
1000
AcDbSavedByObjectVersion
1070
     0
  0
VISUALSTYLE
  5
2D
102
{ACAD_REACTORS
330
29
102
}
330
29
100
AcDbVisualStyle
  2
GouraudWithEdges
 70
     3
177
     3
291
     1
 70
    58
 90
        2
176
     1
 90
        2
176
     1
 90
        1
176
     1
 90
        2
176
     1
 40
0.6
176
     1
 40
30.0
176
     1
 62
     7
420
 16777215
176
     1
 90
        1
176
     1
 90
        0
176
     1
 62
     7
176
     1
 62
   257
176
     1
 90
        1
176
     1
 90
        1
176
     1
 40
1.0
176
     1
 90
        0
176
     1
 62
   257
176
     1
 40
1.0
176
     1
 90
        1
176
     1
 90
        6
176
     1
 90
        2
176
     1
 62
     7
176
     1
 90
        5
176
     1
 90
        0
176
     1
 90
        0
176
     1
290
     0
176
     1
 90
       13
176
     1
 40
0.0
176
     1
 90
        0
176
     1
290
     0
176
     1
290
     1
176
     1
290
     1
176
     1
290
     0
176
     1
290
     0
176
     1
290
     0
176
     1
290
     0
176
     1
290
     0
176
     1
290
     0
176
     1
 90
       50
176
     1
 40
0.0
176
     1
 40
1.0
176
     1
 90
        0
176
     1
 62
    18
420
        0
176
     1
 90
       50
176
     1
 90
        3
176
     1
 62
     5
420
      255
176
     1
290
     0
176
     1
 90
       50
176
     1
 90
       50
176
     1
 90
       50
176
     1
290
     0
176
     1
 90
       50
176
     1
 62
   256
176
     0
 40
1.0
176
     0
 90
        2
176
     1
  1
strokes_ogs.tif
176
     1
290
     0
176
     1
 40
1.0
176
     1
 40
1.0
176
     1
1001
ACAD
1000
AcDbSavedByObjectVersion
1070
     0
  0
VISUALSTYLE
  5
31
102
{ACAD_REACTORS
330
29
102
}
330
29
100
AcDbVisualStyle
  2
Hidden
 70
     6
177
     3
291
     0
 70
    58
 90
        1
176
     1
 90
        2
176
     1
 90
        2
176
     1
 90
        0
176
     1
 40
0.6
176
     1
 40
30.0
176
     1
 62
     7
420
 16777215
176
     1
 90
        2
176
     1
 90
        2
176
     1
 62
     7
176
     1
 62
   257
176
     1
 90
        2
176
     1
 90
        1
176
     1
 40
40.0
176
     1
 90
        0
176
     1
 62
   257
176
     1
 40
1.0
176
     1
 90
        1
176
     1
 90
        6
176
     1
 90
        2
176
     1
 62
     7
176
     1
 90
        3
176
     1
 90
        0
176
     1
 90
        0
176
     1
290
     0
176
     1
 90
        1
176
     1
 40
0.0
176
     1
 90
        0
176
     1
290
     0
176
     1
290
     1
176
     1
290
     1
176
     1
290
     0
176
     1
290
     0
176
     1
290
     0
176
     1
290
     0
176
     1
290
     0
176
     1
290
     0
176
     1
 90
       50
176
     1
 40
0.0
176
     1
 40
1.0
176
     1
 90
        0
176
     1
 62
    18
420
        0
176
     1
 90
       50
176
     1
 90
        3
176
     1
 62
     5
420
      255
176
     1
290
     0
176
     1
 90
       50
176
     1
 90
       50
176
     1
 90
       50
176
     1
290
     0
176
     1
 90
       50
176
     1
 62
   256
176
     0
 40
1.0
176
     0
 90
        2
176
     1
  1
strokes_ogs.tif
176
     1
290
     0
176
     1
 40
1.0
176
     1
 40
1.0
176
     1
1001
ACAD
1000
AcDbSavedByObjectVersion
1070
     0
  0
VISUALSTYLE
  5
3F
102
{ACAD_REACTORS
330
29
102
}
330
29
100
AcDbVisualStyle
  2
JitterOff
 70
    20
177
     3
291
     1
 70
    58
 90
        2
176
     0
 90
        2
176
     0
 90
        0
176
     0
 90
        0
176
     0
 40
0.6
176
     0
 40
30.0
176
     0
 62
     7
420
 16777215
176
     0
 90
        1
176
     0
 90
        4
176
     0
 62
     7
176
     0
 62
   257
176
     0
 90
        1
176
     0
 90
        1
176
     0
 40
1.0
176
     0
 90
       10
176
     2
 62
     7
176
     0
 40
1.0
176
     0
 90
        1
176
     0
 90
        6
176
     0
 90
        2
176
     0
 62
     7
176
     0
 90
        5
176
     0
 90
        0
176
     0
 90
        0
176
     0
290
     0
176
     0
 90
        1
176
     0
 40
0.0
176
     0
 90
        0
176
     0
290
     0
176
     0
290
     1
176
     0
290
     1
176
     0
290
     0
176
     0
290
     0
176
     0
290
     0
176
     0
290
     0
176
     0
290
     0
176
     0
290
     0
176
     0
 90
       50
176
     0
 40
0.0
176
     0
 40
1.0
176
     0
 90
        0
176
     0
 62
    18
420
        0
176
     0
 90
       50
176
     0
 90
        3
176
     0
 62
     5
420
      255
176
     0
290
     0
176
     0
 90
       50
176
     0
 90
       50
176
     0
 90
       50
176
     0
290
     0
176
     0
 90
       50
176
     0
 62
   256
176
     0
 40
1.0
176
     0
 90
        2
176
     0
  1
strokes_ogs.tif
176
     0
290
     0
176
     0
 40
1.0
176
     0
 40
1.0
176
     0
1001
ACAD
1000
AcDbSavedByObjectVersion
1070
     0
  0
VISUALSTYLE
  5
37
102
{ACAD_REACTORS
330
29
102
}
330
29
100
AcDbVisualStyle
  2
Linepattern
 70
    14
177
     3
291
     1
 70
    58
 90
        2
176
     1
 90
        2
176
     1
 90
        0
176
     1
 90
        0
176
     1
 40
0.6
176
     1
 40
30.0
176
     1
 62
     7
420
 16777215
176
     1
 90
        1
176
     1
 90
        4
176
     1
 62
     7
176
     1
 62
   257
176
     1
 90
        7
176
     1
 90
        7
176
     1
 40
1.0
176
     1
 90
        8
176
     1
 62
     7
176
     1
 40
1.0
176
     1
 90
        1
176
     1
 90
        6
176
     1
 90
        2
176
     1
 62
     7
176
     1
 90
        5
176
     1
 90
        0
176
     1
 90
        0
176
     1
290
     0
176
     1
 90
        1
176
     1
 40
0.0
176
     1
 90
        0
176
     1
290
     0
176
     1
290
     1
176
     1
290
     1
176
     1
290
     0
176
     1
290
     0
176
     1
290
     0
176
     1
290
     0
176
     1
290
     0
176
     1
290
     0
176
     1
 90
       50
176
     1
 40
0.0
176
     1
 40
1.0
176
     1
 90
        0
176
     1
 62
    18
420
        0
176
     1
 90
       50
176
     1
 90
        3
176
     1
 62
     5
420
      255
176
     1
290
     0
176
     1
 90
       50
176
     1
 90
       50
176
     1
 90
       50
176
     1
290
     0
176
     1
 90
       50
176
     1
 62
   256
176
     0
 40
1.0
176
     0
 90
        2
176
     1
  1
strokes_ogs.tif
176
     1
290
     0
176
     1
 40
1.0
176
     1
 40
1.0
176
     1
1001
ACAD
1000
AcDbSavedByObjectVersion
1070
     0
  0
VISUALSTYLE
  5
40
102
{ACAD_REACTORS
330
29
102
}
330
29
100
AcDbVisualStyle
  2
OverhangOff
 70
    21
177
     3
291
     1
 70
    58
 90
        2
176
     0
 90
        2
176
     0
 90
        0
176
     0
 90
        0
176
     0
 40
0.6
176
     0
 40
30.0
176
     0
 62
     7
420
 16777215
176
     0
 90
        1
176
     0
 90
        4
176
     0
 62
     7
176
     0
 62
   257
176
     0
 90
        1
176
     0
 90
        1
176
     0
 40
1.0
176
     0
 90
        9
176
     2
 62
     7
176
     0
 40
1.0
176
     0
 90
        1
176
     0
 90
        6
176
     0
 90
        2
176
     0
 62
     7
176
     0
 90
        5
176
     0
 90
        0
176
     0
 90
        0
176
     0
290
     0
176
     0
 90
        1
176
     0
 40
0.0
176
     0
 90
        0
176
     0
290
     0
176
     0
290
     1
176
     0
290
     1
176
     0
290
     0
176
     0
290
     0
176
     0
290
     0
176
     0
290
     0
176
     0
290
     0
176
     0
290
     0
176
     0
 90
       50
176
     0
 40
0.0
176
     0
 40
1.0
176
     0
 90
        0
176
     0
 62
    18
420
        0
176
     0
 90
       50
176
     0
 90
        3
176
     0
 62
     5
420
      255
176
     0
290
     0
176
     0
 90
       50
176
     0
 90
       50
176
     0
 90
       50
176
     0
290
     0
176
     0
 90
       50
176
     0
 62
   256
176
     0
 40
1.0
176
     0
 90
        2
176
     0
  1
strokes_ogs.tif
176
     0
290
     0
176
     0
 40
1.0
176
     0
 40
1.0
176
     0
1001
ACAD
1000
AcDbSavedByObjectVersion
1070
     0
  0
VISUALSTYLE
  5
33
102
{ACAD_REACTORS
330
29
102
}
330
29
100
AcDbVisualStyle
  2
Realistic
 70
     8
177
     3
291
     0
 70
    58
 90
        2
176
     1
 90
        3
176
     1
 90
        0
176
     1
 90
        2
176
     1
 40
0.6
176
     1
 40
30.0
176
     1
 62
     7
420
 16777215
176
     1
 90
        0
176
     1
 90
        0
176
     1
 62
     7
176
     1
 62
   257
176
     1
 90
        1
176
     1
 90
        1
176
     1
 40
1.0
176
     1
 90
        8
176
     1
 62
   257
176
     1
 40
1.0
176
     1
 90
        1
176
     1
 90
        6
176
     1
 90
        2
176
     1
 62
     7
176
     1
 90
        3
176
     1
 90
        0
176
     1
 90
        0
176
     1
290
     0
176
     1
 90
       13
176
     1
 40
0.0
176
     1
 90
        0
176
     1
290
     0
176
     1
290
     1
176
     1
290
     1
176
     1
290
     0
176
     1
290
     0
176
     1
290
     0
176
     1
290
     0
176
     1
290
     0
176
     1
290
     0
176
     1
 90
       50
176
     1
 40
0.0
176
     1
 40
1.0
176
     1
 90
        0
176
     1
 62
    18
420
        0
176
     1
 90
       50
176
     1
 90
        3
176
     1
 62
     5
420
      255
176
     1
290
     0
176
     1
 90
       50
176
     1
 90
       50
176
     1
 90
       50
176
     1
290
     0
176
     1
 90
       50
176
     1
 62
   256
176
     0
 40
1.0
176
     0
 90
        2
176
     1
  1
strokes_ogs.tif
176
     1
290
     0
176
     1
 40
1.0
176
     1
 40
1.0
176
     1
1001
ACAD
1000
AcDbSavedByObjectVersion
1070
     0
  0
VISUALSTYLE
  5
3E
102
{ACAD_REACTORS
330
29
102
}
330
29
100
AcDbVisualStyle
  2
Shaded
 70
    27
177
     3
291
     0
 70
    58
 90
        2
176
     1
 90
        2
176
     1
 90
        1
176
     1
 90
        2
176
     1
 40
0.6
176
     1
 40
30.0
176
     1
 62
     7
420
 16777215
176
     1
 90
        0
176
     1
 90
        4
176
     1
 62
     7
176
     1
 62
   257
176
     1
 90
        1
176
     1
 90
        1
176
     1
 40
1.0
176
     1
 90
        8
176
     1
 62
   257
176
     1
 40
1.0
176
     1
 90
        1
176
     1
 90
        6
176
     1
 90
        2
176
     1
 62
     8
420
  7895160
176
     1
 90
        3
176
     1
 90
        0
176
     1
 90
        0
176
     1
290
     0
176
     1
 90
        5
176
     1
 40
0.0
176
     1
 90
        0
176
     1
290
     0
176
     1
290
     1
176
     1
290
     1
176
     1
290
     0
176
     1
290
     0
176
     1
290
     0
176
     1
290
     0
176
     1
290
     0
176
     1
290
     0
176
     1
 90
       50
176
     1
 40
0.0
176
     1
 40
1.0
176
     1
 90
        0
176
     1
 62
    18
420
        0
176
     1
 90
       50
176
     1
 90
        3
176
     1
 62
     5
420
      255
176
     1
290
     0
176
     1
 90
       50
176
     1
 90
       50
176
     1
 90
       50
176
     1
290
     0
176
     1
 90
       50
176
     1
 62
   256
176
     0
 40
1.0
176
     0
 90
        2
176
     1
  1
strokes_ogs.tif
176
     1
290
     0
176
     1
 40
1.0
176
     1
 40
1.0
176
     1
1001
ACAD
1000
AcDbSavedByObjectVersion
1070
     0
  0
VISUALSTYLE
  5
3D
102
{ACAD_REACTORS
330
29
102
}
330
29
100
AcDbVisualStyle
  2
Shaded with edges
 70
    26
177
     3
291
     0
 70
    58
 90
        2
176
     1
 90
        2
176
     1
 90
        1
176
     1
 90
        2
176
     1
 40
0.6
176
     1
 40
30.0
176
     1
 62
     7
420
 16777215
176
     1
 90
        1
176
     1
 90
        2
176
     1
 62
     7
176
     1
 62
   257
176
     1
 90
        2
176
     1
 90
        1
176
     1
 40
1.0
176
     1
 90
        8
176
     1
 62
   257
176
     1
 40
1.0
176
     1
 90
        1
176
     1
 90
        6
176
     1
 90
        2
176
     1
 62
     7
176
     1
 90
        3
176
     1
 90
        0
176
     1
 90
        0
176
     1
290
     0
176
     1
 90
        5
176
     1
 40
0.0
176
     1
 90
        0
176
     1
290
     0
176
     1
290
     1
176
     1
290
     1
176
     1
290
     0
176
     1
290
     0
176
     1
290
     0
176
     1
290
     0
176
     1
290
     0
176
     1
290
     0
176
     1
 90
       50
176
     1
 40
0.0
176
     1
 40
1.0
176
     1
 90
        0
176
     1
 62
    18
420
        0
176
     1
 90
       50
176
     1
 90
        3
176
     1
 62
     5
420
      255
176
     1
290
     0
176
     1
 90
       50
176
     1
 90
       50
176
     1
 90
       50
176
     1
290
     0
176
     1
 90
       50
176
     1
 62
   256
176
     0
 40
1.0
176
     0
 90
        2
176
     1
  1
strokes_ogs.tif
176
     1
290
     0
176
     1
 40
1.0
176
     1
 40
1.0
176
     1
1001
ACAD
1000
AcDbSavedByObjectVersion
1070
     0
  0
VISUALSTYLE
  5
3A
102
{ACAD_REACTORS
330
29
102
}
330
29
100
AcDbVisualStyle
  2
Shades of Gray
 70
    23
177
     3
291
     0
 70
    58
 90
        2
176
     1
 90
        2
176
     1
 90
        3
176
     1
 90
        0
176
     1
 40
0.6
176
     1
 40
30.0
176
     1
 62
     7
420
 16777215
176
     1
 90
        2
176
     1
 90
        2
176
     1
 62
     7
176
     1
 62
     7
176
     1
 90
        1
176
     1
 90
        1
176
     1
 40
40.0
176
     1
 90
        8
176
     1
 62
     7
176
     1
 40
1.0
176
     1
 90
        1
176
     1
 90
        6
176
     1
 90
        2
176
     1
 62
     7
176
     1
 90
        3
176
     1
 90
        0
176
     1
 90
        0
176
     1
290
     0
176
     1
 90
        1
176
     1
 40
0.0
176
     1
 90
        0
176
     1
290
     0
176
     1
290
     1
176
     1
290
     1
176
     1
290
     0
176
     1
290
     0
176
     1
290
     0
176
     1
290
     0
176
     1
290
     0
176
     1
290
     0
176
     1
 90
       50
176
     1
 40
0.0
176
     1
 40
1.0
176
     1
 90
        0
176
     1
 62
    18
420
        0
176
     1
 90
       50
176
     1
 90
        3
176
     1
 62
     5
420
      255
176
     1
290
     0
176
     1
 90
       50
176
     1
 90
       50
176
     1
 90
       50
176
     1
290
     0
176
     1
 90
       50
176
     1
 62
   256
176
     0
 40
1.0
176
     0
 90
        2
176
     1
  1
strokes_ogs.tif
176
     1
290
     0
176
     1
 40
1.0
176
     1
 40
1.0
176
     1
1001
ACAD
1000
AcDbSavedByObjectVersion
1070
     0
  0
VISUALSTYLE
  5
3B
102
{ACAD_REACTORS
330
29
102
}
330
29
100
AcDbVisualStyle
  2
Sketchy
 70
    24
177
     3
291
     0
 70
    58
 90
        1
176
     1
 90
        2
176
     1
 90
        2
176
     1
 90
        0
176
     1
 40
0.6
176
     1
 40
30.0
176
     1
 62
     7
420
 16777215
176
     1
 90
        2
176
     1
 90
        2
176
     1
 62
     7
176
     1
 62
     7
176
     1
 90
        1
176
     1
 90
        1
176
     1
 40
40.0
176
     1
 90
       11
176
     1
 62
     7
176
     1
 40
1.0
176
     1
 90
        1
176
     1
 90
        6
176
     1
 90
        2
176
     1
 62
     7
176
     1
 90
        6
176
     1
 90
        0
176
     1
 90
        0
176
     1
290
     0
176
     1
 90
        1
176
     1
 40
0.0
176
     1
 90
        0
176
     1
290
     0
176
     1
290
     1
176
     1
290
     1
176
     1
290
     0
176
     1
290
     0
176
     1
290
     0
176
     1
290
     0
176
     1
290
     0
176
     1
290
     0
176
     1
 90
       50
176
     1
 40
0.0
176
     1
 40
1.0
176
     1
 90
        0
176
     1
 62
    18
420
        0
176
     1
 90
       50
176
     1
 90
        3
176
     1
 62
     5
420
      255
176
     1
290
     0
176
     1
 90
       50
176
     1
 90
       50
176
     1
 90
       50
176
     1
290
     0
176
     1
 90
       50
176
     1
 62
   256
176
     0
 40
1.0
176
     0
 90
        2
176
     1
  1
strokes_ogs.tif
176
     1
290
     0
176
     1
 40
1.0
176
     1
 40
1.0
176
     1
1001
ACAD
1000
AcDbSavedByObjectVersion
1070
     0
  0
VISUALSTYLE
  5
36
102
{ACAD_REACTORS
330
29
102
}
330
29
100
AcDbVisualStyle
  2
Thicken
 70
    13
177
     3
291
     1
 70
    58
 90
        2
176
     1
 90
        2
176
     1
 90
        0
176
     1
 90
        0
176
     1
 40
0.6
176
     1
 40
30.0
176
     1
 62
     7
420
 16777215
176
     1
 90
        1
176
     1
 90
        4
176
     1
 62
     7
176
     1
 62
   257
176
     1
 90
        1
176
     1
 90
        1
176
     1
 40
1.0
176
     1
 90
       12
176
     1
 62
     7
176
     1
 40
1.0
176
     1
 90
        1
176
     1
 90
        6
176
     1
 90
        2
176
     1
 62
     7
176
     1
 90
        5
176
     1
 90
        0
176
     1
 90
        0
176
     1
290
     0
176
     1
 90
        1
176
     1
 40
0.0
176
     1
 90
        0
176
     1
290
     0
176
     1
290
     1
176
     1
290
     1
176
     1
290
     0
176
     1
290
     0
176
     1
290
     0
176
     1
290
     0
176
     1
290
     0
176
     1
290
     0
176
     1
 90
       50
176
     1
 40
0.0
176
     1
 40
1.0
176
     1
 90
        0
176
     1
 62
    18
420
        0
176
     1
 90
       50
176
     1
 90
        3
176
     1
 62
     5
420
      255
176
     1
290
     0
176
     1
 90
       50
176
     1
 90
       50
176
     1
 90
       50
176
     1
290
     0
176
     1
 90
       50
176
     1
 62
   256
176
     0
 40
1.0
176
     0
 90
        2
176
     1
  1
strokes_ogs.tif
176
     1
290
     0
176
     1
 40
1.0
176
     1
 40
1.0
176
     1
1001
ACAD
1000
AcDbSavedByObjectVersion
1070
     0
  0
VISUALSTYLE
  5
30
102
{ACAD_REACTORS
330
29
102
}
330
29
100
AcDbVisualStyle
  2
Wireframe
 70
     5
177
     3
291
     0
 70
    58
 90
        0
176
     1
 90
        2
176
     1
 90
        0
176
     1
 90
        0
176
     1
 40
0.6
176
     1
 40
30.0
176
     1
 62
     7
420
 16777215
176
     1
 90
        1
176
     1
 90
        4
176
     1
 62
     7
176
     1
 62
   257
176
     1
 90
        1
176
     1
 90
        1
176
     1
 40
1.0
176
     1
 90
        0
176
     1
 62
   257
176
     1
 40
1.0
176
     1
 90
        1
176
     1
 90
        6
176
     1
 90
        2
176
     1
 62
     7
176
     1
 90
        3
176
     1
 90
        0
176
     1
 90
        0
176
     1
290
     0
176
     1
 90
        1
176
     1
 40
0.0
176
     1
 90
        0
176
     1
290
     0
176
     1
290
     1
176
     1
290
     1
176
     1
290
     0
176
     1
290
     0
176
     1
290
     0
176
     1
290
     0
176
     1
290
     0
176
     1
290
     0
176
     1
 90
       50
176
     1
 40
0.0
176
     1
 40
1.0
176
     1
 90
        0
176
     1
 62
    18
420
        0
176
     1
 90
       50
176
     1
 90
        3
176
     1
 62
     5
420
      255
176
     1
290
     0
176
     1
 90
       50
176
     1
 90
       50
176
     1
 90
       50
176
     1
290
     0
176
     1
 90
       50
176
     1
 62
   256
176
     0
 40
1.0
176
     0
 90
        2
176
     1
  1
strokes_ogs.tif
176
     1
290
     0
176
     1
 40
1.0
176
     1
 40
1.0
176
     1
1001
ACAD
1000
AcDbSavedByObjectVersion
1070
     0
  0
VISUALSTYLE
  5
3C
102
{ACAD_REACTORS
330
29
102
}
330
29
100
AcDbVisualStyle
  2
X-Ray
 70
    25
177
     3
291
     0
 70
    58
 90
        2
176
     1
 90
        2
176
     1
 90
        1
176
     1
 90
        1
176
     1
 40
0.5
176
     1
 40
30.0
176
     1
 62
     7
420
 16777215
176
     1
 90
        1
176
     1
 90
        0
176
     1
 62
     7
176
     1
 62
   257
176
     1
 90
        1
176
     1
 90
        1
176
     1
 40
1.0
176
     1
 90
        8
176
     1
 62
     7
176
     1
 40
1.0
176
     1
 90
        1
176
     1
 90
        6
176
     1
 90
        2
176
     1
 62
     7
176
     1
 90
        3
176
     1
 90
        0
176
     1
 90
        0
176
     1
290
     0
176
     1
 90
       13
176
     1
 40
0.0
176
     1
 90
        0
176
     1
290
     0
176
     1
290
     1
176
     1
290
     1
176
     1
290
     0
176
     1
290
     0
176
     1
290
     0
176
     1
290
     0
176
     1
290
     0
176
     1
290
     0
176
     1
 90
       50
176
     1
 40
0.0
176
     1
 40
1.0
176
     1
 90
        0
176
     1
 62
    18
420
        0
176
     1
 90
       50
176
     1
 90
        3
176
     1
 62
     5
420
      255
176
     1
290
     0
176
     1
 90
       50
176
     1
 90
       50
176
     1
 90
       50
176
     1
290
     0
176
     1
 90
       50
176
     1
 62
   256
176
     0
 40
1.0
176
     0
 90
        2
176
     1
  1
strokes_ogs.tif
176
     1
290
     0
176
     1
 40
1.0
176
     1
 40
1.0
176
     1
1001
ACAD
1000
AcDbSavedByObjectVersion
1070
     0
  0
DICTIONARYVAR
  5
43C
102
{ACAD_REACTORS
330
437
102
}
330
437
100
DictionaryVariables
280
     0
  1
0
  0
DICTIONARYVAR
  5
43D
102
{ACAD_REACTORS
330
437
102
}
330
437
100
DictionaryVariables
280
     0
  1
1:1
  0
DICTIONARYVAR
  5
439
102
{ACAD_REACTORS
330
437
102
}
330
437
100
DictionaryVariables
280
     0
  1
STANDARD
  0
DICTIONARYVAR
  5
438
102
{ACAD_REACTORS
330
437
102
}
330
437
100
DictionaryVariables
280
     0
  1
STANDARD
  0
DICTIONARYVAR
  5
43A
102
{ACAD_REACTORS
330
437
102
}
330
437
100
DictionaryVariables
280
     0
  1
Imperial24
  0
DICTIONARYVAR
  5
43B
102
{ACAD_REACTORS
330
437
102
}
330
437
100
DictionaryVariables
280
     0
  1
Imperial24
  0
DICTIONARY
  5
443
330
6B
100
AcDbDictionary
280
     1
281
     1
  3
ACAD_XREC_ROUNDTRIP
360
444
  0
DICTIONARY
  5
1A
330
19
100
AcDbDictionary
280
     1
281
     1
  3
BUMPTILE
360
1C
  3
DIFFUSETILE
360
1B
  3
OPACITYTILE
360
1F
  3
REFLECTIONTILE
360
1E
  3
REFRACTIONTILE
360
20
  3
SPECULARTILE
360
1D
  0
DICTIONARY
  5
12
330
11
100
AcDbDictionary
280
     1
281
     1
  3
BUMPTILE
360
14
  3
DIFFUSETILE
360
13
  3
OPACITYTILE
360
17
  3
REFLECTIONTILE
360
16
  3
REFRACTIONTILE
360
18
  3
SPECULARTILE
360
15
  0
DICTIONARY
  5
22
330
21
100
AcDbDictionary
280
     1
281
     1
  3
BUMPTILE
360
24
  3
DIFFUSETILE
360
23
  3
OPACITYTILE
360
27
  3
REFLECTIONTILE
360
26
  3
REFRACTIONTILE
360
28
  3
SPECULARTILE
360
25
  0
DICTIONARY
  5
441
330
69
100
AcDbDictionary
280
     1
281
     1
  3
ACAD_XREC_ROUNDTRIP
360
442
  0
DICTIONARY
  5
43E
330
65
100
AcDbDictionary
280
     1
281
     1
  3
ACAD_ROUNDTRIP_2008_TABLESTYLE_CELLSTYLEMAP
360
43F
  0
XRECORD
  5
444
102
{ACAD_REACTORS
330
443
102
}
330
443
100
AcDbXrecord
280
     1
102
DISPLAYNAME
  1
Imperial24
102
FLAGS
 90
        0
  0
XRECORD
  5
1C
102
{ACAD_REACTORS
330
1A
102
}
330
1A
100
AcDbXrecord
280
     1
270
     1
271
     1
  0
XRECORD
  5
1B
102
{ACAD_REACTORS
330
1A
102
}
330
1A
100
AcDbXrecord
280
     1
270
     1
271
     1
  0
XRECORD
  5
1F
102
{ACAD_REACTORS
330
1A
102
}
330
1A
100
AcDbXrecord
280
     1
270
     1
271
     1
  0
XRECORD
  5
1E
102
{ACAD_REACTORS
330
1A
102
}
330
1A
100
AcDbXrecord
280
     1
270
     1
271
     1
  0
XRECORD
  5
20
102
{ACAD_REACTORS
330
1A
102
}
330
1A
100
AcDbXrecord
280
     1
270
     1
271
     1
  0
XRECORD
  5
1D
102
{ACAD_REACTORS
330
1A
102
}
330
1A
100
AcDbXrecord
280
     1
270
     1
271
     1
  0
XRECORD
  5
14
102
{ACAD_REACTORS
330
12
102
}
330
12
100
AcDbXrecord
280
     1
270
     1
271
     1
  0
XRECORD
  5
13
102
{ACAD_REACTORS
330
12
102
}
330
12
100
AcDbXrecord
280
     1
270
     1
271
     1
  0
XRECORD
  5
17
102
{ACAD_REACTORS
330
12
102
}
330
12
100
AcDbXrecord
280
     1
270
     1
271
     1
  0
XRECORD
  5
16
102
{ACAD_REACTORS
330
12
102
}
330
12
100
AcDbXrecord
280
     1
270
     1
271
     1
  0
XRECORD
  5
18
102
{ACAD_REACTORS
330
12
102
}
330
12
100
AcDbXrecord
280
     1
270
     1
271
     1
  0
XRECORD
  5
15
102
{ACAD_REACTORS
330
12
102
}
330
12
100
AcDbXrecord
280
     1
270
     1
271
     1
  0
XRECORD
  5
24
102
{ACAD_REACTORS
330
22
102
}
330
22
100
AcDbXrecord
280
     1
270
     1
271
     1
  0
XRECORD
  5
23
102
{ACAD_REACTORS
330
22
102
}
330
22
100
AcDbXrecord
280
     1
270
     1
271
     1
  0
XRECORD
  5
27
102
{ACAD_REACTORS
330
22
102
}
330
22
100
AcDbXrecord
280
     1
270
     1
271
     1
  0
XRECORD
  5
26
102
{ACAD_REACTORS
330
22
102
}
330
22
100
AcDbXrecord
280
     1
270
     1
271
     1
  0
XRECORD
  5
28
102
{ACAD_REACTORS
330
22
102
}
330
22
100
AcDbXrecord
280
     1
270
     1
271
     1
  0
XRECORD
  5
25
102
{ACAD_REACTORS
330
22
102
}
330
22
100
AcDbXrecord
280
     1
270
     1
271
     1
  0
XRECORD
  5
442
102
{ACAD_REACTORS
330
441
102
}
330
441
100
AcDbXrecord
280
     1
102
DISPLAYNAME
  1
Imperial24
102
FLAGS
 90
        0
  0
CELLSTYLEMAP
  5
43F
102
{ACAD_REACTORS
330
43E
102
}
330
43E
100
AcDbCellStyleMap
 90
        3
300
CELLSTYLE
  1
TABLEFORMAT_BEGIN
 90
        5
170
     1
 91
        0
 92
    32768
 62
   257
 93
        1
300
CONTENTFORMAT
  1
CONTENTFORMAT_BEGIN
 90
        0
 91
        0
 92
      512
 93
        0
300

 40
0.0
140
1.0
 94
        5
 62
     0
340
55
144
0.25
309
CONTENTFORMAT_END
171
     1
301
MARGIN
  1
CELLMARGIN_BEGIN
 40
1.5
 40
1.5
 40
1.5
 40
1.5
 40
0.18
 40
0.18
309
CELLMARGIN_END
 94
        0
309
TABLEFORMAT_END
  1
CELLSTYLE_BEGIN
 90
        1
 91
        1
300
_TITLE
309
CELLSTYLE_END
300
CELLSTYLE
  1
TABLEFORMAT_BEGIN
 90
        5
170
     1
 91
        0
 92
        0
 62
   257
 93
        1
300
CONTENTFORMAT
  1
CONTENTFORMAT_BEGIN
 90
        0
 91
        0
 92
      512
 93
        0
300

 40
0.0
140
1.0
 94
        5
 62
     0
340
55
144
0.18
309
CONTENTFORMAT_END
171
     1
301
MARGIN
  1
CELLMARGIN_BEGIN
 40
1.5
 40
1.5
 40
1.5
 40
1.5
 40
0.18
 40
0.18
309
CELLMARGIN_END
 94
        0
309
TABLEFORMAT_END
  1
CELLSTYLE_BEGIN
 90
        2
 91
        1
300
_HEADER
309
CELLSTYLE_END
300
CELLSTYLE
  1
TABLEFORMAT_BEGIN
 90
        5
170
     1
 91
        0
 92
        0
 62
   257
 93
        1
300
CONTENTFORMAT
  1
CONTENTFORMAT_BEGIN
 90
        0
 91
        0
 92
      512
 93
        0
300

 40
0.0
140
1.0
 94
        2
 62
     0
340
55
144
0.18
309
CONTENTFORMAT_END
171
     1
301
MARGIN
  1
CELLMARGIN_BEGIN
 40
1.5
 40
1.5
 40
1.5
 40
1.5
 40
0.18
 40
0.18
309
CELLMARGIN_END
 94
        0
309
TABLEFORMAT_END
  1
CELLSTYLE_BEGIN
 90
        3
 91
        2
300
_DATA
309
CELLSTYLE_END
  0
ENDSEC
  0
EOF
